<svg xmlns="http://www.w3.org/2000/svg" version="1.1" width="561" height="66">
<path d="M 4.930664 6.997559 Q 4.930664 5.848145 4.565430 5.262695 Q 4.200195 4.677246 3.485840 4.677246 Q 2.766113 4.677246 2.395508 5.265381 Q 2.024902 5.853516 2.024902 6.997559 Q 2.024902 8.136230 2.395508 8.727051 Q 2.766113 9.317871 3.485840 9.317871 Q 4.200195 9.317871 4.565430 8.732422 Q 4.930664 8.146973 4.930664 6.997559 Z M 2.024902 4.752441 Q 2.261230 4.312012 2.677490 4.075684 Q 3.093750 3.839355 3.641602 3.839355 Q 4.726562 3.839355 5.349609 4.674561 Q 5.972656 5.509766 5.972656 6.976074 Q 5.972656 8.463867 5.346924 9.309814 Q 4.721191 10.155762 3.630859 10.155762 Q 3.093750 10.155762 2.682861 9.922119 Q 2.271973 9.688477 2.024902 9.242676 L 2.024902 10.000000 L 1.036621 10.000000 L 1.036621 1.642578 L 2.024902 1.642578 Z " fill="rgb(0, 0, 0)" fill-opacity="1.000000" />
<path d="M 2.878906 26.319336 L 2.878906 12.300781 L 3.738281 12.300781 L 3.738281 26.319336 Z " fill="rgb(0, 0, 0)" fill-opacity="1.000000" />
<path d="M 2.878906 39.319336 L 2.878906 25.300781 L 3.738281 25.300781 L 3.738281 32.412109 L 6.729980 32.412109 L 6.729980 33.335938 L 3.738281 33.335938 L 3.738281 39.319336 Z " fill="rgb(0, 0, 0)" fill-opacity="1.000000" />
<path d="M 2.878906 52.319336 L 2.878906 38.300781 L 3.738281 38.300781 L 3.738281 52.319336 Z " fill="rgb(0, 0, 0)" fill-opacity="1.000000" />
<path d="M 2.878906 59.335938 L 2.878906 51.300781 L 3.738281 51.300781 L 3.738281 58.412109 L 6.729980 58.412109 L 6.729980 59.335938 Z " fill="rgb(0, 0, 0)" fill-opacity="1.000000" />
<path d="M 6.892578 59.335938 L 6.892578 58.412109 L 13.729980 58.412109 L 13.729980 59.335938 Z " fill="rgb(0, 0, 0)" fill-opacity="1.000000" />
<path d="M 13.892578 59.335938 L 13.892578 58.412109 L 20.729980 58.412109 L 20.729980 59.335938 Z " fill="rgb(0, 0, 0)" fill-opacity="1.000000" />
<path d="M 20.892578 59.335938 L 20.892578 58.412109 L 27.729980 58.412109 L 27.729980 59.335938 Z " fill="rgb(0, 0, 0)" fill-opacity="1.000000" />
<path d="M 27.892578 59.335938 L 27.892578 58.412109 L 34.729980 58.412109 L 34.729980 59.335938 Z " fill="rgb(0, 0, 0)" fill-opacity="1.000000" />
<path d="M 34.892578 59.335938 L 34.892578 58.412109 L 41.729980 58.412109 L 41.729980 59.335938 Z " fill="rgb(0, 0, 0)" fill-opacity="1.000000" />
<path d="M 41.892578 59.335938 L 41.892578 58.412109 L 48.729980 58.412109 L 48.729980 59.335938 Z " fill="rgb(0, 0, 0)" fill-opacity="1.000000" />
<path d="M 48.892578 59.335938 L 48.892578 58.412109 L 55.729980 58.412109 L 55.729980 59.335938 Z " fill="rgb(0, 0, 0)" fill-opacity="1.000000" />
<path d="M 55.892578 59.335938 L 55.892578 58.412109 L 62.729980 58.412109 L 62.729980 59.335938 Z " fill="rgb(0, 0, 0)" fill-opacity="1.000000" />
<path d="M 62.892578 59.335938 L 62.892578 58.412109 L 69.729980 58.412109 L 69.729980 59.335938 Z " fill="rgb(0, 0, 0)" fill-opacity="1.000000" />
<path d="M 69.892578 59.335938 L 69.892578 58.412109 L 76.729980 58.412109 L 76.729980 59.335938 Z " fill="rgb(0, 0, 0)" fill-opacity="1.000000" />
<path d="M 76.892578 59.335938 L 76.892578 58.412109 L 83.729980 58.412109 L 83.729980 59.335938 Z " fill="rgb(0, 0, 0)" fill-opacity="1.000000" />
<path d="M 83.892578 59.335938 L 83.892578 58.412109 L 90.729980 58.412109 L 90.729980 59.335938 Z " fill="rgb(0, 0, 0)" fill-opacity="1.000000" />
<path d="M 90.892578 59.335938 L 90.892578 58.412109 L 97.729980 58.412109 L 97.729980 59.335938 Z " fill="rgb(0, 0, 0)" fill-opacity="1.000000" />
<path d="M 97.892578 59.335938 L 97.892578 58.412109 L 104.729980 58.412109 L 104.729980 59.335938 Z " fill="rgb(0, 0, 0)" fill-opacity="1.000000" />
<path d="M 104.892578 59.335938 L 104.892578 58.412109 L 111.729980 58.412109 L 111.729980 59.335938 Z " fill="rgb(0, 0, 0)" fill-opacity="1.000000" />
<path d="M 111.892578 59.335938 L 111.892578 58.412109 L 118.729980 58.412109 L 118.729980 59.335938 Z " fill="rgb(0, 0, 0)" fill-opacity="1.000000" />
<path d="M 118.892578 59.335938 L 118.892578 58.412109 L 125.729980 58.412109 L 125.729980 59.335938 Z " fill="rgb(0, 0, 0)" fill-opacity="1.000000" />
<path d="M 125.892578 59.335938 L 125.892578 58.412109 L 132.729980 58.412109 L 132.729980 59.335938 Z " fill="rgb(0, 0, 0)" fill-opacity="1.000000" />
<path d="M 132.892578 59.335938 L 132.892578 58.412109 L 139.729980 58.412109 L 139.729980 59.335938 Z " fill="rgb(0, 0, 0)" fill-opacity="1.000000" />
<path d="M 139.892578 59.335938 L 139.892578 58.412109 L 146.729980 58.412109 L 146.729980 59.335938 Z " fill="rgb(0, 0, 0)" fill-opacity="1.000000" />
<path d="M 146.892578 59.335938 L 146.892578 58.412109 L 153.729980 58.412109 L 153.729980 59.335938 Z " fill="rgb(0, 0, 0)" fill-opacity="1.000000" />
<path d="M 153.892578 59.335938 L 153.892578 58.412109 L 160.729980 58.412109 L 160.729980 59.335938 Z " fill="rgb(0, 0, 0)" fill-opacity="1.000000" />
<path d="M 160.892578 59.335938 L 160.892578 58.412109 L 167.729980 58.412109 L 167.729980 59.335938 Z " fill="rgb(0, 0, 0)" fill-opacity="1.000000" />
<path d="M 167.892578 59.335938 L 167.892578 58.412109 L 174.729980 58.412109 L 174.729980 59.335938 Z " fill="rgb(0, 0, 0)" fill-opacity="1.000000" />
<path d="M 174.892578 59.335938 L 174.892578 58.412109 L 181.729980 58.412109 L 181.729980 59.335938 Z " fill="rgb(0, 0, 0)" fill-opacity="1.000000" />
<path d="M 181.892578 59.335938 L 181.892578 58.412109 L 188.729980 58.412109 L 188.729980 59.335938 Z " fill="rgb(0, 0, 0)" fill-opacity="1.000000" />
<path d="M 188.892578 59.335938 L 188.892578 58.412109 L 195.729980 58.412109 L 195.729980 59.335938 Z " fill="rgb(0, 0, 0)" fill-opacity="1.000000" />
<path d="M 195.892578 59.335938 L 195.892578 58.412109 L 202.729980 58.412109 L 202.729980 59.335938 Z " fill="rgb(0, 0, 0)" fill-opacity="1.000000" />
<path d="M 202.892578 59.335938 L 202.892578 58.412109 L 209.729980 58.412109 L 209.729980 59.335938 Z " fill="rgb(0, 0, 0)" fill-opacity="1.000000" />
<path d="M 209.892578 59.335938 L 209.892578 58.412109 L 216.729980 58.412109 L 216.729980 59.335938 Z " fill="rgb(0, 0, 0)" fill-opacity="1.000000" />
<path d="M 216.892578 59.335938 L 216.892578 58.412109 L 223.729980 58.412109 L 223.729980 59.335938 Z " fill="rgb(0, 0, 0)" fill-opacity="1.000000" />
<path d="M 223.892578 59.335938 L 223.892578 58.412109 L 230.729980 58.412109 L 230.729980 59.335938 Z " fill="rgb(0, 0, 0)" fill-opacity="1.000000" />
<path d="M 230.892578 59.335938 L 230.892578 58.412109 L 237.729980 58.412109 L 237.729980 59.335938 Z " fill="rgb(0, 0, 0)" fill-opacity="1.000000" />
<path d="M 237.892578 59.335938 L 237.892578 58.412109 L 244.729980 58.412109 L 244.729980 59.335938 Z " fill="rgb(0, 0, 0)" fill-opacity="1.000000" />
<path d="M 244.892578 59.335938 L 244.892578 58.412109 L 251.729980 58.412109 L 251.729980 59.335938 Z " fill="rgb(0, 0, 0)" fill-opacity="1.000000" />
<path d="M 251.892578 59.335938 L 251.892578 58.412109 L 258.729980 58.412109 L 258.729980 59.335938 Z " fill="rgb(0, 0, 0)" fill-opacity="1.000000" />
<path d="M 258.892578 59.335938 L 258.892578 58.412109 L 265.729980 58.412109 L 265.729980 59.335938 Z " fill="rgb(0, 0, 0)" fill-opacity="1.000000" />
<path d="M 265.892578 59.335938 L 265.892578 58.412109 L 272.729980 58.412109 L 272.729980 59.335938 Z " fill="rgb(0, 0, 0)" fill-opacity="1.000000" />
<path d="M 272.892578 59.335938 L 272.892578 58.412109 L 279.729980 58.412109 L 279.729980 59.335938 Z " fill="rgb(0, 0, 0)" fill-opacity="1.000000" />
<path d="M 279.892578 59.335938 L 279.892578 58.412109 L 286.729980 58.412109 L 286.729980 59.335938 Z " fill="rgb(0, 0, 0)" fill-opacity="1.000000" />
<path d="M 286.892578 59.335938 L 286.892578 58.412109 L 293.729980 58.412109 L 293.729980 59.335938 Z " fill="rgb(0, 0, 0)" fill-opacity="1.000000" />
<path d="M 293.892578 59.335938 L 293.892578 58.412109 L 300.729980 58.412109 L 300.729980 59.335938 Z " fill="rgb(0, 0, 0)" fill-opacity="1.000000" />
<path d="M 300.892578 59.335938 L 300.892578 58.412109 L 307.729980 58.412109 L 307.729980 59.335938 Z " fill="rgb(0, 0, 0)" fill-opacity="1.000000" />
<path d="M 307.892578 59.335938 L 307.892578 58.412109 L 314.729980 58.412109 L 314.729980 59.335938 Z " fill="rgb(0, 0, 0)" fill-opacity="1.000000" />
<path d="M 314.892578 59.335938 L 314.892578 58.412109 L 321.729980 58.412109 L 321.729980 59.335938 Z " fill="rgb(0, 0, 0)" fill-opacity="1.000000" />
<path d="M 321.892578 59.335938 L 321.892578 58.412109 L 328.729980 58.412109 L 328.729980 59.335938 Z " fill="rgb(0, 0, 0)" fill-opacity="1.000000" />
<path d="M 328.892578 59.335938 L 328.892578 58.412109 L 335.729980 58.412109 L 335.729980 59.335938 Z " fill="rgb(0, 0, 0)" fill-opacity="1.000000" />
<path d="M 335.892578 59.335938 L 335.892578 58.412109 L 342.729980 58.412109 L 342.729980 59.335938 Z " fill="rgb(0, 0, 0)" fill-opacity="1.000000" />
<path d="M 342.892578 59.335938 L 342.892578 58.412109 L 349.729980 58.412109 L 349.729980 59.335938 Z " fill="rgb(0, 0, 0)" fill-opacity="1.000000" />
<path d="M 349.892578 59.335938 L 349.892578 58.412109 L 356.729980 58.412109 L 356.729980 59.335938 Z " fill="rgb(0, 0, 0)" fill-opacity="1.000000" />
<path d="M 356.892578 59.335938 L 356.892578 58.412109 L 363.729980 58.412109 L 363.729980 59.335938 Z " fill="rgb(0, 0, 0)" fill-opacity="1.000000" />
<path d="M 363.892578 59.335938 L 363.892578 58.412109 L 370.729980 58.412109 L 370.729980 59.335938 Z " fill="rgb(0, 0, 0)" fill-opacity="1.000000" />
<path d="M 370.892578 59.335938 L 370.892578 58.412109 L 377.729980 58.412109 L 377.729980 59.335938 Z " fill="rgb(0, 0, 0)" fill-opacity="1.000000" />
<path d="M 377.892578 59.335938 L 377.892578 58.412109 L 384.729980 58.412109 L 384.729980 59.335938 Z " fill="rgb(0, 0, 0)" fill-opacity="1.000000" />
<path d="M 384.892578 59.335938 L 384.892578 58.412109 L 391.729980 58.412109 L 391.729980 59.335938 Z " fill="rgb(0, 0, 0)" fill-opacity="1.000000" />
<path d="M 391.892578 59.335938 L 391.892578 58.412109 L 398.729980 58.412109 L 398.729980 59.335938 Z " fill="rgb(0, 0, 0)" fill-opacity="1.000000" />
<path d="M 398.892578 59.335938 L 398.892578 58.412109 L 405.729980 58.412109 L 405.729980 59.335938 Z " fill="rgb(0, 0, 0)" fill-opacity="1.000000" />
<path d="M 405.892578 59.335938 L 405.892578 58.412109 L 412.729980 58.412109 L 412.729980 59.335938 Z " fill="rgb(0, 0, 0)" fill-opacity="1.000000" />
<path d="M 412.892578 59.335938 L 412.892578 58.412109 L 419.729980 58.412109 L 419.729980 59.335938 Z " fill="rgb(0, 0, 0)" fill-opacity="1.000000" />
<path d="M 419.892578 59.335938 L 419.892578 58.412109 L 426.729980 58.412109 L 426.729980 59.335938 Z " fill="rgb(0, 0, 0)" fill-opacity="1.000000" />
<path d="M 426.892578 59.335938 L 426.892578 58.412109 L 433.729980 58.412109 L 433.729980 59.335938 Z " fill="rgb(0, 0, 0)" fill-opacity="1.000000" />
<path d="M 433.892578 59.335938 L 433.892578 58.412109 L 440.729980 58.412109 L 440.729980 59.335938 Z " fill="rgb(0, 0, 0)" fill-opacity="1.000000" />
<path d="M 440.892578 59.335938 L 440.892578 58.412109 L 447.729980 58.412109 L 447.729980 59.335938 Z " fill="rgb(0, 0, 0)" fill-opacity="1.000000" />
<path d="M 447.892578 59.335938 L 447.892578 58.412109 L 454.729980 58.412109 L 454.729980 59.335938 Z " fill="rgb(0, 0, 0)" fill-opacity="1.000000" />
<path d="M 454.892578 59.335938 L 454.892578 58.412109 L 461.729980 58.412109 L 461.729980 59.335938 Z " fill="rgb(0, 0, 0)" fill-opacity="1.000000" />
<path d="M 461.892578 59.335938 L 461.892578 58.412109 L 468.729980 58.412109 L 468.729980 59.335938 Z " fill="rgb(0, 0, 0)" fill-opacity="1.000000" />
<path d="M 468.892578 59.335938 L 468.892578 58.412109 L 475.729980 58.412109 L 475.729980 59.335938 Z " fill="rgb(0, 0, 0)" fill-opacity="1.000000" />
<path d="M 475.892578 59.335938 L 475.892578 58.412109 L 482.729980 58.412109 L 482.729980 59.335938 Z " fill="rgb(0, 0, 0)" fill-opacity="1.000000" />
<path d="M 482.892578 59.335938 L 482.892578 58.412109 L 489.729980 58.412109 L 489.729980 59.335938 Z " fill="rgb(0, 0, 0)" fill-opacity="1.000000" />
<path d="M 489.892578 59.335938 L 489.892578 58.412109 L 496.729980 58.412109 L 496.729980 59.335938 Z " fill="rgb(0, 0, 0)" fill-opacity="1.000000" />
<path d="M 496.892578 59.335938 L 496.892578 58.412109 L 503.729980 58.412109 L 503.729980 59.335938 Z " fill="rgb(0, 0, 0)" fill-opacity="1.000000" />
<path d="M 503.892578 59.335938 L 503.892578 58.412109 L 510.729980 58.412109 L 510.729980 59.335938 Z " fill="rgb(0, 0, 0)" fill-opacity="1.000000" />
<path d="M 510.892578 59.335938 L 510.892578 58.412109 L 517.729980 58.412109 L 517.729980 59.335938 Z " fill="rgb(0, 0, 0)" fill-opacity="1.000000" />
<path d="M 517.892578 59.335938 L 517.892578 58.412109 L 524.729980 58.412109 L 524.729980 59.335938 Z " fill="rgb(0, 0, 0)" fill-opacity="1.000000" />
<path d="M 524.892578 59.335938 L 524.892578 58.412109 L 531.729980 58.412109 L 531.729980 59.335938 Z " fill="rgb(0, 0, 0)" fill-opacity="1.000000" />
<path d="M 531.892578 59.335938 L 531.892578 58.412109 L 538.729980 58.412109 L 538.729980 59.335938 Z " fill="rgb(0, 0, 0)" fill-opacity="1.000000" />
<path d="M 538.892578 59.335938 L 538.892578 58.412109 L 545.729980 58.412109 L 545.729980 59.335938 Z " fill="rgb(0, 0, 0)" fill-opacity="1.000000" />
<path d="M 545.892578 59.335938 L 545.892578 58.412109 L 552.729980 58.412109 L 552.729980 59.335938 Z " fill="rgb(0, 0, 0)" fill-opacity="1.000000" />
<path d="M 552.892578 59.335938 L 552.892578 58.412109 L 555.878906 58.412109 L 555.878906 51.300781 L 556.738281 51.300781 L 556.738281 59.335938 Z " fill="rgb(0, 0, 0)" fill-opacity="1.000000" />
<path d="M 13.015625 45.498047 L 13.015625 45.981445 L 8.734863 45.981445 L 8.734863 46.013672 Q 8.691895 47.243652 9.204834 47.780762 Q 9.717773 48.317871 10.652344 48.317871 Q 11.125000 48.317871 11.640625 48.167480 Q 12.156250 48.017090 12.741699 47.710938 L 12.741699 48.693848 Q 12.177734 48.924805 11.654053 49.040283 Q 11.130371 49.155762 10.641602 49.155762 Q 9.239746 49.155762 8.450195 48.315186 Q 7.660645 47.474609 7.660645 45.997559 Q 7.660645 44.558105 8.434082 43.698730 Q 9.207520 42.839355 10.496582 42.839355 Q 11.645996 42.839355 12.309326 43.618164 Q 12.972656 44.396973 13.015625 45.498047 Z M 12.027344 45.208008 Q 11.962891 44.584961 11.573486 44.131104 Q 11.184082 43.677246 10.453613 43.677246 Q 9.739258 43.677246 9.277344 44.149902 Q 8.815430 44.622559 8.772461 45.213379 Z " fill="rgb(0, 0, 0)" fill-opacity="1.000000" />
<path d="M 19.698730 48.693848 Q 19.301270 48.924805 18.879639 49.040283 Q 18.458008 49.155762 18.017578 49.155762 Q 16.621094 49.155762 15.834229 48.317871 Q 15.047363 47.479980 15.047363 45.997559 Q 15.047363 44.515137 15.834229 43.677246 Q 16.621094 42.839355 18.017578 42.839355 Q 18.452637 42.839355 18.866211 42.952148 Q 19.279785 43.064941 19.698730 43.301270 L 19.698730 44.337891 Q 19.306641 43.988770 18.911865 43.833008 Q 18.517090 43.677246 18.017578 43.677246 Q 17.088379 43.677246 16.588867 44.278809 Q 16.089355 44.880371 16.089355 45.997559 Q 16.089355 47.109375 16.591553 47.713623 Q 17.093750 48.317871 18.017578 48.317871 Q 18.533203 48.317871 18.941406 48.159424 Q 19.349609 48.000977 19.698730 47.667969 Z " fill="rgb(0, 0, 0)" fill-opacity="1.000000" />
<path d="M 24.861816 46.824707 Q 24.861816 47.490723 25.106201 47.829102 Q 25.350586 48.167480 25.828613 48.167480 L 26.983398 48.167480 L 26.983398 49.000000 L 25.731934 49.000000 Q 24.845703 49.000000 24.359619 48.433350 Q 23.873535 47.866699 23.873535 46.824707 L 23.873535 41.383789 L 22.289062 41.383789 L 22.289062 40.610352 L 24.861816 40.610352 Z " fill="rgb(0, 0, 0)" fill-opacity="1.000000" />
<path d="M 29.697266 43.005859 L 32.227051 43.005859 L 32.227051 48.231934 L 34.187500 48.231934 L 34.187500 49.000000 L 29.278320 49.000000 L 29.278320 48.231934 L 31.238770 48.231934 L 31.238770 43.773926 L 29.697266 43.773926 Z M 31.238770 40.669434 L 32.227051 40.669434 L 32.227051 41.915527 L 31.238770 41.915527 Z " fill="rgb(0, 0, 0)" fill-opacity="1.000000" />
<path d="M 37.014160 48.242676 L 37.014160 51.288086 L 36.020508 51.288086 L 36.020508 42.984375 L 37.014160 42.984375 L 37.014160 43.752441 Q 37.261230 43.306641 37.672119 43.072998 Q 38.083008 42.839355 38.620117 42.839355 Q 39.710449 42.839355 40.330811 43.682617 Q 40.951172 44.525879 40.951172 46.019043 Q 40.951172 47.485352 40.328125 48.320557 Q 39.705078 49.155762 38.620117 49.155762 Q 38.072266 49.155762 37.661377 48.922119 Q 37.250488 48.688477 37.014160 48.242676 Z M 39.914551 45.997559 Q 39.914551 44.848145 39.552002 44.262695 Q 39.189453 43.677246 38.475098 43.677246 Q 37.755371 43.677246 37.384766 44.265381 Q 37.014160 44.853516 37.014160 45.997559 Q 37.014160 47.136230 37.384766 47.727051 Q 37.755371 48.317871 38.475098 48.317871 Q 39.189453 48.317871 39.552002 47.732422 Q 39.914551 47.146973 39.914551 45.997559 Z " fill="rgb(0, 0, 0)" fill-opacity="1.000000" />
<path d="M 47.226074 43.193848 L 47.226074 44.160645 Q 46.801758 43.913574 46.372070 43.790039 Q 45.942383 43.666504 45.496582 43.666504 Q 44.825195 43.666504 44.494873 43.884033 Q 44.164551 44.101562 44.164551 44.547363 Q 44.164551 44.950195 44.411621 45.148926 Q 44.658691 45.347656 45.641602 45.535645 L 46.039062 45.610840 Q 46.774902 45.750488 47.153564 46.169434 Q 47.532227 46.588379 47.532227 47.259766 Q 47.532227 48.151367 46.898438 48.653564 Q 46.264648 49.155762 45.136719 49.155762 Q 44.690918 49.155762 44.202148 49.061768 Q 43.713379 48.967773 43.144043 48.779785 L 43.144043 47.759277 Q 43.697266 48.043945 44.202148 48.186279 Q 44.707031 48.328613 45.158203 48.328613 Q 45.813477 48.328613 46.173340 48.062744 Q 46.533203 47.796875 46.533203 47.318848 Q 46.533203 46.631348 45.217285 46.368164 L 45.174316 46.357422 L 44.803711 46.282227 Q 43.949707 46.115723 43.557617 45.720947 Q 43.165527 45.326172 43.165527 44.644043 Q 43.165527 43.779297 43.750977 43.309326 Q 44.336426 42.839355 45.421387 42.839355 Q 45.904785 42.839355 46.350586 42.927979 Q 46.796387 43.016602 47.226074 43.193848 Z " fill="rgb(0, 0, 0)" fill-opacity="1.000000" />
<path d="M 55.015625 45.498047 L 55.015625 45.981445 L 50.734863 45.981445 L 50.734863 46.013672 Q 50.691895 47.243652 51.204834 47.780762 Q 51.717773 48.317871 52.652344 48.317871 Q 53.125000 48.317871 53.640625 48.167480 Q 54.156250 48.017090 54.741699 47.710938 L 54.741699 48.693848 Q 54.177734 48.924805 53.654053 49.040283 Q 53.130371 49.155762 52.641602 49.155762 Q 51.239746 49.155762 50.450195 48.315186 Q 49.660645 47.474609 49.660645 45.997559 Q 49.660645 44.558105 50.434082 43.698730 Q 51.207520 42.839355 52.496582 42.839355 Q 53.645996 42.839355 54.309326 43.618164 Q 54.972656 44.396973 55.015625 45.498047 Z M 54.027344 45.208008 Q 53.962891 44.584961 53.573486 44.131104 Q 53.184082 43.677246 52.453613 43.677246 Q 51.739258 43.677246 51.277344 44.149902 Q 50.815430 44.622559 50.772461 45.213379 Z " fill="rgb(0, 0, 0)" fill-opacity="1.000000" />
<path d="M 58.374023 47.061035 L 60.049805 47.061035 L 60.049805 48.484375 L 58.857422 50.799316 L 57.783203 50.804688 L 58.374023 48.484375 Z " fill="rgb(0, 0, 0)" fill-opacity="1.000000" />
<path d="M 66.222656 49.107422 L 66.222656 43.752441 L 64.520020 43.752441 L 64.520020 42.984375 L 67.210938 42.984375 L 67.210938 49.107422 Q 67.210938 50.154785 66.730225 50.721436 Q 66.249512 51.288086 65.363281 51.288086 L 63.999023 51.288086 L 63.999023 50.450195 L 65.255859 50.450195 Q 65.739258 50.450195 65.980957 50.114502 Q 66.222656 49.778809 66.222656 49.107422 Z M 66.222656 40.642578 L 67.210938 40.642578 L 67.210938 41.894043 L 66.222656 41.894043 Z " fill="rgb(0, 0, 0)" fill-opacity="1.000000" />
<path d="M 73.770508 45.976074 L 73.442871 45.976074 Q 72.578125 45.976074 72.140381 46.279541 Q 71.702637 46.583008 71.702637 47.184570 Q 71.702637 47.727051 72.030273 48.027832 Q 72.357910 48.328613 72.937988 48.328613 Q 73.754395 48.328613 74.221680 47.761963 Q 74.688965 47.195312 74.694336 46.196289 L 74.694336 45.976074 Z M 75.687988 45.567871 L 75.687988 49.000000 L 74.694336 49.000000 L 74.694336 48.108398 Q 74.377441 48.645508 73.896729 48.900635 Q 73.416016 49.155762 72.728516 49.155762 Q 71.810059 49.155762 71.262207 48.637451 Q 70.714355 48.119141 70.714355 47.249023 Q 70.714355 46.244629 71.388428 45.723633 Q 72.062500 45.202637 73.367676 45.202637 L 74.694336 45.202637 L 74.694336 45.046875 Q 74.688965 44.327148 74.329102 44.002197 Q 73.969238 43.677246 73.179688 43.677246 Q 72.674805 43.677246 72.159180 43.822266 Q 71.643555 43.967285 71.154785 44.246582 L 71.154785 43.258301 Q 71.702637 43.048828 72.204834 42.944092 Q 72.707031 42.839355 73.179688 42.839355 Q 73.926270 42.839355 74.455322 43.059570 Q 74.984375 43.279785 75.312012 43.720215 Q 75.516113 43.988770 75.602051 44.383545 Q 75.687988 44.778320 75.687988 45.567871 Z " fill="rgb(0, 0, 0)" fill-opacity="1.000000" />
<path d="M 77.537109 42.984375 L 78.562988 42.984375 L 80.308594 48.033203 L 82.059570 42.984375 L 83.085449 42.984375 L 80.947754 49.000000 L 79.674805 49.000000 Z " fill="rgb(0, 0, 0)" fill-opacity="1.000000" />
<path d="M 87.770508 45.976074 L 87.442871 45.976074 Q 86.578125 45.976074 86.140381 46.279541 Q 85.702637 46.583008 85.702637 47.184570 Q 85.702637 47.727051 86.030273 48.027832 Q 86.357910 48.328613 86.937988 48.328613 Q 87.754395 48.328613 88.221680 47.761963 Q 88.688965 47.195312 88.694336 46.196289 L 88.694336 45.976074 Z M 89.687988 45.567871 L 89.687988 49.000000 L 88.694336 49.000000 L 88.694336 48.108398 Q 88.377441 48.645508 87.896729 48.900635 Q 87.416016 49.155762 86.728516 49.155762 Q 85.810059 49.155762 85.262207 48.637451 Q 84.714355 48.119141 84.714355 47.249023 Q 84.714355 46.244629 85.388428 45.723633 Q 86.062500 45.202637 87.367676 45.202637 L 88.694336 45.202637 L 88.694336 45.046875 Q 88.688965 44.327148 88.329102 44.002197 Q 87.969238 43.677246 87.179688 43.677246 Q 86.674805 43.677246 86.159180 43.822266 Q 85.643555 43.967285 85.154785 44.246582 L 85.154785 43.258301 Q 85.702637 43.048828 86.204834 42.944092 Q 86.707031 42.839355 87.179688 42.839355 Q 87.926270 42.839355 88.455322 43.059570 Q 88.984375 43.279785 89.312012 43.720215 Q 89.516113 43.988770 89.602051 44.383545 Q 89.687988 44.778320 89.687988 45.567871 Z " fill="rgb(0, 0, 0)" fill-opacity="1.000000" />
<path d="M 93.374023 47.061035 L 95.049805 47.061035 L 95.049805 48.484375 L 93.857422 50.799316 L 92.783203 50.804688 L 93.374023 48.484375 Z " fill="rgb(0, 0, 0)" fill-opacity="1.000000" />
<path d="M 101.770508 45.976074 L 101.442871 45.976074 Q 100.578125 45.976074 100.140381 46.279541 Q 99.702637 46.583008 99.702637 47.184570 Q 99.702637 47.727051 100.030273 48.027832 Q 100.357910 48.328613 100.937988 48.328613 Q 101.754395 48.328613 102.221680 47.761963 Q 102.688965 47.195312 102.694336 46.196289 L 102.694336 45.976074 Z M 103.687988 45.567871 L 103.687988 49.000000 L 102.694336 49.000000 L 102.694336 48.108398 Q 102.377441 48.645508 101.896729 48.900635 Q 101.416016 49.155762 100.728516 49.155762 Q 99.810059 49.155762 99.262207 48.637451 Q 98.714355 48.119141 98.714355 47.249023 Q 98.714355 46.244629 99.388428 45.723633 Q 100.062500 45.202637 101.367676 45.202637 L 102.694336 45.202637 L 102.694336 45.046875 Q 102.688965 44.327148 102.329102 44.002197 Q 101.969238 43.677246 101.179688 43.677246 Q 100.674805 43.677246 100.159180 43.822266 Q 99.643555 43.967285 99.154785 44.246582 L 99.154785 43.258301 Q 99.702637 43.048828 100.204834 42.944092 Q 100.707031 42.839355 101.179688 42.839355 Q 101.926270 42.839355 102.455322 43.059570 Q 102.984375 43.279785 103.312012 43.720215 Q 103.516113 43.988770 103.602051 44.383545 Q 103.687988 44.778320 103.687988 45.567871 Z " fill="rgb(0, 0, 0)" fill-opacity="1.000000" />
<path d="M 110.645020 45.272461 L 110.645020 49.000000 L 109.651367 49.000000 L 109.651367 45.272461 Q 109.651367 44.461426 109.366699 44.080078 Q 109.082031 43.698730 108.475098 43.698730 Q 107.782227 43.698730 107.408936 44.190186 Q 107.035645 44.681641 107.035645 45.600098 L 107.035645 49.000000 L 106.047363 49.000000 L 106.047363 42.984375 L 107.035645 42.984375 L 107.035645 43.886719 Q 107.298828 43.371094 107.750000 43.105225 Q 108.201172 42.839355 108.818848 42.839355 Q 109.737305 42.839355 110.191162 43.443604 Q 110.645020 44.047852 110.645020 45.272461 Z " fill="rgb(0, 0, 0)" fill-opacity="1.000000" />
<path d="M 115.297852 41.276367 L 115.297852 42.984375 L 117.542969 42.984375 L 117.542969 43.752441 L 115.297852 43.752441 L 115.297852 47.018066 Q 115.297852 47.684082 115.550293 47.947266 Q 115.802734 48.210449 116.431152 48.210449 L 117.542969 48.210449 L 117.542969 49.000000 L 116.334473 49.000000 Q 115.222656 49.000000 114.766113 48.554199 Q 114.309570 48.108398 114.309570 47.018066 L 114.309570 43.752441 L 112.703613 43.752441 L 112.703613 42.984375 L 114.309570 42.984375 L 114.309570 41.276367 Z " fill="rgb(0, 0, 0)" fill-opacity="1.000000" />
<path d="M 121.374023 47.061035 L 123.049805 47.061035 L 123.049805 48.484375 L 121.857422 50.799316 L 120.783203 50.804688 L 121.374023 48.484375 Z " fill="rgb(0, 0, 0)" fill-opacity="1.000000" />
<path d="M 129.630859 43.596680 Q 129.813477 43.209961 130.095459 43.024658 Q 130.377441 42.839355 130.774902 42.839355 Q 131.500000 42.839355 131.798096 43.400635 Q 132.096191 43.961914 132.096191 45.514160 L 132.096191 49.000000 L 131.193848 49.000000 L 131.193848 45.557129 Q 131.193848 44.284180 131.051514 43.975342 Q 130.909180 43.666504 130.533203 43.666504 Q 130.103516 43.666504 129.945068 43.996826 Q 129.786621 44.327148 129.786621 45.557129 L 129.786621 49.000000 L 128.884277 49.000000 L 128.884277 45.557129 Q 128.884277 44.268066 128.731201 43.967285 Q 128.578125 43.666504 128.180664 43.666504 Q 127.788574 43.666504 127.635498 43.996826 Q 127.482422 44.327148 127.482422 45.557129 L 127.482422 49.000000 L 126.585449 49.000000 L 126.585449 42.984375 L 127.482422 42.984375 L 127.482422 43.500000 Q 127.659668 43.177734 127.925537 43.008545 Q 128.191406 42.839355 128.529785 42.839355 Q 128.937988 42.839355 129.209229 43.027344 Q 129.480469 43.215332 129.630859 43.596680 Z " fill="rgb(0, 0, 0)" fill-opacity="1.000000" />
<path d="M 133.537109 42.984375 L 134.562988 42.984375 L 136.308594 48.033203 L 138.059570 42.984375 L 139.085449 42.984375 L 136.947754 49.000000 L 135.674805 49.000000 Z " fill="rgb(0, 0, 0)" fill-opacity="1.000000" />
<path d="M 145.645020 45.272461 L 145.645020 49.000000 L 144.651367 49.000000 L 144.651367 45.272461 Q 144.651367 44.461426 144.366699 44.080078 Q 144.082031 43.698730 143.475098 43.698730 Q 142.782227 43.698730 142.408936 44.190186 Q 142.035645 44.681641 142.035645 45.600098 L 142.035645 49.000000 L 141.047363 49.000000 L 141.047363 42.984375 L 142.035645 42.984375 L 142.035645 43.886719 Q 142.298828 43.371094 142.750000 43.105225 Q 143.201172 42.839355 143.818848 42.839355 Q 144.737305 42.839355 145.191162 43.443604 Q 145.645020 44.047852 145.645020 45.272461 Z " fill="rgb(0, 0, 0)" fill-opacity="1.000000" />
<path d="M 151.774902 40.980957 L 152.795410 40.980957 L 148.573730 50.020508 L 147.547852 50.020508 Z " fill="rgb(0, 0, 0)" fill-opacity="1.000000" />
<path d="M 157.297852 41.276367 L 157.297852 42.984375 L 159.542969 42.984375 L 159.542969 43.752441 L 157.297852 43.752441 L 157.297852 47.018066 Q 157.297852 47.684082 157.550293 47.947266 Q 157.802734 48.210449 158.431152 48.210449 L 159.542969 48.210449 L 159.542969 49.000000 L 158.334473 49.000000 Q 157.222656 49.000000 156.766113 48.554199 Q 156.309570 48.108398 156.309570 47.018066 L 156.309570 43.752441 L 154.703613 43.752441 L 154.703613 42.984375 L 156.309570 42.984375 L 156.309570 41.276367 Z " fill="rgb(0, 0, 0)" fill-opacity="1.000000" />
<path d="M 165.608398 47.066406 Q 165.361328 47.694824 164.979980 48.720703 Q 164.448242 50.138672 164.265625 50.450195 Q 164.018555 50.869141 163.647949 51.078613 Q 163.277344 51.288086 162.783203 51.288086 L 161.988281 51.288086 L 161.988281 50.460938 L 162.573730 50.460938 Q 163.008789 50.460938 163.255859 50.208496 Q 163.502930 49.956055 163.884277 48.903320 L 161.558594 42.984375 L 162.605957 42.984375 L 164.389160 47.689453 L 166.145508 42.984375 L 167.192871 42.984375 Z " fill="rgb(0, 0, 0)" fill-opacity="1.000000" />
<path d="M 173.698730 48.693848 Q 173.301270 48.924805 172.879639 49.040283 Q 172.458008 49.155762 172.017578 49.155762 Q 170.621094 49.155762 169.834229 48.317871 Q 169.047363 47.479980 169.047363 45.997559 Q 169.047363 44.515137 169.834229 43.677246 Q 170.621094 42.839355 172.017578 42.839355 Q 172.452637 42.839355 172.866211 42.952148 Q 173.279785 43.064941 173.698730 43.301270 L 173.698730 44.337891 Q 173.306641 43.988770 172.911865 43.833008 Q 172.517090 43.677246 172.017578 43.677246 Q 171.088379 43.677246 170.588867 44.278809 Q 170.089355 44.880371 170.089355 45.997559 Q 170.089355 47.109375 170.591553 47.713623 Q 171.093750 48.317871 172.017578 48.317871 Q 172.533203 48.317871 172.941406 48.159424 Q 173.349609 48.000977 173.698730 47.667969 Z " fill="rgb(0, 0, 0)" fill-opacity="1.000000" />
<path d="M 180.645020 45.272461 L 180.645020 49.000000 L 179.651367 49.000000 L 179.651367 45.272461 Q 179.651367 44.461426 179.366699 44.080078 Q 179.082031 43.698730 178.475098 43.698730 Q 177.782227 43.698730 177.408936 44.190186 Q 177.035645 44.681641 177.035645 45.600098 L 177.035645 49.000000 L 176.047363 49.000000 L 176.047363 40.642578 L 177.035645 40.642578 L 177.035645 43.886719 Q 177.298828 43.371094 177.750000 43.105225 Q 178.201172 42.839355 178.818848 42.839355 Q 179.737305 42.839355 180.191162 43.443604 Q 180.645020 44.047852 180.645020 45.272461 Z " fill="rgb(0, 0, 0)" fill-opacity="1.000000" />
<path d="M 185.308594 43.677246 Q 184.556641 43.677246 184.169922 44.262695 Q 183.783203 44.848145 183.783203 45.997559 Q 183.783203 47.141602 184.169922 47.729736 Q 184.556641 48.317871 185.308594 48.317871 Q 186.065918 48.317871 186.452637 47.729736 Q 186.839355 47.141602 186.839355 45.997559 Q 186.839355 44.848145 186.452637 44.262695 Q 186.065918 43.677246 185.308594 43.677246 Z M 185.308594 42.839355 Q 186.560059 42.839355 187.223389 43.650391 Q 187.886719 44.461426 187.886719 45.997559 Q 187.886719 47.539062 187.226074 48.347412 Q 186.565430 49.155762 185.308594 49.155762 Q 184.057129 49.155762 183.396484 48.347412 Q 182.735840 47.539062 182.735840 45.997559 Q 182.735840 44.461426 183.396484 43.650391 Q 184.057129 42.839355 185.308594 42.839355 Z " fill="rgb(0, 0, 0)" fill-opacity="1.000000" />
<path d="M 191.374023 47.061035 L 193.049805 47.061035 L 193.049805 48.484375 L 191.857422 50.799316 L 190.783203 50.804688 L 191.374023 48.484375 Z " fill="rgb(0, 0, 0)" fill-opacity="1.000000" />
<path d="M 200.608398 45.943848 Q 200.608398 44.832031 200.245850 44.254639 Q 199.883301 43.677246 199.190430 43.677246 Q 198.465332 43.677246 198.083984 44.254639 Q 197.702637 44.832031 197.702637 45.943848 Q 197.702637 47.055664 198.086670 47.638428 Q 198.470703 48.221191 199.201172 48.221191 Q 199.883301 48.221191 200.245850 47.635742 Q 200.608398 47.050293 200.608398 45.943848 Z M 201.596680 48.613281 Q 201.596680 49.966797 200.957520 50.665039 Q 200.318359 51.363281 199.077637 51.363281 Q 198.669434 51.363281 198.223633 51.288086 Q 197.777832 51.212891 197.332031 51.067871 L 197.332031 50.090332 Q 197.858398 50.337402 198.288086 50.455566 Q 198.717773 50.573730 199.077637 50.573730 Q 199.877930 50.573730 200.243164 50.138672 Q 200.608398 49.703613 200.608398 48.758301 L 200.608398 48.715332 L 200.608398 48.043945 Q 200.372070 48.548828 199.963867 48.795898 Q 199.555664 49.042969 198.970215 49.042969 Q 197.917480 49.042969 197.289062 48.199707 Q 196.660645 47.356445 196.660645 45.943848 Q 196.660645 44.525879 197.289062 43.682617 Q 197.917480 42.839355 198.970215 42.839355 Q 199.550293 42.839355 199.953125 43.070312 Q 200.355957 43.301270 200.608398 43.784668 L 200.608398 43.005859 L 201.596680 43.005859 Z " fill="rgb(0, 0, 0)" fill-opacity="1.000000" />
<path d="M 204.697266 43.005859 L 207.227051 43.005859 L 207.227051 48.231934 L 209.187500 48.231934 L 209.187500 49.000000 L 204.278320 49.000000 L 204.278320 48.231934 L 206.238770 48.231934 L 206.238770 43.773926 L 204.697266 43.773926 Z M 206.238770 40.669434 L 207.227051 40.669434 L 207.227051 41.915527 L 206.238770 41.915527 Z " fill="rgb(0, 0, 0)" fill-opacity="1.000000" />
<path d="M 213.297852 41.276367 L 213.297852 42.984375 L 215.542969 42.984375 L 215.542969 43.752441 L 213.297852 43.752441 L 213.297852 47.018066 Q 213.297852 47.684082 213.550293 47.947266 Q 213.802734 48.210449 214.431152 48.210449 L 215.542969 48.210449 L 215.542969 49.000000 L 214.334473 49.000000 Q 213.222656 49.000000 212.766113 48.554199 Q 212.309570 48.108398 212.309570 47.018066 L 212.309570 43.752441 L 210.703613 43.752441 L 210.703613 42.984375 L 212.309570 42.984375 L 212.309570 41.276367 Z " fill="rgb(0, 0, 0)" fill-opacity="1.000000" />
<path d="M 219.374023 47.061035 L 221.049805 47.061035 L 221.049805 48.484375 L 219.857422 50.799316 L 218.783203 50.804688 L 219.374023 48.484375 Z " fill="rgb(0, 0, 0)" fill-opacity="1.000000" />
<path d="M 227.222656 49.107422 L 227.222656 43.752441 L 225.520020 43.752441 L 225.520020 42.984375 L 228.210938 42.984375 L 228.210938 49.107422 Q 228.210938 50.154785 227.730225 50.721436 Q 227.249512 51.288086 226.363281 51.288086 L 224.999023 51.288086 L 224.999023 50.450195 L 226.255859 50.450195 Q 226.739258 50.450195 226.980957 50.114502 Q 227.222656 49.778809 227.222656 49.107422 Z M 227.222656 40.642578 L 228.210938 40.642578 L 228.210938 41.894043 L 227.222656 41.894043 Z " fill="rgb(0, 0, 0)" fill-opacity="1.000000" />
<path d="M 237.015625 45.498047 L 237.015625 45.981445 L 232.734863 45.981445 L 232.734863 46.013672 Q 232.691895 47.243652 233.204834 47.780762 Q 233.717773 48.317871 234.652344 48.317871 Q 235.125000 48.317871 235.640625 48.167480 Q 236.156250 48.017090 236.741699 47.710938 L 236.741699 48.693848 Q 236.177734 48.924805 235.654053 49.040283 Q 235.130371 49.155762 234.641602 49.155762 Q 233.239746 49.155762 232.450195 48.315186 Q 231.660645 47.474609 231.660645 45.997559 Q 231.660645 44.558105 232.434082 43.698730 Q 233.207520 42.839355 234.496582 42.839355 Q 235.645996 42.839355 236.309326 43.618164 Q 236.972656 44.396973 237.015625 45.498047 Z M 236.027344 45.208008 Q 235.962891 44.584961 235.573486 44.131104 Q 235.184082 43.677246 234.453613 43.677246 Q 233.739258 43.677246 233.277344 44.149902 Q 232.815430 44.622559 232.772461 45.213379 Z " fill="rgb(0, 0, 0)" fill-opacity="1.000000" />
<path d="M 243.645020 45.272461 L 243.645020 49.000000 L 242.651367 49.000000 L 242.651367 45.272461 Q 242.651367 44.461426 242.366699 44.080078 Q 242.082031 43.698730 241.475098 43.698730 Q 240.782227 43.698730 240.408936 44.190186 Q 240.035645 44.681641 240.035645 45.600098 L 240.035645 49.000000 L 239.047363 49.000000 L 239.047363 42.984375 L 240.035645 42.984375 L 240.035645 43.886719 Q 240.298828 43.371094 240.750000 43.105225 Q 241.201172 42.839355 241.818848 42.839355 Q 242.737305 42.839355 243.191162 43.443604 Q 243.645020 44.047852 243.645020 45.272461 Z " fill="rgb(0, 0, 0)" fill-opacity="1.000000" />
<path d="M 246.267578 40.642578 L 247.288086 40.642578 L 247.288086 45.481934 L 249.882324 42.984375 L 251.085449 42.984375 L 248.716797 45.250977 L 251.456055 49.000000 L 250.247559 49.000000 L 248.023926 45.895508 L 247.288086 46.588379 L 247.288086 49.000000 L 246.267578 49.000000 Z " fill="rgb(0, 0, 0)" fill-opacity="1.000000" />
<path d="M 253.697266 43.005859 L 256.227051 43.005859 L 256.227051 48.231934 L 258.187500 48.231934 L 258.187500 49.000000 L 253.278320 49.000000 L 253.278320 48.231934 L 255.238770 48.231934 L 255.238770 43.773926 L 253.697266 43.773926 Z M 255.238770 40.669434 L 256.227051 40.669434 L 256.227051 41.915527 L 255.238770 41.915527 Z " fill="rgb(0, 0, 0)" fill-opacity="1.000000" />
<path d="M 264.645020 45.272461 L 264.645020 49.000000 L 263.651367 49.000000 L 263.651367 45.272461 Q 263.651367 44.461426 263.366699 44.080078 Q 263.082031 43.698730 262.475098 43.698730 Q 261.782227 43.698730 261.408936 44.190186 Q 261.035645 44.681641 261.035645 45.600098 L 261.035645 49.000000 L 260.047363 49.000000 L 260.047363 42.984375 L 261.035645 42.984375 L 261.035645 43.886719 Q 261.298828 43.371094 261.750000 43.105225 Q 262.201172 42.839355 262.818848 42.839355 Q 263.737305 42.839355 264.191162 43.443604 Q 264.645020 44.047852 264.645020 45.272461 Z " fill="rgb(0, 0, 0)" fill-opacity="1.000000" />
<path d="M 271.226074 43.193848 L 271.226074 44.160645 Q 270.801758 43.913574 270.372070 43.790039 Q 269.942383 43.666504 269.496582 43.666504 Q 268.825195 43.666504 268.494873 43.884033 Q 268.164551 44.101562 268.164551 44.547363 Q 268.164551 44.950195 268.411621 45.148926 Q 268.658691 45.347656 269.641602 45.535645 L 270.039062 45.610840 Q 270.774902 45.750488 271.153564 46.169434 Q 271.532227 46.588379 271.532227 47.259766 Q 271.532227 48.151367 270.898438 48.653564 Q 270.264648 49.155762 269.136719 49.155762 Q 268.690918 49.155762 268.202148 49.061768 Q 267.713379 48.967773 267.144043 48.779785 L 267.144043 47.759277 Q 267.697266 48.043945 268.202148 48.186279 Q 268.707031 48.328613 269.158203 48.328613 Q 269.813477 48.328613 270.173340 48.062744 Q 270.533203 47.796875 270.533203 47.318848 Q 270.533203 46.631348 269.217285 46.368164 L 269.174316 46.357422 L 268.803711 46.282227 Q 267.949707 46.115723 267.557617 45.720947 Q 267.165527 45.326172 267.165527 44.644043 Q 267.165527 43.779297 267.750977 43.309326 Q 268.336426 42.839355 269.421387 42.839355 Q 269.904785 42.839355 270.350586 42.927979 Q 270.796387 43.016602 271.226074 43.193848 Z " fill="rgb(0, 0, 0)" fill-opacity="1.000000" />
<path d="M 555.878906 52.319336 L 555.878906 38.300781 L 556.738281 38.300781 L 556.738281 52.319336 Z " fill="rgb(0, 0, 0)" fill-opacity="1.000000" />
<path d="M 13.892578 33.335938 L 13.892578 32.412109 L 20.729980 32.412109 L 20.729980 33.335938 Z " fill="rgb(0, 0, 0)" fill-opacity="1.000000" />
<path d="M 27.892578 33.335938 L 27.892578 32.412109 L 34.729980 32.412109 L 34.729980 33.335938 Z " fill="rgb(0, 0, 0)" fill-opacity="1.000000" />
<path d="M 41.892578 33.335938 L 41.892578 32.412109 L 48.729980 32.412109 L 48.729980 33.335938 Z " fill="rgb(0, 0, 0)" fill-opacity="1.000000" />
<path d="M 55.892578 33.335938 L 55.892578 32.412109 L 62.729980 32.412109 L 62.729980 33.335938 Z " fill="rgb(0, 0, 0)" fill-opacity="1.000000" />
<path d="M 69.892578 33.335938 L 69.892578 32.412109 L 76.729980 32.412109 L 76.729980 33.335938 Z " fill="rgb(0, 0, 0)" fill-opacity="1.000000" />
<path d="M 83.892578 33.335938 L 83.892578 32.412109 L 90.729980 32.412109 L 90.729980 33.335938 Z " fill="rgb(0, 0, 0)" fill-opacity="1.000000" />
<path d="M 97.892578 33.335938 L 97.892578 32.412109 L 104.729980 32.412109 L 104.729980 33.335938 Z " fill="rgb(0, 0, 0)" fill-opacity="1.000000" />
<path d="M 111.892578 33.335938 L 111.892578 32.412109 L 118.729980 32.412109 L 118.729980 33.335938 Z " fill="rgb(0, 0, 0)" fill-opacity="1.000000" />
<path d="M 125.892578 33.335938 L 125.892578 32.412109 L 132.729980 32.412109 L 132.729980 33.335938 Z " fill="rgb(0, 0, 0)" fill-opacity="1.000000" />
<path d="M 139.892578 33.335938 L 139.892578 32.412109 L 146.729980 32.412109 L 146.729980 33.335938 Z " fill="rgb(0, 0, 0)" fill-opacity="1.000000" />
<path d="M 153.892578 33.335938 L 153.892578 32.412109 L 160.729980 32.412109 L 160.729980 33.335938 Z " fill="rgb(0, 0, 0)" fill-opacity="1.000000" />
<path d="M 167.892578 33.335938 L 167.892578 32.412109 L 174.729980 32.412109 L 174.729980 33.335938 Z " fill="rgb(0, 0, 0)" fill-opacity="1.000000" />
<path d="M 181.892578 33.335938 L 181.892578 32.412109 L 188.729980 32.412109 L 188.729980 33.335938 Z " fill="rgb(0, 0, 0)" fill-opacity="1.000000" />
<path d="M 195.892578 33.335938 L 195.892578 32.412109 L 202.729980 32.412109 L 202.729980 33.335938 Z " fill="rgb(0, 0, 0)" fill-opacity="1.000000" />
<path d="M 209.892578 33.335938 L 209.892578 32.412109 L 216.729980 32.412109 L 216.729980 33.335938 Z " fill="rgb(0, 0, 0)" fill-opacity="1.000000" />
<path d="M 223.892578 33.335938 L 223.892578 32.412109 L 230.729980 32.412109 L 230.729980 33.335938 Z " fill="rgb(0, 0, 0)" fill-opacity="1.000000" />
<path d="M 237.892578 33.335938 L 237.892578 32.412109 L 244.729980 32.412109 L 244.729980 33.335938 Z " fill="rgb(0, 0, 0)" fill-opacity="1.000000" />
<path d="M 251.892578 33.335938 L 251.892578 32.412109 L 258.729980 32.412109 L 258.729980 33.335938 Z " fill="rgb(0, 0, 0)" fill-opacity="1.000000" />
<path d="M 265.892578 33.335938 L 265.892578 32.412109 L 272.729980 32.412109 L 272.729980 33.335938 Z " fill="rgb(0, 0, 0)" fill-opacity="1.000000" />
<path d="M 279.892578 33.335938 L 279.892578 32.412109 L 286.729980 32.412109 L 286.729980 33.335938 Z " fill="rgb(0, 0, 0)" fill-opacity="1.000000" />
<path d="M 293.892578 33.335938 L 293.892578 32.412109 L 300.729980 32.412109 L 300.729980 33.335938 Z " fill="rgb(0, 0, 0)" fill-opacity="1.000000" />
<path d="M 307.892578 33.335938 L 307.892578 32.412109 L 314.729980 32.412109 L 314.729980 33.335938 Z " fill="rgb(0, 0, 0)" fill-opacity="1.000000" />
<path d="M 321.892578 33.335938 L 321.892578 32.412109 L 328.729980 32.412109 L 328.729980 33.335938 Z " fill="rgb(0, 0, 0)" fill-opacity="1.000000" />
<path d="M 335.892578 33.335938 L 335.892578 32.412109 L 342.729980 32.412109 L 342.729980 33.335938 Z " fill="rgb(0, 0, 0)" fill-opacity="1.000000" />
<path d="M 349.892578 33.335938 L 349.892578 32.412109 L 356.729980 32.412109 L 356.729980 33.335938 Z " fill="rgb(0, 0, 0)" fill-opacity="1.000000" />
<path d="M 363.892578 33.335938 L 363.892578 32.412109 L 370.729980 32.412109 L 370.729980 33.335938 Z " fill="rgb(0, 0, 0)" fill-opacity="1.000000" />
<path d="M 377.892578 33.335938 L 377.892578 32.412109 L 384.729980 32.412109 L 384.729980 33.335938 Z " fill="rgb(0, 0, 0)" fill-opacity="1.000000" />
<path d="M 391.892578 33.335938 L 391.892578 32.412109 L 398.729980 32.412109 L 398.729980 33.335938 Z " fill="rgb(0, 0, 0)" fill-opacity="1.000000" />
<path d="M 405.892578 33.335938 L 405.892578 32.412109 L 412.729980 32.412109 L 412.729980 33.335938 Z " fill="rgb(0, 0, 0)" fill-opacity="1.000000" />
<path d="M 419.892578 33.335938 L 419.892578 32.412109 L 426.729980 32.412109 L 426.729980 33.335938 Z " fill="rgb(0, 0, 0)" fill-opacity="1.000000" />
<path d="M 433.892578 33.335938 L 433.892578 32.412109 L 440.729980 32.412109 L 440.729980 33.335938 Z " fill="rgb(0, 0, 0)" fill-opacity="1.000000" />
<path d="M 447.892578 33.335938 L 447.892578 32.412109 L 454.729980 32.412109 L 454.729980 33.335938 Z " fill="rgb(0, 0, 0)" fill-opacity="1.000000" />
<path d="M 461.892578 33.335938 L 461.892578 32.412109 L 468.729980 32.412109 L 468.729980 33.335938 Z " fill="rgb(0, 0, 0)" fill-opacity="1.000000" />
<path d="M 475.892578 33.335938 L 475.892578 32.412109 L 482.729980 32.412109 L 482.729980 33.335938 Z " fill="rgb(0, 0, 0)" fill-opacity="1.000000" />
<path d="M 489.892578 33.335938 L 489.892578 32.412109 L 496.729980 32.412109 L 496.729980 33.335938 Z " fill="rgb(0, 0, 0)" fill-opacity="1.000000" />
<path d="M 503.892578 33.335938 L 503.892578 32.412109 L 510.729980 32.412109 L 510.729980 33.335938 Z " fill="rgb(0, 0, 0)" fill-opacity="1.000000" />
<path d="M 517.892578 33.335938 L 517.892578 32.412109 L 524.729980 32.412109 L 524.729980 33.335938 Z " fill="rgb(0, 0, 0)" fill-opacity="1.000000" />
<path d="M 531.892578 33.335938 L 531.892578 32.412109 L 538.729980 32.412109 L 538.729980 33.335938 Z " fill="rgb(0, 0, 0)" fill-opacity="1.000000" />
<path d="M 545.892578 33.335938 L 545.892578 32.412109 L 552.729980 32.412109 L 552.729980 33.335938 Z " fill="rgb(0, 0, 0)" fill-opacity="1.000000" />
<path d="M 555.878906 39.319336 L 555.878906 25.300781 L 556.738281 25.300781 L 556.738281 39.319336 Z " fill="rgb(0, 0, 0)" fill-opacity="1.000000" />
<path d="M 16.003418 22.086914 L 19.687988 22.086914 L 19.687988 23.000000 L 14.816406 23.000000 L 14.816406 22.086914 Q 15.820801 21.028809 16.572754 20.217773 Q 17.324707 19.406738 17.609375 19.073730 Q 18.146484 18.418457 18.334473 18.012939 Q 18.522461 17.607422 18.522461 17.183105 Q 18.522461 16.511719 18.127686 16.130371 Q 17.732910 15.749023 17.045410 15.749023 Q 16.556641 15.749023 16.019531 15.926270 Q 15.482422 16.103516 14.880859 16.463379 L 14.880859 15.367676 Q 15.434082 15.104492 15.968506 14.970215 Q 16.502930 14.835938 17.023926 14.835938 Q 18.200195 14.835938 18.917236 15.461670 Q 19.634277 16.087402 19.634277 17.102539 Q 19.634277 17.618164 19.395264 18.133789 Q 19.156250 18.649414 18.619141 19.272461 Q 18.318359 19.621582 17.746338 20.239258 Q 17.174316 20.856934 16.003418 22.086914 Z " fill="rgb(0, 0, 0)" fill-opacity="1.000000" />
<path d="M 24.308594 14.862793 Q 25.592285 14.862793 26.250244 15.910156 Q 26.908203 16.957520 26.908203 19.009277 Q 26.908203 21.061035 26.250244 22.108398 Q 25.592285 23.155762 24.308594 23.155762 Q 23.024902 23.155762 22.369629 22.108398 Q 21.714355 21.061035 21.714355 19.009277 Q 21.714355 16.957520 22.369629 15.910156 Q 23.024902 14.862793 24.308594 14.862793 Z M 24.308594 22.296387 Q 25.071289 22.296387 25.444580 21.485352 Q 25.817871 20.674316 25.817871 19.009277 Q 25.817871 18.123047 25.710449 17.408691 L 23.153809 21.410156 Q 23.556641 22.296387 24.308594 22.296387 Z M 24.308594 15.722168 Q 23.551270 15.722168 23.177979 16.533203 Q 22.804688 17.344238 22.804688 19.009277 Q 22.804688 19.766602 22.906738 20.427246 L 25.409668 16.436523 Q 25.001465 15.722168 24.308594 15.722168 Z " fill="rgb(0, 0, 0)" fill-opacity="1.000000" />
<path d="M 29.450195 22.092285 L 31.136719 22.092285 L 31.136719 16.033691 L 29.117188 17.005859 L 29.117188 15.963867 L 31.125977 15.007812 L 32.210938 15.007812 L 32.210938 22.092285 L 33.875977 22.092285 L 33.875977 23.000000 L 29.450195 23.000000 Z " fill="rgb(0, 0, 0)" fill-opacity="1.000000" />
<path d="M 40.322754 15.158203 L 40.322754 16.157227 Q 39.984375 15.958496 39.603027 15.853760 Q 39.221680 15.749023 38.808105 15.749023 Q 37.776855 15.749023 37.245117 16.525146 Q 36.713379 17.301270 36.713379 18.810547 Q 36.971191 18.273438 37.427734 17.986084 Q 37.884277 17.698730 38.475098 17.698730 Q 39.635254 17.698730 40.271729 18.410400 Q 40.908203 19.122070 40.908203 20.427246 Q 40.908203 21.727051 40.252930 22.441406 Q 39.597656 23.155762 38.410645 23.155762 Q 37.014160 23.155762 36.364258 22.154053 Q 35.714355 21.152344 35.714355 18.998535 Q 35.714355 16.968262 36.495850 15.902100 Q 37.277344 14.835938 38.759766 14.835938 Q 39.157227 14.835938 39.554688 14.919189 Q 39.952148 15.002441 40.322754 15.158203 Z M 38.389160 18.547363 Q 37.696289 18.547363 37.298828 19.046875 Q 36.901367 19.546387 36.901367 20.427246 Q 36.901367 21.308105 37.298828 21.807617 Q 37.696289 22.307129 38.389160 22.307129 Q 39.108887 22.307129 39.474121 21.831787 Q 39.839355 21.356445 39.839355 20.427246 Q 39.839355 19.492676 39.474121 19.020020 Q 39.108887 18.547363 38.389160 18.547363 Z " fill="rgb(0, 0, 0)" fill-opacity="1.000000" />
<path d="M 105.193359 15.007812 L 106.643555 15.007812 L 108.029297 19.079102 L 109.425781 15.007812 L 110.881348 15.007812 L 110.881348 23.000000 L 109.876953 23.000000 L 109.876953 15.937012 L 108.448242 20.147949 L 107.626465 20.147949 L 106.192383 15.937012 L 106.192383 23.000000 L 105.193359 23.000000 Z " fill="rgb(0, 0, 0)" fill-opacity="1.000000" />
<path d="M 113.697266 17.005859 L 116.227051 17.005859 L 116.227051 22.231934 L 118.187500 22.231934 L 118.187500 23.000000 L 113.278320 23.000000 L 113.278320 22.231934 L 115.238770 22.231934 L 115.238770 17.773926 L 113.697266 17.773926 Z M 115.238770 14.669434 L 116.227051 14.669434 L 116.227051 15.915527 L 115.238770 15.915527 Z " fill="rgb(0, 0, 0)" fill-opacity="1.000000" />
<path d="M 123.608398 19.943848 Q 123.608398 18.832031 123.245850 18.254639 Q 122.883301 17.677246 122.190430 17.677246 Q 121.465332 17.677246 121.083984 18.254639 Q 120.702637 18.832031 120.702637 19.943848 Q 120.702637 21.055664 121.086670 21.638428 Q 121.470703 22.221191 122.201172 22.221191 Q 122.883301 22.221191 123.245850 21.635742 Q 123.608398 21.050293 123.608398 19.943848 Z M 124.596680 22.613281 Q 124.596680 23.966797 123.957520 24.665039 Q 123.318359 25.363281 122.077637 25.363281 Q 121.669434 25.363281 121.223633 25.288086 Q 120.777832 25.212891 120.332031 25.067871 L 120.332031 24.090332 Q 120.858398 24.337402 121.288086 24.455566 Q 121.717773 24.573730 122.077637 24.573730 Q 122.877930 24.573730 123.243164 24.138672 Q 123.608398 23.703613 123.608398 22.758301 L 123.608398 22.715332 L 123.608398 22.043945 Q 123.372070 22.548828 122.963867 22.795898 Q 122.555664 23.042969 121.970215 23.042969 Q 120.917480 23.042969 120.289062 22.199707 Q 119.660645 21.356445 119.660645 19.943848 Q 119.660645 18.525879 120.289062 17.682617 Q 120.917480 16.839355 121.970215 16.839355 Q 122.550293 16.839355 122.953125 17.070312 Q 123.355957 17.301270 123.608398 17.784668 L 123.608398 17.005859 L 124.596680 17.005859 Z " fill="rgb(0, 0, 0)" fill-opacity="1.000000" />
<path d="M 132.203613 18.225098 Q 131.886719 17.978027 131.559082 17.865234 Q 131.231445 17.752441 130.839355 17.752441 Q 129.915527 17.752441 129.426758 18.332520 Q 128.937988 18.912598 128.937988 20.008301 L 128.937988 23.000000 L 127.944336 23.000000 L 127.944336 16.984375 L 128.937988 16.984375 L 128.937988 18.160645 Q 129.185059 17.521484 129.697998 17.180420 Q 130.210938 16.839355 130.914551 16.839355 Q 131.279785 16.839355 131.596680 16.930664 Q 131.913574 17.021973 132.203613 17.215332 Z " fill="rgb(0, 0, 0)" fill-opacity="1.000000" />
<path d="M 136.770508 19.976074 L 136.442871 19.976074 Q 135.578125 19.976074 135.140381 20.279541 Q 134.702637 20.583008 134.702637 21.184570 Q 134.702637 21.727051 135.030273 22.027832 Q 135.357910 22.328613 135.937988 22.328613 Q 136.754395 22.328613 137.221680 21.761963 Q 137.688965 21.195312 137.694336 20.196289 L 137.694336 19.976074 Z M 138.687988 19.567871 L 138.687988 23.000000 L 137.694336 23.000000 L 137.694336 22.108398 Q 137.377441 22.645508 136.896729 22.900635 Q 136.416016 23.155762 135.728516 23.155762 Q 134.810059 23.155762 134.262207 22.637451 Q 133.714355 22.119141 133.714355 21.249023 Q 133.714355 20.244629 134.388428 19.723633 Q 135.062500 19.202637 136.367676 19.202637 L 137.694336 19.202637 L 137.694336 19.046875 Q 137.688965 18.327148 137.329102 18.002197 Q 136.969238 17.677246 136.179688 17.677246 Q 135.674805 17.677246 135.159180 17.822266 Q 134.643555 17.967285 134.154785 18.246582 L 134.154785 17.258301 Q 134.702637 17.048828 135.204834 16.944092 Q 135.707031 16.839355 136.179688 16.839355 Q 136.926270 16.839355 137.455322 17.059570 Q 137.984375 17.279785 138.312012 17.720215 Q 138.516113 17.988770 138.602051 18.383545 Q 138.687988 18.778320 138.687988 19.567871 Z " fill="rgb(0, 0, 0)" fill-opacity="1.000000" />
<path d="M 143.297852 15.276367 L 143.297852 16.984375 L 145.542969 16.984375 L 145.542969 17.752441 L 143.297852 17.752441 L 143.297852 21.018066 Q 143.297852 21.684082 143.550293 21.947266 Q 143.802734 22.210449 144.431152 22.210449 L 145.542969 22.210449 L 145.542969 23.000000 L 144.334473 23.000000 Q 143.222656 23.000000 142.766113 22.554199 Q 142.309570 22.108398 142.309570 21.018066 L 142.309570 17.752441 L 140.703613 17.752441 L 140.703613 16.984375 L 142.309570 16.984375 L 142.309570 15.276367 Z " fill="rgb(0, 0, 0)" fill-opacity="1.000000" />
<path d="M 153.015625 19.498047 L 153.015625 19.981445 L 148.734863 19.981445 L 148.734863 20.013672 Q 148.691895 21.243652 149.204834 21.780762 Q 149.717773 22.317871 150.652344 22.317871 Q 151.125000 22.317871 151.640625 22.167480 Q 152.156250 22.017090 152.741699 21.710938 L 152.741699 22.693848 Q 152.177734 22.924805 151.654053 23.040283 Q 151.130371 23.155762 150.641602 23.155762 Q 149.239746 23.155762 148.450195 22.315186 Q 147.660645 21.474609 147.660645 19.997559 Q 147.660645 18.558105 148.434082 17.698730 Q 149.207520 16.839355 150.496582 16.839355 Q 151.645996 16.839355 152.309326 17.618164 Q 152.972656 18.396973 153.015625 19.498047 Z M 152.027344 19.208008 Q 151.962891 18.584961 151.573486 18.131104 Q 151.184082 17.677246 150.453613 17.677246 Q 149.739258 17.677246 149.277344 18.149902 Q 148.815430 18.622559 148.772461 19.213379 Z " fill="rgb(0, 0, 0)" fill-opacity="1.000000" />
<path d="M 162.058105 14.980957 L 166.816895 14.980957 L 166.816895 15.894043 L 163.143066 15.894043 L 163.143066 18.053223 L 166.655762 18.053223 L 166.655762 18.966309 L 163.143066 18.966309 L 163.143066 22.086914 L 166.918945 22.086914 L 166.918945 23.000000 L 162.058105 23.000000 Z " fill="rgb(0, 0, 0)" fill-opacity="1.000000" />
<path d="M 173.698730 22.693848 Q 173.301270 22.924805 172.879639 23.040283 Q 172.458008 23.155762 172.017578 23.155762 Q 170.621094 23.155762 169.834229 22.317871 Q 169.047363 21.479980 169.047363 19.997559 Q 169.047363 18.515137 169.834229 17.677246 Q 170.621094 16.839355 172.017578 16.839355 Q 172.452637 16.839355 172.866211 16.952148 Q 173.279785 17.064941 173.698730 17.301270 L 173.698730 18.337891 Q 173.306641 17.988770 172.911865 17.833008 Q 172.517090 17.677246 172.017578 17.677246 Q 171.088379 17.677246 170.588867 18.278809 Q 170.089355 18.880371 170.089355 19.997559 Q 170.089355 21.109375 170.591553 21.713623 Q 171.093750 22.317871 172.017578 22.317871 Q 172.533203 22.317871 172.941406 22.159424 Q 173.349609 22.000977 173.698730 21.667969 Z " fill="rgb(0, 0, 0)" fill-opacity="1.000000" />
<path d="M 178.861816 20.824707 Q 178.861816 21.490723 179.106201 21.829102 Q 179.350586 22.167480 179.828613 22.167480 L 180.983398 22.167480 L 180.983398 23.000000 L 179.731934 23.000000 Q 178.845703 23.000000 178.359619 22.433350 Q 177.873535 21.866699 177.873535 20.824707 L 177.873535 15.383789 L 176.289062 15.383789 L 176.289062 14.610352 L 178.861816 14.610352 Z " fill="rgb(0, 0, 0)" fill-opacity="1.000000" />
<path d="M 183.697266 17.005859 L 186.227051 17.005859 L 186.227051 22.231934 L 188.187500 22.231934 L 188.187500 23.000000 L 183.278320 23.000000 L 183.278320 22.231934 L 185.238770 22.231934 L 185.238770 17.773926 L 183.697266 17.773926 Z M 185.238770 14.669434 L 186.227051 14.669434 L 186.227051 15.915527 L 185.238770 15.915527 Z " fill="rgb(0, 0, 0)" fill-opacity="1.000000" />
<path d="M 191.014160 22.242676 L 191.014160 25.288086 L 190.020508 25.288086 L 190.020508 16.984375 L 191.014160 16.984375 L 191.014160 17.752441 Q 191.261230 17.306641 191.672119 17.072998 Q 192.083008 16.839355 192.620117 16.839355 Q 193.710449 16.839355 194.330811 17.682617 Q 194.951172 18.525879 194.951172 20.019043 Q 194.951172 21.485352 194.328125 22.320557 Q 193.705078 23.155762 192.620117 23.155762 Q 192.072266 23.155762 191.661377 22.922119 Q 191.250488 22.688477 191.014160 22.242676 Z M 193.914551 19.997559 Q 193.914551 18.848145 193.552002 18.262695 Q 193.189453 17.677246 192.475098 17.677246 Q 191.755371 17.677246 191.384766 18.265381 Q 191.014160 18.853516 191.014160 19.997559 Q 191.014160 21.136230 191.384766 21.727051 Q 191.755371 22.317871 192.475098 22.317871 Q 193.189453 22.317871 193.552002 21.732422 Q 193.914551 21.146973 193.914551 19.997559 Z " fill="rgb(0, 0, 0)" fill-opacity="1.000000" />
<path d="M 201.226074 17.193848 L 201.226074 18.160645 Q 200.801758 17.913574 200.372070 17.790039 Q 199.942383 17.666504 199.496582 17.666504 Q 198.825195 17.666504 198.494873 17.884033 Q 198.164551 18.101562 198.164551 18.547363 Q 198.164551 18.950195 198.411621 19.148926 Q 198.658691 19.347656 199.641602 19.535645 L 200.039062 19.610840 Q 200.774902 19.750488 201.153564 20.169434 Q 201.532227 20.588379 201.532227 21.259766 Q 201.532227 22.151367 200.898438 22.653564 Q 200.264648 23.155762 199.136719 23.155762 Q 198.690918 23.155762 198.202148 23.061768 Q 197.713379 22.967773 197.144043 22.779785 L 197.144043 21.759277 Q 197.697266 22.043945 198.202148 22.186279 Q 198.707031 22.328613 199.158203 22.328613 Q 199.813477 22.328613 200.173340 22.062744 Q 200.533203 21.796875 200.533203 21.318848 Q 200.533203 20.631348 199.217285 20.368164 L 199.174316 20.357422 L 198.803711 20.282227 Q 197.949707 20.115723 197.557617 19.720947 Q 197.165527 19.326172 197.165527 18.644043 Q 197.165527 17.779297 197.750977 17.309326 Q 198.336426 16.839355 199.421387 16.839355 Q 199.904785 16.839355 200.350586 16.927979 Q 200.796387 17.016602 201.226074 17.193848 Z " fill="rgb(0, 0, 0)" fill-opacity="1.000000" />
<path d="M 209.015625 19.498047 L 209.015625 19.981445 L 204.734863 19.981445 L 204.734863 20.013672 Q 204.691895 21.243652 205.204834 21.780762 Q 205.717773 22.317871 206.652344 22.317871 Q 207.125000 22.317871 207.640625 22.167480 Q 208.156250 22.017090 208.741699 21.710938 L 208.741699 22.693848 Q 208.177734 22.924805 207.654053 23.040283 Q 207.130371 23.155762 206.641602 23.155762 Q 205.239746 23.155762 204.450195 22.315186 Q 203.660645 21.474609 203.660645 19.997559 Q 203.660645 18.558105 204.434082 17.698730 Q 205.207520 16.839355 206.496582 16.839355 Q 207.645996 16.839355 208.309326 17.618164 Q 208.972656 18.396973 209.015625 19.498047 Z M 208.027344 19.208008 Q 207.962891 18.584961 207.573486 18.131104 Q 207.184082 17.677246 206.453613 17.677246 Q 205.739258 17.677246 205.277344 18.149902 Q 204.815430 18.622559 204.772461 19.213379 Z " fill="rgb(0, 0, 0)" fill-opacity="1.000000" />
<path d="M 221.082031 19.213379 Q 221.500977 19.320801 221.796387 19.618896 Q 222.091797 19.916992 222.532227 20.808594 L 223.622559 23.000000 L 222.457031 23.000000 L 221.500977 20.975098 Q 221.087402 20.110352 220.757080 19.860596 Q 220.426758 19.610840 219.895020 19.610840 L 218.858398 19.610840 L 218.858398 23.000000 L 217.768066 23.000000 L 217.768066 14.980957 L 220.002441 14.980957 Q 221.323730 14.980957 222.027344 15.577148 Q 222.730957 16.173340 222.730957 17.301270 Q 222.730957 18.096191 222.298584 18.598389 Q 221.866211 19.100586 221.082031 19.213379 Z M 218.858398 15.872559 L 218.858398 18.719238 L 220.045410 18.719238 Q 220.824219 18.719238 221.205566 18.370117 Q 221.586914 18.020996 221.586914 17.301270 Q 221.586914 16.608398 221.181396 16.240479 Q 220.775879 15.872559 220.002441 15.872559 Z " fill="rgb(0, 0, 0)" fill-opacity="1.000000" />
<path d="M 229.763184 22.715332 Q 229.349609 22.935547 228.914551 23.045654 Q 228.479492 23.155762 227.990723 23.155762 Q 226.449219 23.155762 225.597900 22.065430 Q 224.746582 20.975098 224.746582 18.998535 Q 224.746582 17.032715 225.603271 15.934326 Q 226.459961 14.835938 227.990723 14.835938 Q 228.479492 14.835938 228.914551 14.946045 Q 229.349609 15.056152 229.763184 15.276367 L 229.763184 16.388184 Q 229.365723 16.060547 228.909180 15.888672 Q 228.452637 15.716797 227.990723 15.716797 Q 226.932617 15.716797 226.406250 16.533203 Q 225.879883 17.349609 225.879883 18.998535 Q 225.879883 20.642090 226.406250 21.458496 Q 226.932617 22.274902 227.990723 22.274902 Q 228.463379 22.274902 228.917236 22.103027 Q 229.371094 21.931152 229.763184 21.603516 Z " fill="rgb(0, 0, 0)" fill-opacity="1.000000" />
<path d="M 233.143066 15.872559 L 233.143066 18.885742 L 234.399902 18.885742 Q 235.151855 18.885742 235.573486 18.488281 Q 235.995117 18.090820 235.995117 17.376465 Q 235.995117 16.662109 235.576172 16.267334 Q 235.157227 15.872559 234.399902 15.872559 Z M 232.058105 14.980957 L 234.399902 14.980957 Q 235.742676 14.980957 236.435547 15.590576 Q 237.128418 16.200195 237.128418 17.376465 Q 237.128418 18.563477 236.438232 19.170410 Q 235.748047 19.777344 234.399902 19.777344 L 233.143066 19.777344 L 233.143066 23.000000 L 232.058105 23.000000 Z " fill="rgb(0, 0, 0)" fill-opacity="1.000000" />
<path d="M 248.297852 15.276367 L 248.297852 16.984375 L 250.542969 16.984375 L 250.542969 17.752441 L 248.297852 17.752441 L 248.297852 21.018066 Q 248.297852 21.684082 248.550293 21.947266 Q 248.802734 22.210449 249.431152 22.210449 L 250.542969 22.210449 L 250.542969 23.000000 L 249.334473 23.000000 Q 248.222656 23.000000 247.766113 22.554199 Q 247.309570 22.108398 247.309570 21.018066 L 247.309570 17.752441 L 245.703613 17.752441 L 245.703613 16.984375 L 247.309570 16.984375 L 247.309570 15.276367 Z " fill="rgb(0, 0, 0)" fill-opacity="1.000000" />
<path d="M 255.308594 17.677246 Q 254.556641 17.677246 254.169922 18.262695 Q 253.783203 18.848145 253.783203 19.997559 Q 253.783203 21.141602 254.169922 21.729736 Q 254.556641 22.317871 255.308594 22.317871 Q 256.065918 22.317871 256.452637 21.729736 Q 256.839355 21.141602 256.839355 19.997559 Q 256.839355 18.848145 256.452637 18.262695 Q 256.065918 17.677246 255.308594 17.677246 Z M 255.308594 16.839355 Q 256.560059 16.839355 257.223389 17.650391 Q 257.886719 18.461426 257.886719 19.997559 Q 257.886719 21.539062 257.226074 22.347412 Q 256.565430 23.155762 255.308594 23.155762 Q 254.057129 23.155762 253.396484 22.347412 Q 252.735840 21.539062 252.735840 19.997559 Q 252.735840 18.461426 253.396484 17.650391 Q 254.057129 16.839355 255.308594 16.839355 Z " fill="rgb(0, 0, 0)" fill-opacity="1.000000" />
<path d="M 266.193359 15.007812 L 267.643555 15.007812 L 269.029297 19.079102 L 270.425781 15.007812 L 271.881348 15.007812 L 271.881348 23.000000 L 270.876953 23.000000 L 270.876953 15.937012 L 269.448242 20.147949 L 268.626465 20.147949 L 267.192383 15.937012 L 267.192383 23.000000 L 266.193359 23.000000 Z " fill="rgb(0, 0, 0)" fill-opacity="1.000000" />
<path d="M 276.770508 19.976074 L 276.442871 19.976074 Q 275.578125 19.976074 275.140381 20.279541 Q 274.702637 20.583008 274.702637 21.184570 Q 274.702637 21.727051 275.030273 22.027832 Q 275.357910 22.328613 275.937988 22.328613 Q 276.754395 22.328613 277.221680 21.761963 Q 277.688965 21.195312 277.694336 20.196289 L 277.694336 19.976074 Z M 278.687988 19.567871 L 278.687988 23.000000 L 277.694336 23.000000 L 277.694336 22.108398 Q 277.377441 22.645508 276.896729 22.900635 Q 276.416016 23.155762 275.728516 23.155762 Q 274.810059 23.155762 274.262207 22.637451 Q 273.714355 22.119141 273.714355 21.249023 Q 273.714355 20.244629 274.388428 19.723633 Q 275.062500 19.202637 276.367676 19.202637 L 277.694336 19.202637 L 277.694336 19.046875 Q 277.688965 18.327148 277.329102 18.002197 Q 276.969238 17.677246 276.179688 17.677246 Q 275.674805 17.677246 275.159180 17.822266 Q 274.643555 17.967285 274.154785 18.246582 L 274.154785 17.258301 Q 274.702637 17.048828 275.204834 16.944092 Q 275.707031 16.839355 276.179688 16.839355 Q 276.926270 16.839355 277.455322 17.059570 Q 277.984375 17.279785 278.312012 17.720215 Q 278.516113 17.988770 278.602051 18.383545 Q 278.687988 18.778320 278.687988 19.567871 Z " fill="rgb(0, 0, 0)" fill-opacity="1.000000" />
<path d="M 280.537109 16.984375 L 281.562988 16.984375 L 283.308594 22.033203 L 285.059570 16.984375 L 286.085449 16.984375 L 283.947754 23.000000 L 282.674805 23.000000 Z " fill="rgb(0, 0, 0)" fill-opacity="1.000000" />
<path d="M 293.015625 19.498047 L 293.015625 19.981445 L 288.734863 19.981445 L 288.734863 20.013672 Q 288.691895 21.243652 289.204834 21.780762 Q 289.717773 22.317871 290.652344 22.317871 Q 291.125000 22.317871 291.640625 22.167480 Q 292.156250 22.017090 292.741699 21.710938 L 292.741699 22.693848 Q 292.177734 22.924805 291.654053 23.040283 Q 291.130371 23.155762 290.641602 23.155762 Q 289.239746 23.155762 288.450195 22.315186 Q 287.660645 21.474609 287.660645 19.997559 Q 287.660645 18.558105 288.434082 17.698730 Q 289.207520 16.839355 290.496582 16.839355 Q 291.645996 16.839355 292.309326 17.618164 Q 292.972656 18.396973 293.015625 19.498047 Z M 292.027344 19.208008 Q 291.962891 18.584961 291.573486 18.131104 Q 291.184082 17.677246 290.453613 17.677246 Q 289.739258 17.677246 289.277344 18.149902 Q 288.815430 18.622559 288.772461 19.213379 Z " fill="rgb(0, 0, 0)" fill-opacity="1.000000" />
<path d="M 299.645020 19.272461 L 299.645020 23.000000 L 298.651367 23.000000 L 298.651367 19.272461 Q 298.651367 18.461426 298.366699 18.080078 Q 298.082031 17.698730 297.475098 17.698730 Q 296.782227 17.698730 296.408936 18.190186 Q 296.035645 18.681641 296.035645 19.600098 L 296.035645 23.000000 L 295.047363 23.000000 L 295.047363 16.984375 L 296.035645 16.984375 L 296.035645 17.886719 Q 296.298828 17.371094 296.750000 17.105225 Q 297.201172 16.839355 297.818848 16.839355 Q 298.737305 16.839355 299.191162 17.443604 Q 299.645020 18.047852 299.645020 19.272461 Z " fill="rgb(0, 0, 0)" fill-opacity="1.000000" />
<path d="M 312.930664 19.997559 Q 312.930664 18.848145 312.565430 18.262695 Q 312.200195 17.677246 311.485840 17.677246 Q 310.766113 17.677246 310.395508 18.265381 Q 310.024902 18.853516 310.024902 19.997559 Q 310.024902 21.136230 310.395508 21.727051 Q 310.766113 22.317871 311.485840 22.317871 Q 312.200195 22.317871 312.565430 21.732422 Q 312.930664 21.146973 312.930664 19.997559 Z M 310.024902 17.752441 Q 310.261230 17.312012 310.677490 17.075684 Q 311.093750 16.839355 311.641602 16.839355 Q 312.726562 16.839355 313.349609 17.674561 Q 313.972656 18.509766 313.972656 19.976074 Q 313.972656 21.463867 313.346924 22.309814 Q 312.721191 23.155762 311.630859 23.155762 Q 311.093750 23.155762 310.682861 22.922119 Q 310.271973 22.688477 310.024902 22.242676 L 310.024902 23.000000 L 309.036621 23.000000 L 309.036621 14.642578 L 310.024902 14.642578 Z " fill="rgb(0, 0, 0)" fill-opacity="1.000000" />
<path d="M 316.047363 20.722656 L 316.047363 16.995117 L 317.035645 16.995117 L 317.035645 20.722656 Q 317.035645 21.533691 317.322998 21.915039 Q 317.610352 22.296387 318.211914 22.296387 Q 318.910156 22.296387 319.280762 21.804932 Q 319.651367 21.313477 319.651367 20.395020 L 319.651367 16.995117 L 320.645020 16.995117 L 320.645020 23.000000 L 319.651367 23.000000 L 319.651367 22.097656 Q 319.388184 22.618652 318.934326 22.887207 Q 318.480469 23.155762 317.873535 23.155762 Q 316.949707 23.155762 316.498535 22.551514 Q 316.047363 21.947266 316.047363 20.722656 Z " fill="rgb(0, 0, 0)" fill-opacity="1.000000" />
<path d="M 323.697266 17.005859 L 326.227051 17.005859 L 326.227051 22.231934 L 328.187500 22.231934 L 328.187500 23.000000 L 323.278320 23.000000 L 323.278320 22.231934 L 325.238770 22.231934 L 325.238770 17.773926 L 323.697266 17.773926 Z M 325.238770 14.669434 L 326.227051 14.669434 L 326.227051 15.915527 L 325.238770 15.915527 Z " fill="rgb(0, 0, 0)" fill-opacity="1.000000" />
<path d="M 332.861816 20.824707 Q 332.861816 21.490723 333.106201 21.829102 Q 333.350586 22.167480 333.828613 22.167480 L 334.983398 22.167480 L 334.983398 23.000000 L 333.731934 23.000000 Q 332.845703 23.000000 332.359619 22.433350 Q 331.873535 21.866699 331.873535 20.824707 L 331.873535 15.383789 L 330.289062 15.383789 L 330.289062 14.610352 L 332.861816 14.610352 Z " fill="rgb(0, 0, 0)" fill-opacity="1.000000" />
<path d="M 340.608398 17.752441 L 340.608398 14.642578 L 341.596680 14.642578 L 341.596680 23.000000 L 340.608398 23.000000 L 340.608398 22.242676 Q 340.361328 22.688477 339.950439 22.922119 Q 339.539551 23.155762 339.002441 23.155762 Q 337.912109 23.155762 337.286377 22.309814 Q 336.660645 21.463867 336.660645 19.976074 Q 336.660645 18.509766 337.289062 17.674561 Q 337.917480 16.839355 339.002441 16.839355 Q 339.544922 16.839355 339.958496 17.072998 Q 340.372070 17.306641 340.608398 17.752441 Z M 337.702637 19.997559 Q 337.702637 21.146973 338.067871 21.732422 Q 338.433105 22.317871 339.147461 22.317871 Q 339.861816 22.317871 340.235107 21.727051 Q 340.608398 21.136230 340.608398 19.997559 Q 340.608398 18.853516 340.235107 18.265381 Q 339.861816 17.677246 339.147461 17.677246 Q 338.433105 17.677246 338.067871 18.262695 Q 337.702637 18.848145 337.702637 19.997559 Z " fill="rgb(0, 0, 0)" fill-opacity="1.000000" />
<path d="M 555.878906 26.319336 L 555.878906 12.300781 L 556.738281 12.300781 L 556.738281 26.319336 Z " fill="rgb(0, 0, 0)" fill-opacity="1.000000" />
<path d="M 10.630859 4.596680 Q 10.813477 4.209961 11.095459 4.024658 Q 11.377441 3.839355 11.774902 3.839355 Q 12.500000 3.839355 12.798096 4.400635 Q 13.096191 4.961914 13.096191 6.514160 L 13.096191 10.000000 L 12.193848 10.000000 L 12.193848 6.557129 Q 12.193848 5.284180 12.051514 4.975342 Q 11.909180 4.666504 11.533203 4.666504 Q 11.103516 4.666504 10.945068 4.996826 Q 10.786621 5.327148 10.786621 6.557129 L 10.786621 10.000000 L 9.884277 10.000000 L 9.884277 6.557129 Q 9.884277 5.268066 9.731201 4.967285 Q 9.578125 4.666504 9.180664 4.666504 Q 8.788574 4.666504 8.635498 4.996826 Q 8.482422 5.327148 8.482422 6.557129 L 8.482422 10.000000 L 7.585449 10.000000 L 7.585449 3.984375 L 8.482422 3.984375 L 8.482422 4.500000 Q 8.659668 4.177734 8.925537 4.008545 Q 9.191406 3.839355 9.529785 3.839355 Q 9.937988 3.839355 10.209229 4.027344 Q 10.480469 4.215332 10.630859 4.596680 Z " fill="rgb(0, 0, 0)" fill-opacity="1.000000" />
<path d="M 14.000000 3.984375 L 14.977539 3.984375 L 16.024902 8.845215 L 16.884277 5.740723 L 17.727539 5.740723 L 18.597656 8.845215 L 19.645020 3.984375 L 20.622559 3.984375 L 19.215332 10.000000 L 18.270020 10.000000 L 17.308594 6.702148 L 16.352539 10.000000 L 15.407227 10.000000 Z " fill="rgb(0, 0, 0)" fill-opacity="1.000000" />
<path d="M 27.892578 7.335938 L 27.892578 6.412109 L 34.729980 6.412109 L 34.729980 7.335938 Z " fill="rgb(0, 0, 0)" fill-opacity="1.000000" />
<path d="M 34.892578 7.335938 L 34.892578 6.412109 L 41.729980 6.412109 L 41.729980 7.335938 Z " fill="rgb(0, 0, 0)" fill-opacity="1.000000" />
<path d="M 41.892578 7.335938 L 41.892578 6.412109 L 48.729980 6.412109 L 48.729980 7.335938 Z " fill="rgb(0, 0, 0)" fill-opacity="1.000000" />
<path d="M 48.892578 7.335938 L 48.892578 6.412109 L 55.729980 6.412109 L 55.729980 7.335938 Z " fill="rgb(0, 0, 0)" fill-opacity="1.000000" />
<path d="M 55.892578 7.335938 L 55.892578 6.412109 L 62.729980 6.412109 L 62.729980 7.335938 Z " fill="rgb(0, 0, 0)" fill-opacity="1.000000" />
<path d="M 62.892578 7.335938 L 62.892578 6.412109 L 69.729980 6.412109 L 69.729980 7.335938 Z " fill="rgb(0, 0, 0)" fill-opacity="1.000000" />
<path d="M 69.892578 7.335938 L 69.892578 6.412109 L 76.729980 6.412109 L 76.729980 7.335938 Z " fill="rgb(0, 0, 0)" fill-opacity="1.000000" />
<path d="M 76.892578 7.335938 L 76.892578 6.412109 L 83.729980 6.412109 L 83.729980 7.335938 Z " fill="rgb(0, 0, 0)" fill-opacity="1.000000" />
<path d="M 83.892578 7.335938 L 83.892578 6.412109 L 90.729980 6.412109 L 90.729980 7.335938 Z " fill="rgb(0, 0, 0)" fill-opacity="1.000000" />
<path d="M 90.892578 7.335938 L 90.892578 6.412109 L 97.729980 6.412109 L 97.729980 7.335938 Z " fill="rgb(0, 0, 0)" fill-opacity="1.000000" />
<path d="M 97.892578 7.335938 L 97.892578 6.412109 L 104.729980 6.412109 L 104.729980 7.335938 Z " fill="rgb(0, 0, 0)" fill-opacity="1.000000" />
<path d="M 104.892578 7.335938 L 104.892578 6.412109 L 111.729980 6.412109 L 111.729980 7.335938 Z " fill="rgb(0, 0, 0)" fill-opacity="1.000000" />
<path d="M 111.892578 7.335938 L 111.892578 6.412109 L 118.729980 6.412109 L 118.729980 7.335938 Z " fill="rgb(0, 0, 0)" fill-opacity="1.000000" />
<path d="M 118.892578 7.335938 L 118.892578 6.412109 L 125.729980 6.412109 L 125.729980 7.335938 Z " fill="rgb(0, 0, 0)" fill-opacity="1.000000" />
<path d="M 125.892578 7.335938 L 125.892578 6.412109 L 132.729980 6.412109 L 132.729980 7.335938 Z " fill="rgb(0, 0, 0)" fill-opacity="1.000000" />
<path d="M 132.892578 7.335938 L 132.892578 6.412109 L 139.729980 6.412109 L 139.729980 7.335938 Z " fill="rgb(0, 0, 0)" fill-opacity="1.000000" />
<path d="M 139.892578 7.335938 L 139.892578 6.412109 L 146.729980 6.412109 L 146.729980 7.335938 Z " fill="rgb(0, 0, 0)" fill-opacity="1.000000" />
<path d="M 146.892578 7.335938 L 146.892578 6.412109 L 153.729980 6.412109 L 153.729980 7.335938 Z " fill="rgb(0, 0, 0)" fill-opacity="1.000000" />
<path d="M 153.892578 7.335938 L 153.892578 6.412109 L 160.729980 6.412109 L 160.729980 7.335938 Z " fill="rgb(0, 0, 0)" fill-opacity="1.000000" />
<path d="M 160.892578 7.335938 L 160.892578 6.412109 L 167.729980 6.412109 L 167.729980 7.335938 Z " fill="rgb(0, 0, 0)" fill-opacity="1.000000" />
<path d="M 167.892578 7.335938 L 167.892578 6.412109 L 174.729980 6.412109 L 174.729980 7.335938 Z " fill="rgb(0, 0, 0)" fill-opacity="1.000000" />
<path d="M 174.892578 7.335938 L 174.892578 6.412109 L 181.729980 6.412109 L 181.729980 7.335938 Z " fill="rgb(0, 0, 0)" fill-opacity="1.000000" />
<path d="M 181.892578 7.335938 L 181.892578 6.412109 L 188.729980 6.412109 L 188.729980 7.335938 Z " fill="rgb(0, 0, 0)" fill-opacity="1.000000" />
<path d="M 188.892578 7.335938 L 188.892578 6.412109 L 195.729980 6.412109 L 195.729980 7.335938 Z " fill="rgb(0, 0, 0)" fill-opacity="1.000000" />
<path d="M 195.892578 7.335938 L 195.892578 6.412109 L 202.729980 6.412109 L 202.729980 7.335938 Z " fill="rgb(0, 0, 0)" fill-opacity="1.000000" />
<path d="M 202.892578 7.335938 L 202.892578 6.412109 L 209.729980 6.412109 L 209.729980 7.335938 Z " fill="rgb(0, 0, 0)" fill-opacity="1.000000" />
<path d="M 209.892578 7.335938 L 209.892578 6.412109 L 216.729980 6.412109 L 216.729980 7.335938 Z " fill="rgb(0, 0, 0)" fill-opacity="1.000000" />
<path d="M 216.892578 7.335938 L 216.892578 6.412109 L 223.729980 6.412109 L 223.729980 7.335938 Z " fill="rgb(0, 0, 0)" fill-opacity="1.000000" />
<path d="M 234.308594 2.937012 L 233.164551 7.040527 L 235.452637 7.040527 Z M 233.653320 1.980957 L 234.969238 1.980957 L 237.423828 10.000000 L 236.301270 10.000000 L 235.710449 7.910645 L 232.901367 7.910645 L 232.321289 10.000000 L 231.198730 10.000000 Z " fill="rgb(0, 0, 0)" fill-opacity="1.000000" />
<path d="M 239.047363 7.722656 L 239.047363 3.995117 L 240.035645 3.995117 L 240.035645 7.722656 Q 240.035645 8.533691 240.322998 8.915039 Q 240.610352 9.296387 241.211914 9.296387 Q 241.910156 9.296387 242.280762 8.804932 Q 242.651367 8.313477 242.651367 7.395020 L 242.651367 3.995117 L 243.645020 3.995117 L 243.645020 10.000000 L 242.651367 10.000000 L 242.651367 9.097656 Q 242.388184 9.618652 241.934326 9.887207 Q 241.480469 10.155762 240.873535 10.155762 Q 239.949707 10.155762 239.498535 9.551514 Q 239.047363 8.947266 239.047363 7.722656 Z " fill="rgb(0, 0, 0)" fill-opacity="1.000000" />
<path d="M 248.297852 2.276367 L 248.297852 3.984375 L 250.542969 3.984375 L 250.542969 4.752441 L 248.297852 4.752441 L 248.297852 8.018066 Q 248.297852 8.684082 248.550293 8.947266 Q 248.802734 9.210449 249.431152 9.210449 L 250.542969 9.210449 L 250.542969 10.000000 L 249.334473 10.000000 Q 248.222656 10.000000 247.766113 9.554199 Q 247.309570 9.108398 247.309570 8.018066 L 247.309570 4.752441 L 245.703613 4.752441 L 245.703613 3.984375 L 247.309570 3.984375 L 247.309570 2.276367 Z " fill="rgb(0, 0, 0)" fill-opacity="1.000000" />
<path d="M 255.308594 4.677246 Q 254.556641 4.677246 254.169922 5.262695 Q 253.783203 5.848145 253.783203 6.997559 Q 253.783203 8.141602 254.169922 8.729736 Q 254.556641 9.317871 255.308594 9.317871 Q 256.065918 9.317871 256.452637 8.729736 Q 256.839355 8.141602 256.839355 6.997559 Q 256.839355 5.848145 256.452637 5.262695 Q 256.065918 4.677246 255.308594 4.677246 Z M 255.308594 3.839355 Q 256.560059 3.839355 257.223389 4.650391 Q 257.886719 5.461426 257.886719 6.997559 Q 257.886719 8.539062 257.226074 9.347412 Q 256.565430 10.155762 255.308594 10.155762 Q 254.057129 10.155762 253.396484 9.347412 Q 252.735840 8.539062 252.735840 6.997559 Q 252.735840 5.461426 253.396484 4.650391 Q 254.057129 3.839355 255.308594 3.839355 Z " fill="rgb(0, 0, 0)" fill-opacity="1.000000" />
<path d="M 262.630859 4.596680 Q 262.813477 4.209961 263.095459 4.024658 Q 263.377441 3.839355 263.774902 3.839355 Q 264.500000 3.839355 264.798096 4.400635 Q 265.096191 4.961914 265.096191 6.514160 L 265.096191 10.000000 L 264.193848 10.000000 L 264.193848 6.557129 Q 264.193848 5.284180 264.051514 4.975342 Q 263.909180 4.666504 263.533203 4.666504 Q 263.103516 4.666504 262.945068 4.996826 Q 262.786621 5.327148 262.786621 6.557129 L 262.786621 10.000000 L 261.884277 10.000000 L 261.884277 6.557129 Q 261.884277 5.268066 261.731201 4.967285 Q 261.578125 4.666504 261.180664 4.666504 Q 260.788574 4.666504 260.635498 4.996826 Q 260.482422 5.327148 260.482422 6.557129 L 260.482422 10.000000 L 259.585449 10.000000 L 259.585449 3.984375 L 260.482422 3.984375 L 260.482422 4.500000 Q 260.659668 4.177734 260.925537 4.008545 Q 261.191406 3.839355 261.529785 3.839355 Q 261.937988 3.839355 262.209229 4.027344 Q 262.480469 4.215332 262.630859 4.596680 Z " fill="rgb(0, 0, 0)" fill-opacity="1.000000" />
<path d="M 269.308594 4.677246 Q 268.556641 4.677246 268.169922 5.262695 Q 267.783203 5.848145 267.783203 6.997559 Q 267.783203 8.141602 268.169922 8.729736 Q 268.556641 9.317871 269.308594 9.317871 Q 270.065918 9.317871 270.452637 8.729736 Q 270.839355 8.141602 270.839355 6.997559 Q 270.839355 5.848145 270.452637 5.262695 Q 270.065918 4.677246 269.308594 4.677246 Z M 269.308594 3.839355 Q 270.560059 3.839355 271.223389 4.650391 Q 271.886719 5.461426 271.886719 6.997559 Q 271.886719 8.539062 271.226074 9.347412 Q 270.565430 10.155762 269.308594 10.155762 Q 268.057129 10.155762 267.396484 9.347412 Q 266.735840 8.539062 266.735840 6.997559 Q 266.735840 5.461426 267.396484 4.650391 Q 268.057129 3.839355 269.308594 3.839355 Z " fill="rgb(0, 0, 0)" fill-opacity="1.000000" />
<path d="M 276.297852 2.276367 L 276.297852 3.984375 L 278.542969 3.984375 L 278.542969 4.752441 L 276.297852 4.752441 L 276.297852 8.018066 Q 276.297852 8.684082 276.550293 8.947266 Q 276.802734 9.210449 277.431152 9.210449 L 278.542969 9.210449 L 278.542969 10.000000 L 277.334473 10.000000 Q 276.222656 10.000000 275.766113 9.554199 Q 275.309570 9.108398 275.309570 8.018066 L 275.309570 4.752441 L 273.703613 4.752441 L 273.703613 3.984375 L 275.309570 3.984375 L 275.309570 2.276367 Z " fill="rgb(0, 0, 0)" fill-opacity="1.000000" />
<path d="M 281.697266 4.005859 L 284.227051 4.005859 L 284.227051 9.231934 L 286.187500 9.231934 L 286.187500 10.000000 L 281.278320 10.000000 L 281.278320 9.231934 L 283.238770 9.231934 L 283.238770 4.773926 L 281.697266 4.773926 Z M 283.238770 1.669434 L 284.227051 1.669434 L 284.227051 2.915527 L 283.238770 2.915527 Z " fill="rgb(0, 0, 0)" fill-opacity="1.000000" />
<path d="M 287.537109 3.984375 L 288.562988 3.984375 L 290.308594 9.033203 L 292.059570 3.984375 L 293.085449 3.984375 L 290.947754 10.000000 L 289.674805 10.000000 Z " fill="rgb(0, 0, 0)" fill-opacity="1.000000" />
<path d="M 300.892578 7.335938 L 300.892578 6.412109 L 307.729980 6.412109 L 307.729980 7.335938 Z " fill="rgb(0, 0, 0)" fill-opacity="1.000000" />
<path d="M 307.892578 7.335938 L 307.892578 6.412109 L 314.729980 6.412109 L 314.729980 7.335938 Z " fill="rgb(0, 0, 0)" fill-opacity="1.000000" />
<path d="M 314.892578 7.335938 L 314.892578 6.412109 L 321.729980 6.412109 L 321.729980 7.335938 Z " fill="rgb(0, 0, 0)" fill-opacity="1.000000" />
<path d="M 321.892578 7.335938 L 321.892578 6.412109 L 328.729980 6.412109 L 328.729980 7.335938 Z " fill="rgb(0, 0, 0)" fill-opacity="1.000000" />
<path d="M 328.892578 7.335938 L 328.892578 6.412109 L 335.729980 6.412109 L 335.729980 7.335938 Z " fill="rgb(0, 0, 0)" fill-opacity="1.000000" />
<path d="M 335.892578 7.335938 L 335.892578 6.412109 L 342.729980 6.412109 L 342.729980 7.335938 Z " fill="rgb(0, 0, 0)" fill-opacity="1.000000" />
<path d="M 342.892578 7.335938 L 342.892578 6.412109 L 349.729980 6.412109 L 349.729980 7.335938 Z " fill="rgb(0, 0, 0)" fill-opacity="1.000000" />
<path d="M 349.892578 7.335938 L 349.892578 6.412109 L 356.729980 6.412109 L 356.729980 7.335938 Z " fill="rgb(0, 0, 0)" fill-opacity="1.000000" />
<path d="M 356.892578 7.335938 L 356.892578 6.412109 L 363.729980 6.412109 L 363.729980 7.335938 Z " fill="rgb(0, 0, 0)" fill-opacity="1.000000" />
<path d="M 363.892578 7.335938 L 363.892578 6.412109 L 370.729980 6.412109 L 370.729980 7.335938 Z " fill="rgb(0, 0, 0)" fill-opacity="1.000000" />
<path d="M 370.892578 7.335938 L 370.892578 6.412109 L 377.729980 6.412109 L 377.729980 7.335938 Z " fill="rgb(0, 0, 0)" fill-opacity="1.000000" />
<path d="M 377.892578 7.335938 L 377.892578 6.412109 L 384.729980 6.412109 L 384.729980 7.335938 Z " fill="rgb(0, 0, 0)" fill-opacity="1.000000" />
<path d="M 384.892578 7.335938 L 384.892578 6.412109 L 391.729980 6.412109 L 391.729980 7.335938 Z " fill="rgb(0, 0, 0)" fill-opacity="1.000000" />
<path d="M 391.892578 7.335938 L 391.892578 6.412109 L 398.729980 6.412109 L 398.729980 7.335938 Z " fill="rgb(0, 0, 0)" fill-opacity="1.000000" />
<path d="M 398.892578 7.335938 L 398.892578 6.412109 L 405.729980 6.412109 L 405.729980 7.335938 Z " fill="rgb(0, 0, 0)" fill-opacity="1.000000" />
<path d="M 405.892578 7.335938 L 405.892578 6.412109 L 412.729980 6.412109 L 412.729980 7.335938 Z " fill="rgb(0, 0, 0)" fill-opacity="1.000000" />
<path d="M 412.892578 7.335938 L 412.892578 6.412109 L 419.729980 6.412109 L 419.729980 7.335938 Z " fill="rgb(0, 0, 0)" fill-opacity="1.000000" />
<path d="M 419.892578 7.335938 L 419.892578 6.412109 L 426.729980 6.412109 L 426.729980 7.335938 Z " fill="rgb(0, 0, 0)" fill-opacity="1.000000" />
<path d="M 426.892578 7.335938 L 426.892578 6.412109 L 433.729980 6.412109 L 433.729980 7.335938 Z " fill="rgb(0, 0, 0)" fill-opacity="1.000000" />
<path d="M 433.892578 7.335938 L 433.892578 6.412109 L 440.729980 6.412109 L 440.729980 7.335938 Z " fill="rgb(0, 0, 0)" fill-opacity="1.000000" />
<path d="M 440.892578 7.335938 L 440.892578 6.412109 L 447.729980 6.412109 L 447.729980 7.335938 Z " fill="rgb(0, 0, 0)" fill-opacity="1.000000" />
<path d="M 447.892578 7.335938 L 447.892578 6.412109 L 454.729980 6.412109 L 454.729980 7.335938 Z " fill="rgb(0, 0, 0)" fill-opacity="1.000000" />
<path d="M 454.892578 7.335938 L 454.892578 6.412109 L 461.729980 6.412109 L 461.729980 7.335938 Z " fill="rgb(0, 0, 0)" fill-opacity="1.000000" />
<path d="M 461.892578 7.335938 L 461.892578 6.412109 L 468.729980 6.412109 L 468.729980 7.335938 Z " fill="rgb(0, 0, 0)" fill-opacity="1.000000" />
<path d="M 468.892578 7.335938 L 468.892578 6.412109 L 475.729980 6.412109 L 475.729980 7.335938 Z " fill="rgb(0, 0, 0)" fill-opacity="1.000000" />
<path d="M 475.892578 7.335938 L 475.892578 6.412109 L 482.729980 6.412109 L 482.729980 7.335938 Z " fill="rgb(0, 0, 0)" fill-opacity="1.000000" />
<path d="M 482.892578 7.335938 L 482.892578 6.412109 L 489.729980 6.412109 L 489.729980 7.335938 Z " fill="rgb(0, 0, 0)" fill-opacity="1.000000" />
<path d="M 489.892578 7.335938 L 489.892578 6.412109 L 496.729980 6.412109 L 496.729980 7.335938 Z " fill="rgb(0, 0, 0)" fill-opacity="1.000000" />
<path d="M 496.892578 7.335938 L 496.892578 6.412109 L 503.729980 6.412109 L 503.729980 7.335938 Z " fill="rgb(0, 0, 0)" fill-opacity="1.000000" />
<path d="M 503.892578 7.335938 L 503.892578 6.412109 L 510.729980 6.412109 L 510.729980 7.335938 Z " fill="rgb(0, 0, 0)" fill-opacity="1.000000" />
<path d="M 519.697266 4.005859 L 522.227051 4.005859 L 522.227051 9.231934 L 524.187500 9.231934 L 524.187500 10.000000 L 519.278320 10.000000 L 519.278320 9.231934 L 521.238770 9.231934 L 521.238770 4.773926 L 519.697266 4.773926 Z M 521.238770 1.669434 L 522.227051 1.669434 L 522.227051 2.915527 L 521.238770 2.915527 Z " fill="rgb(0, 0, 0)" fill-opacity="1.000000" />
<path d="M 528.297852 2.276367 L 528.297852 3.984375 L 530.542969 3.984375 L 530.542969 4.752441 L 528.297852 4.752441 L 528.297852 8.018066 Q 528.297852 8.684082 528.550293 8.947266 Q 528.802734 9.210449 529.431152 9.210449 L 530.542969 9.210449 L 530.542969 10.000000 L 529.334473 10.000000 Q 528.222656 10.000000 527.766113 9.554199 Q 527.309570 9.108398 527.309570 8.018066 L 527.309570 4.752441 L 525.703613 4.752441 L 525.703613 3.984375 L 527.309570 3.984375 L 527.309570 2.276367 Z " fill="rgb(0, 0, 0)" fill-opacity="1.000000" />
<path d="M 538.015625 6.498047 L 538.015625 6.981445 L 533.734863 6.981445 L 533.734863 7.013672 Q 533.691895 8.243652 534.204834 8.780762 Q 534.717773 9.317871 535.652344 9.317871 Q 536.125000 9.317871 536.640625 9.167480 Q 537.156250 9.017090 537.741699 8.710938 L 537.741699 9.693848 Q 537.177734 9.924805 536.654053 10.040283 Q 536.130371 10.155762 535.641602 10.155762 Q 534.239746 10.155762 533.450195 9.315186 Q 532.660645 8.474609 532.660645 6.997559 Q 532.660645 5.558105 533.434082 4.698730 Q 534.207520 3.839355 535.496582 3.839355 Q 536.645996 3.839355 537.309326 4.618164 Q 537.972656 5.396973 538.015625 6.498047 Z M 537.027344 6.208008 Q 536.962891 5.584961 536.573486 5.131104 Q 536.184082 4.677246 535.453613 4.677246 Q 534.739258 4.677246 534.277344 5.149902 Q 533.815430 5.622559 533.772461 6.213379 Z " fill="rgb(0, 0, 0)" fill-opacity="1.000000" />
<path d="M 542.630859 4.596680 Q 542.813477 4.209961 543.095459 4.024658 Q 543.377441 3.839355 543.774902 3.839355 Q 544.500000 3.839355 544.798096 4.400635 Q 545.096191 4.961914 545.096191 6.514160 L 545.096191 10.000000 L 544.193848 10.000000 L 544.193848 6.557129 Q 544.193848 5.284180 544.051514 4.975342 Q 543.909180 4.666504 543.533203 4.666504 Q 543.103516 4.666504 542.945068 4.996826 Q 542.786621 5.327148 542.786621 6.557129 L 542.786621 10.000000 L 541.884277 10.000000 L 541.884277 6.557129 Q 541.884277 5.268066 541.731201 4.967285 Q 541.578125 4.666504 541.180664 4.666504 Q 540.788574 4.666504 540.635498 4.996826 Q 540.482422 5.327148 540.482422 6.557129 L 540.482422 10.000000 L 539.585449 10.000000 L 539.585449 3.984375 L 540.482422 3.984375 L 540.482422 4.500000 Q 540.659668 4.177734 540.925537 4.008545 Q 541.191406 3.839355 541.529785 3.839355 Q 541.937988 3.839355 542.209229 4.027344 Q 542.480469 4.215332 542.630859 4.596680 Z " fill="rgb(0, 0, 0)" fill-opacity="1.000000" />
<path d="M 547.697266 4.005859 L 550.227051 4.005859 L 550.227051 9.231934 L 552.187500 9.231934 L 552.187500 10.000000 L 547.278320 10.000000 L 547.278320 9.231934 L 549.238770 9.231934 L 549.238770 4.773926 L 547.697266 4.773926 Z M 549.238770 1.669434 L 550.227051 1.669434 L 550.227051 2.915527 L 549.238770 2.915527 Z " fill="rgb(0, 0, 0)" fill-opacity="1.000000" />
<path d="M 558.226074 4.193848 L 558.226074 5.160645 Q 557.801758 4.913574 557.372070 4.790039 Q 556.942383 4.666504 556.496582 4.666504 Q 555.825195 4.666504 555.494873 4.884033 Q 555.164551 5.101562 555.164551 5.547363 Q 555.164551 5.950195 555.411621 6.148926 Q 555.658691 6.347656 556.641602 6.535645 L 557.039062 6.610840 Q 557.774902 6.750488 558.153564 7.169434 Q 558.532227 7.588379 558.532227 8.259766 Q 558.532227 9.151367 557.898438 9.653564 Q 557.264648 10.155762 556.136719 10.155762 Q 555.690918 10.155762 555.202148 10.061768 Q 554.713379 9.967773 554.144043 9.779785 L 554.144043 8.759277 Q 554.697266 9.043945 555.202148 9.186279 Q 555.707031 9.328613 556.158203 9.328613 Q 556.813477 9.328613 557.173340 9.062744 Q 557.533203 8.796875 557.533203 8.318848 Q 557.533203 7.631348 556.217285 7.368164 L 556.174316 7.357422 L 555.803711 7.282227 Q 554.949707 7.115723 554.557617 6.720947 Q 554.165527 6.326172 554.165527 5.644043 Q 554.165527 4.779297 554.750977 4.309326 Q 555.336426 3.839355 556.421387 3.839355 Q 556.904785 3.839355 557.350586 3.927979 Q 557.796387 4.016602 558.226074 4.193848 Z " fill="rgb(0, 0, 0)" fill-opacity="1.000000" />
</svg>