<svg xmlns="http://www.w3.org/2000/svg" version="1.1" width="561" height="105">
<path d="M 52.985352 27.594238 L 52.985352 38.594238 L 52.061523 38.594238 L 52.061523 27.594238 Z " fill="rgb(0, 0, 0)" fill-opacity="1.000000" />
<path d="M 52.985352 40.594238 L 52.985352 51.594238 L 52.061523 51.594238 L 52.061523 40.594238 Z " fill="rgb(0, 0, 0)" fill-opacity="1.000000" />
<path d="M 59.985352 27.594238 L 59.985352 38.594238 L 59.061523 38.594238 L 59.061523 27.594238 Z " fill="rgb(0, 0, 0)" fill-opacity="1.000000" />
<path d="M 59.985352 40.594238 L 59.985352 51.594238 L 59.061523 51.594238 L 59.061523 40.594238 Z " fill="rgb(0, 0, 0)" fill-opacity="1.000000" />
<path d="M 52.985352 53.594238 L 52.985352 64.594238 L 52.061523 64.594238 L 52.061523 53.594238 Z " fill="rgb(0, 0, 0)" fill-opacity="1.000000" />
<path d="M 105.585449 87.672363 L 105.585449 86.404785 Q 106.074219 86.839844 106.595215 87.057373 Q 107.116211 87.274902 107.674805 87.274902 Q 108.442871 87.274902 108.746338 86.874756 Q 109.049805 86.474609 109.049805 85.384277 L 109.049805 80.894043 L 107.003418 80.894043 L 107.003418 79.980957 L 110.134766 79.980957 L 110.134766 85.384277 Q 110.134766 86.898926 109.568115 87.527344 Q 109.001465 88.155762 107.674805 88.155762 Q 107.159180 88.155762 106.648926 88.037598 Q 106.138672 87.919434 105.585449 87.672363 Z " fill="rgb(0, 0, 0)" fill-opacity="1.000000" />
<path d="M 115.770508 84.976074 L 115.442871 84.976074 Q 114.578125 84.976074 114.140381 85.279541 Q 113.702637 85.583008 113.702637 86.184570 Q 113.702637 86.727051 114.030273 87.027832 Q 114.357910 87.328613 114.937988 87.328613 Q 115.754395 87.328613 116.221680 86.761963 Q 116.688965 86.195312 116.694336 85.196289 L 116.694336 84.976074 Z M 117.687988 84.567871 L 117.687988 88.000000 L 116.694336 88.000000 L 116.694336 87.108398 Q 116.377441 87.645508 115.896729 87.900635 Q 115.416016 88.155762 114.728516 88.155762 Q 113.810059 88.155762 113.262207 87.637451 Q 112.714355 87.119141 112.714355 86.249023 Q 112.714355 85.244629 113.388428 84.723633 Q 114.062500 84.202637 115.367676 84.202637 L 116.694336 84.202637 L 116.694336 84.046875 Q 116.688965 83.327148 116.329102 83.002197 Q 115.969238 82.677246 115.179688 82.677246 Q 114.674805 82.677246 114.159180 82.822266 Q 113.643555 82.967285 113.154785 83.246582 L 113.154785 82.258301 Q 113.702637 82.048828 114.204834 81.944092 Q 114.707031 81.839355 115.179688 81.839355 Q 115.926270 81.839355 116.455322 82.059570 Q 116.984375 82.279785 117.312012 82.720215 Q 117.516113 82.988770 117.602051 83.383545 Q 117.687988 83.778320 117.687988 84.567871 Z " fill="rgb(0, 0, 0)" fill-opacity="1.000000" />
<path d="M 124.645020 84.272461 L 124.645020 88.000000 L 123.651367 88.000000 L 123.651367 84.272461 Q 123.651367 83.461426 123.366699 83.080078 Q 123.082031 82.698730 122.475098 82.698730 Q 121.782227 82.698730 121.408936 83.190186 Q 121.035645 83.681641 121.035645 84.600098 L 121.035645 88.000000 L 120.047363 88.000000 L 120.047363 81.984375 L 121.035645 81.984375 L 121.035645 82.886719 Q 121.298828 82.371094 121.750000 82.105225 Q 122.201172 81.839355 122.818848 81.839355 Q 123.737305 81.839355 124.191162 82.443604 Q 124.645020 83.047852 124.645020 84.272461 Z " fill="rgb(0, 0, 0)" fill-opacity="1.000000" />
<path d="M 133.000000 79.980957 L 134.058105 79.980957 L 134.826172 86.490723 L 135.739258 82.183105 L 136.872559 82.183105 L 137.796387 86.501465 L 138.564453 79.980957 L 139.622559 79.980957 L 138.424805 88.000000 L 137.398926 88.000000 L 136.308594 83.235840 L 135.223633 88.000000 L 134.197754 88.000000 Z " fill="rgb(0, 0, 0)" fill-opacity="1.000000" />
<path d="M 141.697266 82.005859 L 144.227051 82.005859 L 144.227051 87.231934 L 146.187500 87.231934 L 146.187500 88.000000 L 141.278320 88.000000 L 141.278320 87.231934 L 143.238770 87.231934 L 143.238770 82.773926 L 141.697266 82.773926 Z M 143.238770 79.669434 L 144.227051 79.669434 L 144.227051 80.915527 L 143.238770 80.915527 Z " fill="rgb(0, 0, 0)" fill-opacity="1.000000" />
<path d="M 152.645020 84.272461 L 152.645020 88.000000 L 151.651367 88.000000 L 151.651367 84.272461 Q 151.651367 83.461426 151.366699 83.080078 Q 151.082031 82.698730 150.475098 82.698730 Q 149.782227 82.698730 149.408936 83.190186 Q 149.035645 83.681641 149.035645 84.600098 L 149.035645 88.000000 L 148.047363 88.000000 L 148.047363 81.984375 L 149.035645 81.984375 L 149.035645 82.886719 Q 149.298828 82.371094 149.750000 82.105225 Q 150.201172 81.839355 150.818848 81.839355 Q 151.737305 81.839355 152.191162 82.443604 Q 152.645020 83.047852 152.645020 84.272461 Z " fill="rgb(0, 0, 0)" fill-opacity="1.000000" />
<path d="M 157.297852 80.276367 L 157.297852 81.984375 L 159.542969 81.984375 L 159.542969 82.752441 L 157.297852 82.752441 L 157.297852 86.018066 Q 157.297852 86.684082 157.550293 86.947266 Q 157.802734 87.210449 158.431152 87.210449 L 159.542969 87.210449 L 159.542969 88.000000 L 158.334473 88.000000 Q 157.222656 88.000000 156.766113 87.554199 Q 156.309570 87.108398 156.309570 86.018066 L 156.309570 82.752441 L 154.703613 82.752441 L 154.703613 81.984375 L 156.309570 81.984375 L 156.309570 80.276367 Z " fill="rgb(0, 0, 0)" fill-opacity="1.000000" />
<path d="M 167.015625 84.498047 L 167.015625 84.981445 L 162.734863 84.981445 L 162.734863 85.013672 Q 162.691895 86.243652 163.204834 86.780762 Q 163.717773 87.317871 164.652344 87.317871 Q 165.125000 87.317871 165.640625 87.167480 Q 166.156250 87.017090 166.741699 86.710938 L 166.741699 87.693848 Q 166.177734 87.924805 165.654053 88.040283 Q 165.130371 88.155762 164.641602 88.155762 Q 163.239746 88.155762 162.450195 87.315186 Q 161.660645 86.474609 161.660645 84.997559 Q 161.660645 83.558105 162.434082 82.698730 Q 163.207520 81.839355 164.496582 81.839355 Q 165.645996 81.839355 166.309326 82.618164 Q 166.972656 83.396973 167.015625 84.498047 Z M 166.027344 84.208008 Q 165.962891 83.584961 165.573486 83.131104 Q 165.184082 82.677246 164.453613 82.677246 Q 163.739258 82.677246 163.277344 83.149902 Q 162.815430 83.622559 162.772461 84.213379 Z " fill="rgb(0, 0, 0)" fill-opacity="1.000000" />
<path d="M 174.203613 83.225098 Q 173.886719 82.978027 173.559082 82.865234 Q 173.231445 82.752441 172.839355 82.752441 Q 171.915527 82.752441 171.426758 83.332520 Q 170.937988 83.912598 170.937988 85.008301 L 170.937988 88.000000 L 169.944336 88.000000 L 169.944336 81.984375 L 170.937988 81.984375 L 170.937988 83.160645 Q 171.185059 82.521484 171.697998 82.180420 Q 172.210938 81.839355 172.914551 81.839355 Q 173.279785 81.839355 173.596680 81.930664 Q 173.913574 82.021973 174.203613 82.215332 Z " fill="rgb(0, 0, 0)" fill-opacity="1.000000" />
<path d="M 179.592285 79.116211 Q 178.877930 80.340820 178.526123 81.557373 Q 178.174316 82.773926 178.174316 84.009277 Q 178.174316 85.239258 178.526123 86.458496 Q 178.877930 87.677734 179.592285 88.913086 L 178.732910 88.913086 Q 177.921875 87.634766 177.524414 86.423584 Q 177.126953 85.212402 177.126953 84.009277 Q 177.126953 82.811523 177.524414 81.597656 Q 177.921875 80.383789 178.732910 79.116211 Z " fill="rgb(0, 0, 0)" fill-opacity="1.000000" />
<path d="M 185.947754 80.969238 L 183.417969 85.207031 L 185.947754 85.207031 Z M 185.770508 79.980957 L 187.027344 79.980957 L 187.027344 85.207031 L 188.096191 85.207031 L 188.096191 86.087891 L 187.027344 86.087891 L 187.027344 88.000000 L 185.947754 88.000000 L 185.947754 86.087891 L 182.547852 86.087891 L 182.547852 85.062012 Z " fill="rgb(0, 0, 0)" fill-opacity="1.000000" />
<path d="M 191.003418 87.086914 L 194.687988 87.086914 L 194.687988 88.000000 L 189.816406 88.000000 L 189.816406 87.086914 Q 190.820801 86.028809 191.572754 85.217773 Q 192.324707 84.406738 192.609375 84.073730 Q 193.146484 83.418457 193.334473 83.012939 Q 193.522461 82.607422 193.522461 82.183105 Q 193.522461 81.511719 193.127686 81.130371 Q 192.732910 80.749023 192.045410 80.749023 Q 191.556641 80.749023 191.019531 80.926270 Q 190.482422 81.103516 189.880859 81.463379 L 189.880859 80.367676 Q 190.434082 80.104492 190.968506 79.970215 Q 191.502930 79.835938 192.023926 79.835938 Q 193.200195 79.835938 193.917236 80.461670 Q 194.634277 81.087402 194.634277 82.102539 Q 194.634277 82.618164 194.395264 83.133789 Q 194.156250 83.649414 193.619141 84.272461 Q 193.318359 84.621582 192.746338 85.239258 Q 192.174316 85.856934 191.003418 87.086914 Z " fill="rgb(0, 0, 0)" fill-opacity="1.000000" />
<path d="M 197.869141 79.116211 L 198.728516 79.116211 Q 199.539551 80.383789 199.937012 81.597656 Q 200.334473 82.811523 200.334473 84.009277 Q 200.334473 85.217773 199.937012 86.431641 Q 199.539551 87.645508 198.728516 88.913086 L 197.869141 88.913086 Q 198.583496 87.666992 198.935303 86.447754 Q 199.287109 85.228516 199.287109 84.009277 Q 199.287109 82.784668 198.935303 81.565430 Q 198.583496 80.346191 197.869141 79.116211 Z " fill="rgb(0, 0, 0)" fill-opacity="1.000000" />
<path d="M 205.374023 86.061035 L 207.049805 86.061035 L 207.049805 87.484375 L 205.857422 89.799316 L 204.783203 89.804688 L 205.374023 87.484375 Z " fill="rgb(0, 0, 0)" fill-opacity="1.000000" />
<path d="M 218.154785 79.980957 L 219.245117 79.980957 L 219.245117 87.086914 L 223.117676 87.086914 L 223.117676 88.000000 L 218.154785 88.000000 Z " fill="rgb(0, 0, 0)" fill-opacity="1.000000" />
<path d="M 230.015625 84.498047 L 230.015625 84.981445 L 225.734863 84.981445 L 225.734863 85.013672 Q 225.691895 86.243652 226.204834 86.780762 Q 226.717773 87.317871 227.652344 87.317871 Q 228.125000 87.317871 228.640625 87.167480 Q 229.156250 87.017090 229.741699 86.710938 L 229.741699 87.693848 Q 229.177734 87.924805 228.654053 88.040283 Q 228.130371 88.155762 227.641602 88.155762 Q 226.239746 88.155762 225.450195 87.315186 Q 224.660645 86.474609 224.660645 84.997559 Q 224.660645 83.558105 225.434082 82.698730 Q 226.207520 81.839355 227.496582 81.839355 Q 228.645996 81.839355 229.309326 82.618164 Q 229.972656 83.396973 230.015625 84.498047 Z M 229.027344 84.208008 Q 228.962891 83.584961 228.573486 83.131104 Q 228.184082 82.677246 227.453613 82.677246 Q 226.739258 82.677246 226.277344 83.149902 Q 225.815430 83.622559 225.772461 84.213379 Z " fill="rgb(0, 0, 0)" fill-opacity="1.000000" />
<path d="M 232.697266 82.005859 L 235.227051 82.005859 L 235.227051 87.231934 L 237.187500 87.231934 L 237.187500 88.000000 L 232.278320 88.000000 L 232.278320 87.231934 L 234.238770 87.231934 L 234.238770 82.773926 L 232.697266 82.773926 Z M 234.238770 79.669434 L 235.227051 79.669434 L 235.227051 80.915527 L 234.238770 80.915527 Z " fill="rgb(0, 0, 0)" fill-opacity="1.000000" />
<path d="M 240.014160 87.242676 L 240.014160 90.288086 L 239.020508 90.288086 L 239.020508 81.984375 L 240.014160 81.984375 L 240.014160 82.752441 Q 240.261230 82.306641 240.672119 82.072998 Q 241.083008 81.839355 241.620117 81.839355 Q 242.710449 81.839355 243.330811 82.682617 Q 243.951172 83.525879 243.951172 85.019043 Q 243.951172 86.485352 243.328125 87.320557 Q 242.705078 88.155762 241.620117 88.155762 Q 241.072266 88.155762 240.661377 87.922119 Q 240.250488 87.688477 240.014160 87.242676 Z M 242.914551 84.997559 Q 242.914551 83.848145 242.552002 83.262695 Q 242.189453 82.677246 241.475098 82.677246 Q 240.755371 82.677246 240.384766 83.265381 Q 240.014160 83.853516 240.014160 84.997559 Q 240.014160 86.136230 240.384766 86.727051 Q 240.755371 87.317871 241.475098 87.317871 Q 242.189453 87.317871 242.552002 86.732422 Q 242.914551 86.146973 242.914551 84.997559 Z " fill="rgb(0, 0, 0)" fill-opacity="1.000000" />
<path d="M 246.219238 81.973633 L 250.585938 81.973633 L 250.585938 82.875977 L 247.132324 87.194336 L 250.585938 87.194336 L 250.585938 88.000000 L 246.090332 88.000000 L 246.090332 87.086914 L 249.543945 82.763184 L 246.219238 82.763184 Z " fill="rgb(0, 0, 0)" fill-opacity="1.000000" />
<path d="M 253.697266 82.005859 L 256.227051 82.005859 L 256.227051 87.231934 L 258.187500 87.231934 L 258.187500 88.000000 L 253.278320 88.000000 L 253.278320 87.231934 L 255.238770 87.231934 L 255.238770 82.773926 L 253.697266 82.773926 Z M 255.238770 79.669434 L 256.227051 79.669434 L 256.227051 80.915527 L 255.238770 80.915527 Z " fill="rgb(0, 0, 0)" fill-opacity="1.000000" />
<path d="M 263.608398 84.943848 Q 263.608398 83.832031 263.245850 83.254639 Q 262.883301 82.677246 262.190430 82.677246 Q 261.465332 82.677246 261.083984 83.254639 Q 260.702637 83.832031 260.702637 84.943848 Q 260.702637 86.055664 261.086670 86.638428 Q 261.470703 87.221191 262.201172 87.221191 Q 262.883301 87.221191 263.245850 86.635742 Q 263.608398 86.050293 263.608398 84.943848 Z M 264.596680 87.613281 Q 264.596680 88.966797 263.957520 89.665039 Q 263.318359 90.363281 262.077637 90.363281 Q 261.669434 90.363281 261.223633 90.288086 Q 260.777832 90.212891 260.332031 90.067871 L 260.332031 89.090332 Q 260.858398 89.337402 261.288086 89.455566 Q 261.717773 89.573730 262.077637 89.573730 Q 262.877930 89.573730 263.243164 89.138672 Q 263.608398 88.703613 263.608398 87.758301 L 263.608398 87.715332 L 263.608398 87.043945 Q 263.372070 87.548828 262.963867 87.795898 Q 262.555664 88.042969 261.970215 88.042969 Q 260.917480 88.042969 260.289062 87.199707 Q 259.660645 86.356445 259.660645 84.943848 Q 259.660645 83.525879 260.289062 82.682617 Q 260.917480 81.839355 261.970215 81.839355 Q 262.550293 81.839355 262.953125 82.070312 Q 263.355957 82.301270 263.608398 82.784668 L 263.608398 82.005859 L 264.596680 82.005859 Z " fill="rgb(0, 0, 0)" fill-opacity="1.000000" />
<path d="M 273.547852 84.111328 L 279.241211 84.111328 L 279.241211 85.019043 L 273.547852 85.019043 Z " fill="rgb(0, 0, 0)" fill-opacity="1.000000" />
<path d="M 292.645020 84.272461 L 292.645020 88.000000 L 291.651367 88.000000 L 291.651367 84.272461 Q 291.651367 83.461426 291.366699 83.080078 Q 291.082031 82.698730 290.475098 82.698730 Q 289.782227 82.698730 289.408936 83.190186 Q 289.035645 83.681641 289.035645 84.600098 L 289.035645 88.000000 L 288.047363 88.000000 L 288.047363 79.642578 L 289.035645 79.642578 L 289.035645 82.886719 Q 289.298828 82.371094 289.750000 82.105225 Q 290.201172 81.839355 290.818848 81.839355 Q 291.737305 81.839355 292.191162 82.443604 Q 292.645020 83.047852 292.645020 84.272461 Z " fill="rgb(0, 0, 0)" fill-opacity="1.000000" />
<path d="M 297.297852 80.276367 L 297.297852 81.984375 L 299.542969 81.984375 L 299.542969 82.752441 L 297.297852 82.752441 L 297.297852 86.018066 Q 297.297852 86.684082 297.550293 86.947266 Q 297.802734 87.210449 298.431152 87.210449 L 299.542969 87.210449 L 299.542969 88.000000 L 298.334473 88.000000 Q 297.222656 88.000000 296.766113 87.554199 Q 296.309570 87.108398 296.309570 86.018066 L 296.309570 82.752441 L 294.703613 82.752441 L 294.703613 81.984375 L 296.309570 81.984375 L 296.309570 80.276367 Z " fill="rgb(0, 0, 0)" fill-opacity="1.000000" />
<path d="M 304.297852 80.276367 L 304.297852 81.984375 L 306.542969 81.984375 L 306.542969 82.752441 L 304.297852 82.752441 L 304.297852 86.018066 Q 304.297852 86.684082 304.550293 86.947266 Q 304.802734 87.210449 305.431152 87.210449 L 306.542969 87.210449 L 306.542969 88.000000 L 305.334473 88.000000 Q 304.222656 88.000000 303.766113 87.554199 Q 303.309570 87.108398 303.309570 86.018066 L 303.309570 82.752441 L 301.703613 82.752441 L 301.703613 81.984375 L 303.309570 81.984375 L 303.309570 80.276367 Z " fill="rgb(0, 0, 0)" fill-opacity="1.000000" />
<path d="M 310.014160 87.242676 L 310.014160 90.288086 L 309.020508 90.288086 L 309.020508 81.984375 L 310.014160 81.984375 L 310.014160 82.752441 Q 310.261230 82.306641 310.672119 82.072998 Q 311.083008 81.839355 311.620117 81.839355 Q 312.710449 81.839355 313.330811 82.682617 Q 313.951172 83.525879 313.951172 85.019043 Q 313.951172 86.485352 313.328125 87.320557 Q 312.705078 88.155762 311.620117 88.155762 Q 311.072266 88.155762 310.661377 87.922119 Q 310.250488 87.688477 310.014160 87.242676 Z M 312.914551 84.997559 Q 312.914551 83.848145 312.552002 83.262695 Q 312.189453 82.677246 311.475098 82.677246 Q 310.755371 82.677246 310.384766 83.265381 Q 310.014160 83.853516 310.014160 84.997559 Q 310.014160 86.136230 310.384766 86.727051 Q 310.755371 87.317871 311.475098 87.317871 Q 312.189453 87.317871 312.552002 86.732422 Q 312.914551 86.146973 312.914551 84.997559 Z " fill="rgb(0, 0, 0)" fill-opacity="1.000000" />
<path d="M 320.226074 82.193848 L 320.226074 83.160645 Q 319.801758 82.913574 319.372070 82.790039 Q 318.942383 82.666504 318.496582 82.666504 Q 317.825195 82.666504 317.494873 82.884033 Q 317.164551 83.101562 317.164551 83.547363 Q 317.164551 83.950195 317.411621 84.148926 Q 317.658691 84.347656 318.641602 84.535645 L 319.039062 84.610840 Q 319.774902 84.750488 320.153564 85.169434 Q 320.532227 85.588379 320.532227 86.259766 Q 320.532227 87.151367 319.898438 87.653564 Q 319.264648 88.155762 318.136719 88.155762 Q 317.690918 88.155762 317.202148 88.061768 Q 316.713379 87.967773 316.144043 87.779785 L 316.144043 86.759277 Q 316.697266 87.043945 317.202148 87.186279 Q 317.707031 87.328613 318.158203 87.328613 Q 318.813477 87.328613 319.173340 87.062744 Q 319.533203 86.796875 319.533203 86.318848 Q 319.533203 85.631348 318.217285 85.368164 L 318.174316 85.357422 L 317.803711 85.282227 Q 316.949707 85.115723 316.557617 84.720947 Q 316.165527 84.326172 316.165527 83.644043 Q 316.165527 82.779297 316.750977 82.309326 Q 317.336426 81.839355 318.421387 81.839355 Q 318.904785 81.839355 319.350586 81.927979 Q 319.796387 82.016602 320.226074 82.193848 Z " fill="rgb(0, 0, 0)" fill-opacity="1.000000" />
<path d="M 324.304199 81.989746 L 325.979980 81.989746 L 325.979980 83.928711 L 324.304199 83.928711 Z M 324.304199 86.044922 L 325.979980 86.044922 L 325.979980 88.000000 L 324.304199 88.000000 Z " fill="rgb(0, 0, 0)" fill-opacity="1.000000" />
<path d="M 333.774902 79.980957 L 334.795410 79.980957 L 330.573730 89.020508 L 329.547852 89.020508 Z " fill="rgb(0, 0, 0)" fill-opacity="1.000000" />
<path d="M 340.774902 79.980957 L 341.795410 79.980957 L 337.573730 89.020508 L 336.547852 89.020508 Z " fill="rgb(0, 0, 0)" fill-opacity="1.000000" />
<path d="M 345.014160 87.242676 L 345.014160 90.288086 L 344.020508 90.288086 L 344.020508 81.984375 L 345.014160 81.984375 L 345.014160 82.752441 Q 345.261230 82.306641 345.672119 82.072998 Q 346.083008 81.839355 346.620117 81.839355 Q 347.710449 81.839355 348.330811 82.682617 Q 348.951172 83.525879 348.951172 85.019043 Q 348.951172 86.485352 348.328125 87.320557 Q 347.705078 88.155762 346.620117 88.155762 Q 346.072266 88.155762 345.661377 87.922119 Q 345.250488 87.688477 345.014160 87.242676 Z M 347.914551 84.997559 Q 347.914551 83.848145 347.552002 83.262695 Q 347.189453 82.677246 346.475098 82.677246 Q 345.755371 82.677246 345.384766 83.265381 Q 345.014160 83.853516 345.014160 84.997559 Q 345.014160 86.136230 345.384766 86.727051 Q 345.755371 87.317871 346.475098 87.317871 Q 347.189453 87.317871 347.552002 86.732422 Q 347.914551 86.146973 347.914551 84.997559 Z " fill="rgb(0, 0, 0)" fill-opacity="1.000000" />
<path d="M 356.203613 83.225098 Q 355.886719 82.978027 355.559082 82.865234 Q 355.231445 82.752441 354.839355 82.752441 Q 353.915527 82.752441 353.426758 83.332520 Q 352.937988 83.912598 352.937988 85.008301 L 352.937988 88.000000 L 351.944336 88.000000 L 351.944336 81.984375 L 352.937988 81.984375 L 352.937988 83.160645 Q 353.185059 82.521484 353.697998 82.180420 Q 354.210938 81.839355 354.914551 81.839355 Q 355.279785 81.839355 355.596680 81.930664 Q 355.913574 82.021973 356.203613 82.215332 Z " fill="rgb(0, 0, 0)" fill-opacity="1.000000" />
<path d="M 360.308594 82.677246 Q 359.556641 82.677246 359.169922 83.262695 Q 358.783203 83.848145 358.783203 84.997559 Q 358.783203 86.141602 359.169922 86.729736 Q 359.556641 87.317871 360.308594 87.317871 Q 361.065918 87.317871 361.452637 86.729736 Q 361.839355 86.141602 361.839355 84.997559 Q 361.839355 83.848145 361.452637 83.262695 Q 361.065918 82.677246 360.308594 82.677246 Z M 360.308594 81.839355 Q 361.560059 81.839355 362.223389 82.650391 Q 362.886719 83.461426 362.886719 84.997559 Q 362.886719 86.539062 362.226074 87.347412 Q 361.565430 88.155762 360.308594 88.155762 Q 359.057129 88.155762 358.396484 87.347412 Q 357.735840 86.539062 357.735840 84.997559 Q 357.735840 83.461426 358.396484 82.650391 Q 359.057129 81.839355 360.308594 81.839355 Z " fill="rgb(0, 0, 0)" fill-opacity="1.000000" />
<path d="M 367.222656 88.107422 L 367.222656 82.752441 L 365.520020 82.752441 L 365.520020 81.984375 L 368.210938 81.984375 L 368.210938 88.107422 Q 368.210938 89.154785 367.730225 89.721436 Q 367.249512 90.288086 366.363281 90.288086 L 364.999023 90.288086 L 364.999023 89.450195 L 366.255859 89.450195 Q 366.739258 89.450195 366.980957 89.114502 Q 367.222656 88.778809 367.222656 88.107422 Z M 367.222656 79.642578 L 368.210938 79.642578 L 368.210938 80.894043 L 367.222656 80.894043 Z " fill="rgb(0, 0, 0)" fill-opacity="1.000000" />
<path d="M 377.015625 84.498047 L 377.015625 84.981445 L 372.734863 84.981445 L 372.734863 85.013672 Q 372.691895 86.243652 373.204834 86.780762 Q 373.717773 87.317871 374.652344 87.317871 Q 375.125000 87.317871 375.640625 87.167480 Q 376.156250 87.017090 376.741699 86.710938 L 376.741699 87.693848 Q 376.177734 87.924805 375.654053 88.040283 Q 375.130371 88.155762 374.641602 88.155762 Q 373.239746 88.155762 372.450195 87.315186 Q 371.660645 86.474609 371.660645 84.997559 Q 371.660645 83.558105 372.434082 82.698730 Q 373.207520 81.839355 374.496582 81.839355 Q 375.645996 81.839355 376.309326 82.618164 Q 376.972656 83.396973 377.015625 84.498047 Z M 376.027344 84.208008 Q 375.962891 83.584961 375.573486 83.131104 Q 375.184082 82.677246 374.453613 82.677246 Q 373.739258 82.677246 373.277344 83.149902 Q 372.815430 83.622559 372.772461 84.213379 Z " fill="rgb(0, 0, 0)" fill-opacity="1.000000" />
<path d="M 383.698730 87.693848 Q 383.301270 87.924805 382.879639 88.040283 Q 382.458008 88.155762 382.017578 88.155762 Q 380.621094 88.155762 379.834229 87.317871 Q 379.047363 86.479980 379.047363 84.997559 Q 379.047363 83.515137 379.834229 82.677246 Q 380.621094 81.839355 382.017578 81.839355 Q 382.452637 81.839355 382.866211 81.952148 Q 383.279785 82.064941 383.698730 82.301270 L 383.698730 83.337891 Q 383.306641 82.988770 382.911865 82.833008 Q 382.517090 82.677246 382.017578 82.677246 Q 381.088379 82.677246 380.588867 83.278809 Q 380.089355 83.880371 380.089355 84.997559 Q 380.089355 86.109375 380.591553 86.713623 Q 381.093750 87.317871 382.017578 87.317871 Q 382.533203 87.317871 382.941406 87.159424 Q 383.349609 87.000977 383.698730 86.667969 Z " fill="rgb(0, 0, 0)" fill-opacity="1.000000" />
<path d="M 388.297852 80.276367 L 388.297852 81.984375 L 390.542969 81.984375 L 390.542969 82.752441 L 388.297852 82.752441 L 388.297852 86.018066 Q 388.297852 86.684082 388.550293 86.947266 Q 388.802734 87.210449 389.431152 87.210449 L 390.542969 87.210449 L 390.542969 88.000000 L 389.334473 88.000000 Q 388.222656 88.000000 387.766113 87.554199 Q 387.309570 87.108398 387.309570 86.018066 L 387.309570 82.752441 L 385.703613 82.752441 L 385.703613 81.984375 L 387.309570 81.984375 L 387.309570 80.276367 Z " fill="rgb(0, 0, 0)" fill-opacity="1.000000" />
<path d="M 397.226074 82.193848 L 397.226074 83.160645 Q 396.801758 82.913574 396.372070 82.790039 Q 395.942383 82.666504 395.496582 82.666504 Q 394.825195 82.666504 394.494873 82.884033 Q 394.164551 83.101562 394.164551 83.547363 Q 394.164551 83.950195 394.411621 84.148926 Q 394.658691 84.347656 395.641602 84.535645 L 396.039062 84.610840 Q 396.774902 84.750488 397.153564 85.169434 Q 397.532227 85.588379 397.532227 86.259766 Q 397.532227 87.151367 396.898438 87.653564 Q 396.264648 88.155762 395.136719 88.155762 Q 394.690918 88.155762 394.202148 88.061768 Q 393.713379 87.967773 393.144043 87.779785 L 393.144043 86.759277 Q 393.697266 87.043945 394.202148 87.186279 Q 394.707031 87.328613 395.158203 87.328613 Q 395.813477 87.328613 396.173340 87.062744 Q 396.533203 86.796875 396.533203 86.318848 Q 396.533203 85.631348 395.217285 85.368164 L 395.174316 85.357422 L 394.803711 85.282227 Q 393.949707 85.115723 393.557617 84.720947 Q 393.165527 84.326172 393.165527 83.644043 Q 393.165527 82.779297 393.750977 82.309326 Q 394.336426 81.839355 395.421387 81.839355 Q 395.904785 81.839355 396.350586 81.927979 Q 396.796387 82.016602 397.226074 82.193848 Z " fill="rgb(0, 0, 0)" fill-opacity="1.000000" />
<path d="M 401.089355 85.830078 L 402.979980 85.830078 L 402.979980 88.000000 L 401.089355 88.000000 Z " fill="rgb(0, 0, 0)" fill-opacity="1.000000" />
<path d="M 409.222656 88.107422 L 409.222656 82.752441 L 407.520020 82.752441 L 407.520020 81.984375 L 410.210938 81.984375 L 410.210938 88.107422 Q 410.210938 89.154785 409.730225 89.721436 Q 409.249512 90.288086 408.363281 90.288086 L 406.999023 90.288086 L 406.999023 89.450195 L 408.255859 89.450195 Q 408.739258 89.450195 408.980957 89.114502 Q 409.222656 88.778809 409.222656 88.107422 Z M 409.222656 79.642578 L 410.210938 79.642578 L 410.210938 80.894043 L 409.222656 80.894043 Z " fill="rgb(0, 0, 0)" fill-opacity="1.000000" />
<path d="M 413.000000 81.984375 L 413.977539 81.984375 L 415.024902 86.845215 L 415.884277 83.740723 L 416.727539 83.740723 L 417.597656 86.845215 L 418.645020 81.984375 L 419.622559 81.984375 L 418.215332 88.000000 L 417.270020 88.000000 L 416.308594 84.702148 L 415.352539 88.000000 L 414.407227 88.000000 Z " fill="rgb(0, 0, 0)" fill-opacity="1.000000" />
<path d="M 423.770508 84.976074 L 423.442871 84.976074 Q 422.578125 84.976074 422.140381 85.279541 Q 421.702637 85.583008 421.702637 86.184570 Q 421.702637 86.727051 422.030273 87.027832 Q 422.357910 87.328613 422.937988 87.328613 Q 423.754395 87.328613 424.221680 86.761963 Q 424.688965 86.195312 424.694336 85.196289 L 424.694336 84.976074 Z M 425.687988 84.567871 L 425.687988 88.000000 L 424.694336 88.000000 L 424.694336 87.108398 Q 424.377441 87.645508 423.896729 87.900635 Q 423.416016 88.155762 422.728516 88.155762 Q 421.810059 88.155762 421.262207 87.637451 Q 420.714355 87.119141 420.714355 86.249023 Q 420.714355 85.244629 421.388428 84.723633 Q 422.062500 84.202637 423.367676 84.202637 L 424.694336 84.202637 L 424.694336 84.046875 Q 424.688965 83.327148 424.329102 83.002197 Q 423.969238 82.677246 423.179688 82.677246 Q 422.674805 82.677246 422.159180 82.822266 Q 421.643555 82.967285 421.154785 83.246582 L 421.154785 82.258301 Q 421.702637 82.048828 422.204834 81.944092 Q 422.707031 81.839355 423.179688 81.839355 Q 423.926270 81.839355 424.455322 82.059570 Q 424.984375 82.279785 425.312012 82.720215 Q 425.516113 82.988770 425.602051 83.383545 Q 425.687988 83.778320 425.687988 84.567871 Z " fill="rgb(0, 0, 0)" fill-opacity="1.000000" />
<path d="M 428.047363 85.722656 L 428.047363 81.995117 L 429.035645 81.995117 L 429.035645 85.722656 Q 429.035645 86.533691 429.322998 86.915039 Q 429.610352 87.296387 430.211914 87.296387 Q 430.910156 87.296387 431.280762 86.804932 Q 431.651367 86.313477 431.651367 85.395020 L 431.651367 81.995117 L 432.645020 81.995117 L 432.645020 88.000000 L 431.651367 88.000000 L 431.651367 87.097656 Q 431.388184 87.618652 430.934326 87.887207 Q 430.480469 88.155762 429.873535 88.155762 Q 428.949707 88.155762 428.498535 87.551514 Q 428.047363 86.947266 428.047363 85.722656 Z " fill="rgb(0, 0, 0)" fill-opacity="1.000000" />
<path d="M 439.226074 82.193848 L 439.226074 83.160645 Q 438.801758 82.913574 438.372070 82.790039 Q 437.942383 82.666504 437.496582 82.666504 Q 436.825195 82.666504 436.494873 82.884033 Q 436.164551 83.101562 436.164551 83.547363 Q 436.164551 83.950195 436.411621 84.148926 Q 436.658691 84.347656 437.641602 84.535645 L 438.039062 84.610840 Q 438.774902 84.750488 439.153564 85.169434 Q 439.532227 85.588379 439.532227 86.259766 Q 439.532227 87.151367 438.898438 87.653564 Q 438.264648 88.155762 437.136719 88.155762 Q 436.690918 88.155762 436.202148 88.061768 Q 435.713379 87.967773 435.144043 87.779785 L 435.144043 86.759277 Q 435.697266 87.043945 436.202148 87.186279 Q 436.707031 87.328613 437.158203 87.328613 Q 437.813477 87.328613 438.173340 87.062744 Q 438.533203 86.796875 438.533203 86.318848 Q 438.533203 85.631348 437.217285 85.368164 L 437.174316 85.357422 L 436.803711 85.282227 Q 435.949707 85.115723 435.557617 84.720947 Q 435.165527 84.326172 435.165527 83.644043 Q 435.165527 82.779297 435.750977 82.309326 Q 436.336426 81.839355 437.421387 81.839355 Q 437.904785 81.839355 438.350586 81.927979 Q 438.796387 82.016602 439.226074 82.193848 Z " fill="rgb(0, 0, 0)" fill-opacity="1.000000" />
<path d="M 444.861816 85.824707 Q 444.861816 86.490723 445.106201 86.829102 Q 445.350586 87.167480 445.828613 87.167480 L 446.983398 87.167480 L 446.983398 88.000000 L 445.731934 88.000000 Q 444.845703 88.000000 444.359619 87.433350 Q 443.873535 86.866699 443.873535 85.824707 L 443.873535 80.383789 L 442.289062 80.383789 L 442.289062 79.610352 L 444.861816 79.610352 Z " fill="rgb(0, 0, 0)" fill-opacity="1.000000" />
<path d="M 454.015625 84.498047 L 454.015625 84.981445 L 449.734863 84.981445 L 449.734863 85.013672 Q 449.691895 86.243652 450.204834 86.780762 Q 450.717773 87.317871 451.652344 87.317871 Q 452.125000 87.317871 452.640625 87.167480 Q 453.156250 87.017090 453.741699 86.710938 L 453.741699 87.693848 Q 453.177734 87.924805 452.654053 88.040283 Q 452.130371 88.155762 451.641602 88.155762 Q 450.239746 88.155762 449.450195 87.315186 Q 448.660645 86.474609 448.660645 84.997559 Q 448.660645 83.558105 449.434082 82.698730 Q 450.207520 81.839355 451.496582 81.839355 Q 452.645996 81.839355 453.309326 82.618164 Q 453.972656 83.396973 454.015625 84.498047 Z M 453.027344 84.208008 Q 452.962891 83.584961 452.573486 83.131104 Q 452.184082 82.677246 451.453613 82.677246 Q 450.739258 82.677246 450.277344 83.149902 Q 449.815430 83.622559 449.772461 84.213379 Z " fill="rgb(0, 0, 0)" fill-opacity="1.000000" />
<path d="M 60.774902 53.980957 L 61.795410 53.980957 L 57.573730 63.020508 L 56.547852 63.020508 Z " fill="rgb(0, 0, 0)" fill-opacity="1.000000" />
<path d="M 69.574219 63.020508 L 69.574219 63.933594 L 63.000000 63.933594 L 63.000000 63.020508 Z " fill="rgb(0, 0, 0)" fill-opacity="1.000000" />
<path d="M 76.574219 63.020508 L 76.574219 63.933594 L 70.000000 63.933594 L 70.000000 63.020508 Z " fill="rgb(0, 0, 0)" fill-opacity="1.000000" />
<path d="M 78.573730 53.980957 L 82.795410 63.020508 L 81.774902 63.020508 L 77.547852 53.980957 Z " fill="rgb(0, 0, 0)" fill-opacity="1.000000" />
<path d="M 87.985352 53.594238 L 87.985352 64.594238 L 87.061523 64.594238 L 87.061523 53.594238 Z " fill="rgb(0, 0, 0)" fill-opacity="1.000000" />
<path d="M 95.774902 53.980957 L 96.795410 53.980957 L 92.573730 63.020508 L 91.547852 63.020508 Z " fill="rgb(0, 0, 0)" fill-opacity="1.000000" />
<path d="M 104.574219 63.020508 L 104.574219 63.933594 L 98.000000 63.933594 L 98.000000 63.020508 Z " fill="rgb(0, 0, 0)" fill-opacity="1.000000" />
<path d="M 111.574219 63.020508 L 111.574219 63.933594 L 105.000000 63.933594 L 105.000000 63.020508 Z " fill="rgb(0, 0, 0)" fill-opacity="1.000000" />
<path d="M 113.573730 53.980957 L 117.795410 63.020508 L 116.774902 63.020508 L 112.547852 53.980957 Z " fill="rgb(0, 0, 0)" fill-opacity="1.000000" />
<path d="M 122.985352 53.594238 L 122.985352 64.594238 L 122.061523 64.594238 L 122.061523 53.594238 Z " fill="rgb(0, 0, 0)" fill-opacity="1.000000" />
<path d="M 130.774902 53.980957 L 131.795410 53.980957 L 127.573730 63.020508 L 126.547852 63.020508 Z " fill="rgb(0, 0, 0)" fill-opacity="1.000000" />
<path d="M 139.574219 63.020508 L 139.574219 63.933594 L 133.000000 63.933594 L 133.000000 63.020508 Z " fill="rgb(0, 0, 0)" fill-opacity="1.000000" />
<path d="M 146.574219 63.020508 L 146.574219 63.933594 L 140.000000 63.933594 L 140.000000 63.020508 Z " fill="rgb(0, 0, 0)" fill-opacity="1.000000" />
<path d="M 148.573730 53.980957 L 152.795410 63.020508 L 151.774902 63.020508 L 147.547852 53.980957 Z " fill="rgb(0, 0, 0)" fill-opacity="1.000000" />
<path d="M 157.985352 53.594238 L 157.985352 64.594238 L 157.061523 64.594238 L 157.061523 53.594238 Z " fill="rgb(0, 0, 0)" fill-opacity="1.000000" />
<path d="M 165.774902 53.980957 L 166.795410 53.980957 L 162.573730 63.020508 L 161.547852 63.020508 Z " fill="rgb(0, 0, 0)" fill-opacity="1.000000" />
<path d="M 174.574219 63.020508 L 174.574219 63.933594 L 168.000000 63.933594 L 168.000000 63.020508 Z " fill="rgb(0, 0, 0)" fill-opacity="1.000000" />
<path d="M 181.574219 63.020508 L 181.574219 63.933594 L 175.000000 63.933594 L 175.000000 63.020508 Z " fill="rgb(0, 0, 0)" fill-opacity="1.000000" />
<path d="M 183.573730 53.980957 L 187.795410 63.020508 L 186.774902 63.020508 L 182.547852 53.980957 Z " fill="rgb(0, 0, 0)" fill-opacity="1.000000" />
<path d="M 192.985352 53.594238 L 192.985352 64.594238 L 192.061523 64.594238 L 192.061523 53.594238 Z " fill="rgb(0, 0, 0)" fill-opacity="1.000000" />
<path d="M 200.774902 53.980957 L 201.795410 53.980957 L 197.573730 63.020508 L 196.547852 63.020508 Z " fill="rgb(0, 0, 0)" fill-opacity="1.000000" />
<path d="M 209.574219 63.020508 L 209.574219 63.933594 L 203.000000 63.933594 L 203.000000 63.020508 Z " fill="rgb(0, 0, 0)" fill-opacity="1.000000" />
<path d="M 216.574219 63.020508 L 216.574219 63.933594 L 210.000000 63.933594 L 210.000000 63.020508 Z " fill="rgb(0, 0, 0)" fill-opacity="1.000000" />
<path d="M 218.573730 53.980957 L 222.795410 63.020508 L 221.774902 63.020508 L 217.547852 53.980957 Z " fill="rgb(0, 0, 0)" fill-opacity="1.000000" />
<path d="M 227.985352 53.594238 L 227.985352 64.594238 L 227.061523 64.594238 L 227.061523 53.594238 Z " fill="rgb(0, 0, 0)" fill-opacity="1.000000" />
<path d="M 235.774902 53.980957 L 236.795410 53.980957 L 232.573730 63.020508 L 231.547852 63.020508 Z " fill="rgb(0, 0, 0)" fill-opacity="1.000000" />
<path d="M 244.574219 63.020508 L 244.574219 63.933594 L 238.000000 63.933594 L 238.000000 63.020508 Z " fill="rgb(0, 0, 0)" fill-opacity="1.000000" />
<path d="M 251.574219 63.020508 L 251.574219 63.933594 L 245.000000 63.933594 L 245.000000 63.020508 Z " fill="rgb(0, 0, 0)" fill-opacity="1.000000" />
<path d="M 253.573730 53.980957 L 257.795410 63.020508 L 256.774902 63.020508 L 252.547852 53.980957 Z " fill="rgb(0, 0, 0)" fill-opacity="1.000000" />
<path d="M 262.985352 53.594238 L 262.985352 64.594238 L 262.061523 64.594238 L 262.061523 53.594238 Z " fill="rgb(0, 0, 0)" fill-opacity="1.000000" />
<path d="M 270.774902 53.980957 L 271.795410 53.980957 L 267.573730 63.020508 L 266.547852 63.020508 Z " fill="rgb(0, 0, 0)" fill-opacity="1.000000" />
<path d="M 279.574219 63.020508 L 279.574219 63.933594 L 273.000000 63.933594 L 273.000000 63.020508 Z " fill="rgb(0, 0, 0)" fill-opacity="1.000000" />
<path d="M 286.574219 63.020508 L 286.574219 63.933594 L 280.000000 63.933594 L 280.000000 63.020508 Z " fill="rgb(0, 0, 0)" fill-opacity="1.000000" />
<path d="M 293.574219 63.020508 L 293.574219 63.933594 L 287.000000 63.933594 L 287.000000 63.020508 Z " fill="rgb(0, 0, 0)" fill-opacity="1.000000" />
<path d="M 300.574219 63.020508 L 300.574219 63.933594 L 294.000000 63.933594 L 294.000000 63.020508 Z " fill="rgb(0, 0, 0)" fill-opacity="1.000000" />
<path d="M 307.574219 63.020508 L 307.574219 63.933594 L 301.000000 63.933594 L 301.000000 63.020508 Z " fill="rgb(0, 0, 0)" fill-opacity="1.000000" />
<path d="M 314.574219 63.020508 L 314.574219 63.933594 L 308.000000 63.933594 L 308.000000 63.020508 Z " fill="rgb(0, 0, 0)" fill-opacity="1.000000" />
<path d="M 321.574219 63.020508 L 321.574219 63.933594 L 315.000000 63.933594 L 315.000000 63.020508 Z " fill="rgb(0, 0, 0)" fill-opacity="1.000000" />
<path d="M 323.573730 53.980957 L 327.795410 63.020508 L 326.774902 63.020508 L 322.547852 53.980957 Z " fill="rgb(0, 0, 0)" fill-opacity="1.000000" />
<path d="M 332.985352 53.594238 L 332.985352 64.594238 L 332.061523 64.594238 L 332.061523 53.594238 Z " fill="rgb(0, 0, 0)" fill-opacity="1.000000" />
<path d="M 340.774902 53.980957 L 341.795410 53.980957 L 337.573730 63.020508 L 336.547852 63.020508 Z " fill="rgb(0, 0, 0)" fill-opacity="1.000000" />
<path d="M 349.574219 63.020508 L 349.574219 63.933594 L 343.000000 63.933594 L 343.000000 63.020508 Z " fill="rgb(0, 0, 0)" fill-opacity="1.000000" />
<path d="M 356.574219 63.020508 L 356.574219 63.933594 L 350.000000 63.933594 L 350.000000 63.020508 Z " fill="rgb(0, 0, 0)" fill-opacity="1.000000" />
<path d="M 358.573730 53.980957 L 362.795410 63.020508 L 361.774902 63.020508 L 357.547852 53.980957 Z " fill="rgb(0, 0, 0)" fill-opacity="1.000000" />
<path d="M 367.985352 53.594238 L 367.985352 64.594238 L 367.061523 64.594238 L 367.061523 53.594238 Z " fill="rgb(0, 0, 0)" fill-opacity="1.000000" />
<path d="M 375.774902 53.980957 L 376.795410 53.980957 L 372.573730 63.020508 L 371.547852 63.020508 Z " fill="rgb(0, 0, 0)" fill-opacity="1.000000" />
<path d="M 384.574219 63.020508 L 384.574219 63.933594 L 378.000000 63.933594 L 378.000000 63.020508 Z " fill="rgb(0, 0, 0)" fill-opacity="1.000000" />
<path d="M 391.574219 63.020508 L 391.574219 63.933594 L 385.000000 63.933594 L 385.000000 63.020508 Z " fill="rgb(0, 0, 0)" fill-opacity="1.000000" />
<path d="M 393.573730 53.980957 L 397.795410 63.020508 L 396.774902 63.020508 L 392.547852 53.980957 Z " fill="rgb(0, 0, 0)" fill-opacity="1.000000" />
<path d="M 402.985352 53.594238 L 402.985352 64.594238 L 402.061523 64.594238 L 402.061523 53.594238 Z " fill="rgb(0, 0, 0)" fill-opacity="1.000000" />
<path d="M 410.774902 53.980957 L 411.795410 53.980957 L 407.573730 63.020508 L 406.547852 63.020508 Z " fill="rgb(0, 0, 0)" fill-opacity="1.000000" />
<path d="M 419.574219 63.020508 L 419.574219 63.933594 L 413.000000 63.933594 L 413.000000 63.020508 Z " fill="rgb(0, 0, 0)" fill-opacity="1.000000" />
<path d="M 426.574219 63.020508 L 426.574219 63.933594 L 420.000000 63.933594 L 420.000000 63.020508 Z " fill="rgb(0, 0, 0)" fill-opacity="1.000000" />
<path d="M 428.573730 53.980957 L 432.795410 63.020508 L 431.774902 63.020508 L 427.547852 53.980957 Z " fill="rgb(0, 0, 0)" fill-opacity="1.000000" />
<path d="M 437.985352 53.594238 L 437.985352 64.594238 L 437.061523 64.594238 L 437.061523 53.594238 Z " fill="rgb(0, 0, 0)" fill-opacity="1.000000" />
<path d="M 445.774902 53.980957 L 446.795410 53.980957 L 442.573730 63.020508 L 441.547852 63.020508 Z " fill="rgb(0, 0, 0)" fill-opacity="1.000000" />
<path d="M 454.574219 63.020508 L 454.574219 63.933594 L 448.000000 63.933594 L 448.000000 63.020508 Z " fill="rgb(0, 0, 0)" fill-opacity="1.000000" />
<path d="M 461.574219 63.020508 L 461.574219 63.933594 L 455.000000 63.933594 L 455.000000 63.020508 Z " fill="rgb(0, 0, 0)" fill-opacity="1.000000" />
<path d="M 463.573730 53.980957 L 467.795410 63.020508 L 466.774902 63.020508 L 462.547852 53.980957 Z " fill="rgb(0, 0, 0)" fill-opacity="1.000000" />
<path d="M 472.985352 53.594238 L 472.985352 64.594238 L 472.061523 64.594238 L 472.061523 53.594238 Z " fill="rgb(0, 0, 0)" fill-opacity="1.000000" />
<path d="M 480.774902 53.980957 L 481.795410 53.980957 L 477.573730 63.020508 L 476.547852 63.020508 Z " fill="rgb(0, 0, 0)" fill-opacity="1.000000" />
<path d="M 489.574219 63.020508 L 489.574219 63.933594 L 483.000000 63.933594 L 483.000000 63.020508 Z " fill="rgb(0, 0, 0)" fill-opacity="1.000000" />
<path d="M 496.574219 63.020508 L 496.574219 63.933594 L 490.000000 63.933594 L 490.000000 63.020508 Z " fill="rgb(0, 0, 0)" fill-opacity="1.000000" />
<path d="M 498.573730 53.980957 L 502.795410 63.020508 L 501.774902 63.020508 L 497.547852 53.980957 Z " fill="rgb(0, 0, 0)" fill-opacity="1.000000" />
<path d="M 507.985352 53.594238 L 507.985352 64.594238 L 507.061523 64.594238 L 507.061523 53.594238 Z " fill="rgb(0, 0, 0)" fill-opacity="1.000000" />
<path d="M 68.763184 35.715332 Q 68.349609 35.935547 67.914551 36.045654 Q 67.479492 36.155762 66.990723 36.155762 Q 65.449219 36.155762 64.597900 35.065430 Q 63.746582 33.975098 63.746582 31.998535 Q 63.746582 30.032715 64.603271 28.934326 Q 65.459961 27.835938 66.990723 27.835938 Q 67.479492 27.835938 67.914551 27.946045 Q 68.349609 28.056152 68.763184 28.276367 L 68.763184 29.388184 Q 68.365723 29.060547 67.909180 28.888672 Q 67.452637 28.716797 66.990723 28.716797 Q 65.932617 28.716797 65.406250 29.533203 Q 64.879883 30.349609 64.879883 31.998535 Q 64.879883 33.642090 65.406250 34.458496 Q 65.932617 35.274902 66.990723 35.274902 Q 67.463379 35.274902 67.917236 35.103027 Q 68.371094 34.931152 68.763184 34.603516 Z " fill="rgb(0, 0, 0)" fill-opacity="1.000000" />
<path d="M 69.574219 50.020508 L 69.574219 50.933594 L 63.000000 50.933594 L 63.000000 50.020508 Z " fill="rgb(0, 0, 0)" fill-opacity="1.000000" />
<path d="M 76.574219 50.020508 L 76.574219 50.933594 L 70.000000 50.933594 L 70.000000 50.020508 Z " fill="rgb(0, 0, 0)" fill-opacity="1.000000" />
<path d="M 80.985352 40.594238 L 80.985352 51.594238 L 80.061523 51.594238 L 80.061523 40.594238 Z " fill="rgb(0, 0, 0)" fill-opacity="1.000000" />
<path d="M 87.985352 40.594238 L 87.985352 51.594238 L 87.061523 51.594238 L 87.061523 40.594238 Z " fill="rgb(0, 0, 0)" fill-opacity="1.000000" />
<path d="M 94.985352 40.594238 L 94.985352 51.594238 L 94.061523 51.594238 L 94.061523 40.594238 Z " fill="rgb(0, 0, 0)" fill-opacity="1.000000" />
<path d="M 104.574219 50.020508 L 104.574219 50.933594 L 98.000000 50.933594 L 98.000000 50.020508 Z " fill="rgb(0, 0, 0)" fill-opacity="1.000000" />
<path d="M 111.574219 50.020508 L 111.574219 50.933594 L 105.000000 50.933594 L 105.000000 50.020508 Z " fill="rgb(0, 0, 0)" fill-opacity="1.000000" />
<path d="M 115.985352 40.594238 L 115.985352 51.594238 L 115.061523 51.594238 L 115.061523 40.594238 Z " fill="rgb(0, 0, 0)" fill-opacity="1.000000" />
<path d="M 122.985352 40.594238 L 122.985352 51.594238 L 122.061523 51.594238 L 122.061523 40.594238 Z " fill="rgb(0, 0, 0)" fill-opacity="1.000000" />
<path d="M 129.985352 40.594238 L 129.985352 51.594238 L 129.061523 51.594238 L 129.061523 40.594238 Z " fill="rgb(0, 0, 0)" fill-opacity="1.000000" />
<path d="M 139.574219 50.020508 L 139.574219 50.933594 L 133.000000 50.933594 L 133.000000 50.020508 Z " fill="rgb(0, 0, 0)" fill-opacity="1.000000" />
<path d="M 146.574219 50.020508 L 146.574219 50.933594 L 140.000000 50.933594 L 140.000000 50.020508 Z " fill="rgb(0, 0, 0)" fill-opacity="1.000000" />
<path d="M 150.985352 40.594238 L 150.985352 51.594238 L 150.061523 51.594238 L 150.061523 40.594238 Z " fill="rgb(0, 0, 0)" fill-opacity="1.000000" />
<path d="M 157.985352 40.594238 L 157.985352 51.594238 L 157.061523 51.594238 L 157.061523 40.594238 Z " fill="rgb(0, 0, 0)" fill-opacity="1.000000" />
<path d="M 164.985352 40.594238 L 164.985352 51.594238 L 164.061523 51.594238 L 164.061523 40.594238 Z " fill="rgb(0, 0, 0)" fill-opacity="1.000000" />
<path d="M 174.574219 50.020508 L 174.574219 50.933594 L 168.000000 50.933594 L 168.000000 50.020508 Z " fill="rgb(0, 0, 0)" fill-opacity="1.000000" />
<path d="M 181.574219 50.020508 L 181.574219 50.933594 L 175.000000 50.933594 L 175.000000 50.020508 Z " fill="rgb(0, 0, 0)" fill-opacity="1.000000" />
<path d="M 185.985352 40.594238 L 185.985352 51.594238 L 185.061523 51.594238 L 185.061523 40.594238 Z " fill="rgb(0, 0, 0)" fill-opacity="1.000000" />
<path d="M 192.985352 40.594238 L 192.985352 51.594238 L 192.061523 51.594238 L 192.061523 40.594238 Z " fill="rgb(0, 0, 0)" fill-opacity="1.000000" />
<path d="M 199.985352 40.594238 L 199.985352 51.594238 L 199.061523 51.594238 L 199.061523 40.594238 Z " fill="rgb(0, 0, 0)" fill-opacity="1.000000" />
<path d="M 209.574219 50.020508 L 209.574219 50.933594 L 203.000000 50.933594 L 203.000000 50.020508 Z " fill="rgb(0, 0, 0)" fill-opacity="1.000000" />
<path d="M 216.574219 50.020508 L 216.574219 50.933594 L 210.000000 50.933594 L 210.000000 50.020508 Z " fill="rgb(0, 0, 0)" fill-opacity="1.000000" />
<path d="M 220.985352 40.594238 L 220.985352 51.594238 L 220.061523 51.594238 L 220.061523 40.594238 Z " fill="rgb(0, 0, 0)" fill-opacity="1.000000" />
<path d="M 227.985352 40.594238 L 227.985352 51.594238 L 227.061523 51.594238 L 227.061523 40.594238 Z " fill="rgb(0, 0, 0)" fill-opacity="1.000000" />
<path d="M 234.985352 40.594238 L 234.985352 51.594238 L 234.061523 51.594238 L 234.061523 40.594238 Z " fill="rgb(0, 0, 0)" fill-opacity="1.000000" />
<path d="M 244.574219 50.020508 L 244.574219 50.933594 L 238.000000 50.933594 L 238.000000 50.020508 Z " fill="rgb(0, 0, 0)" fill-opacity="1.000000" />
<path d="M 251.574219 50.020508 L 251.574219 50.933594 L 245.000000 50.933594 L 245.000000 50.020508 Z " fill="rgb(0, 0, 0)" fill-opacity="1.000000" />
<path d="M 255.985352 40.594238 L 255.985352 51.594238 L 255.061523 51.594238 L 255.061523 40.594238 Z " fill="rgb(0, 0, 0)" fill-opacity="1.000000" />
<path d="M 262.985352 40.594238 L 262.985352 51.594238 L 262.061523 51.594238 L 262.061523 40.594238 Z " fill="rgb(0, 0, 0)" fill-opacity="1.000000" />
<path d="M 269.985352 40.594238 L 269.985352 51.594238 L 269.061523 51.594238 L 269.061523 40.594238 Z " fill="rgb(0, 0, 0)" fill-opacity="1.000000" />
<path d="M 279.574219 50.020508 L 279.574219 50.933594 L 273.000000 50.933594 L 273.000000 50.020508 Z " fill="rgb(0, 0, 0)" fill-opacity="1.000000" />
<path d="M 286.574219 50.020508 L 286.574219 50.933594 L 280.000000 50.933594 L 280.000000 50.020508 Z " fill="rgb(0, 0, 0)" fill-opacity="1.000000" />
<path d="M 293.574219 50.020508 L 293.574219 50.933594 L 287.000000 50.933594 L 287.000000 50.020508 Z " fill="rgb(0, 0, 0)" fill-opacity="1.000000" />
<path d="M 300.574219 50.020508 L 300.574219 50.933594 L 294.000000 50.933594 L 294.000000 50.020508 Z " fill="rgb(0, 0, 0)" fill-opacity="1.000000" />
<path d="M 307.574219 50.020508 L 307.574219 50.933594 L 301.000000 50.933594 L 301.000000 50.020508 Z " fill="rgb(0, 0, 0)" fill-opacity="1.000000" />
<path d="M 314.574219 50.020508 L 314.574219 50.933594 L 308.000000 50.933594 L 308.000000 50.020508 Z " fill="rgb(0, 0, 0)" fill-opacity="1.000000" />
<path d="M 321.574219 50.020508 L 321.574219 50.933594 L 315.000000 50.933594 L 315.000000 50.020508 Z " fill="rgb(0, 0, 0)" fill-opacity="1.000000" />
<path d="M 325.985352 40.594238 L 325.985352 51.594238 L 325.061523 51.594238 L 325.061523 40.594238 Z " fill="rgb(0, 0, 0)" fill-opacity="1.000000" />
<path d="M 332.985352 40.594238 L 332.985352 51.594238 L 332.061523 51.594238 L 332.061523 40.594238 Z " fill="rgb(0, 0, 0)" fill-opacity="1.000000" />
<path d="M 339.985352 40.594238 L 339.985352 51.594238 L 339.061523 51.594238 L 339.061523 40.594238 Z " fill="rgb(0, 0, 0)" fill-opacity="1.000000" />
<path d="M 349.574219 50.020508 L 349.574219 50.933594 L 343.000000 50.933594 L 343.000000 50.020508 Z " fill="rgb(0, 0, 0)" fill-opacity="1.000000" />
<path d="M 356.574219 50.020508 L 356.574219 50.933594 L 350.000000 50.933594 L 350.000000 50.020508 Z " fill="rgb(0, 0, 0)" fill-opacity="1.000000" />
<path d="M 360.985352 40.594238 L 360.985352 51.594238 L 360.061523 51.594238 L 360.061523 40.594238 Z " fill="rgb(0, 0, 0)" fill-opacity="1.000000" />
<path d="M 367.985352 40.594238 L 367.985352 51.594238 L 367.061523 51.594238 L 367.061523 40.594238 Z " fill="rgb(0, 0, 0)" fill-opacity="1.000000" />
<path d="M 374.985352 40.594238 L 374.985352 51.594238 L 374.061523 51.594238 L 374.061523 40.594238 Z " fill="rgb(0, 0, 0)" fill-opacity="1.000000" />
<path d="M 384.574219 50.020508 L 384.574219 50.933594 L 378.000000 50.933594 L 378.000000 50.020508 Z " fill="rgb(0, 0, 0)" fill-opacity="1.000000" />
<path d="M 391.574219 50.020508 L 391.574219 50.933594 L 385.000000 50.933594 L 385.000000 50.020508 Z " fill="rgb(0, 0, 0)" fill-opacity="1.000000" />
<path d="M 395.985352 40.594238 L 395.985352 51.594238 L 395.061523 51.594238 L 395.061523 40.594238 Z " fill="rgb(0, 0, 0)" fill-opacity="1.000000" />
<path d="M 402.985352 40.594238 L 402.985352 51.594238 L 402.061523 51.594238 L 402.061523 40.594238 Z " fill="rgb(0, 0, 0)" fill-opacity="1.000000" />
<path d="M 409.985352 40.594238 L 409.985352 51.594238 L 409.061523 51.594238 L 409.061523 40.594238 Z " fill="rgb(0, 0, 0)" fill-opacity="1.000000" />
<path d="M 419.574219 50.020508 L 419.574219 50.933594 L 413.000000 50.933594 L 413.000000 50.020508 Z " fill="rgb(0, 0, 0)" fill-opacity="1.000000" />
<path d="M 426.574219 50.020508 L 426.574219 50.933594 L 420.000000 50.933594 L 420.000000 50.020508 Z " fill="rgb(0, 0, 0)" fill-opacity="1.000000" />
<path d="M 430.985352 40.594238 L 430.985352 51.594238 L 430.061523 51.594238 L 430.061523 40.594238 Z " fill="rgb(0, 0, 0)" fill-opacity="1.000000" />
<path d="M 437.985352 40.594238 L 437.985352 51.594238 L 437.061523 51.594238 L 437.061523 40.594238 Z " fill="rgb(0, 0, 0)" fill-opacity="1.000000" />
<path d="M 444.985352 40.594238 L 444.985352 51.594238 L 444.061523 51.594238 L 444.061523 40.594238 Z " fill="rgb(0, 0, 0)" fill-opacity="1.000000" />
<path d="M 454.574219 50.020508 L 454.574219 50.933594 L 448.000000 50.933594 L 448.000000 50.020508 Z " fill="rgb(0, 0, 0)" fill-opacity="1.000000" />
<path d="M 461.574219 50.020508 L 461.574219 50.933594 L 455.000000 50.933594 L 455.000000 50.020508 Z " fill="rgb(0, 0, 0)" fill-opacity="1.000000" />
<path d="M 465.985352 40.594238 L 465.985352 51.594238 L 465.061523 51.594238 L 465.061523 40.594238 Z " fill="rgb(0, 0, 0)" fill-opacity="1.000000" />
<path d="M 472.985352 40.594238 L 472.985352 51.594238 L 472.061523 51.594238 L 472.061523 40.594238 Z " fill="rgb(0, 0, 0)" fill-opacity="1.000000" />
<path d="M 479.985352 40.594238 L 479.985352 51.594238 L 479.061523 51.594238 L 479.061523 40.594238 Z " fill="rgb(0, 0, 0)" fill-opacity="1.000000" />
<path d="M 489.574219 50.020508 L 489.574219 50.933594 L 483.000000 50.933594 L 483.000000 50.020508 Z " fill="rgb(0, 0, 0)" fill-opacity="1.000000" />
<path d="M 496.574219 50.020508 L 496.574219 50.933594 L 490.000000 50.933594 L 490.000000 50.020508 Z " fill="rgb(0, 0, 0)" fill-opacity="1.000000" />
<path d="M 500.985352 40.594238 L 500.985352 51.594238 L 500.061523 51.594238 L 500.061523 40.594238 Z " fill="rgb(0, 0, 0)" fill-opacity="1.000000" />
<path d="M 507.985352 40.594238 L 507.985352 51.594238 L 507.061523 51.594238 L 507.061523 40.594238 Z " fill="rgb(0, 0, 0)" fill-opacity="1.000000" />
<path d="M 80.985352 27.594238 L 80.985352 38.594238 L 80.061523 38.594238 L 80.061523 27.594238 Z " fill="rgb(0, 0, 0)" fill-opacity="1.000000" />
<path d="M 87.985352 27.594238 L 87.985352 38.594238 L 87.061523 38.594238 L 87.061523 27.594238 Z " fill="rgb(0, 0, 0)" fill-opacity="1.000000" />
<path d="M 94.985352 27.594238 L 94.985352 38.594238 L 94.061523 38.594238 L 94.061523 27.594238 Z " fill="rgb(0, 0, 0)" fill-opacity="1.000000" />
<path d="M 99.697266 30.005859 L 102.227051 30.005859 L 102.227051 35.231934 L 104.187500 35.231934 L 104.187500 36.000000 L 99.278320 36.000000 L 99.278320 35.231934 L 101.238770 35.231934 L 101.238770 30.773926 L 99.697266 30.773926 Z M 101.238770 27.669434 L 102.227051 27.669434 L 102.227051 28.915527 L 101.238770 28.915527 Z " fill="rgb(0, 0, 0)" fill-opacity="1.000000" />
<path d="M 115.985352 27.594238 L 115.985352 38.594238 L 115.061523 38.594238 L 115.061523 27.594238 Z " fill="rgb(0, 0, 0)" fill-opacity="1.000000" />
<path d="M 122.985352 27.594238 L 122.985352 38.594238 L 122.061523 38.594238 L 122.061523 27.594238 Z " fill="rgb(0, 0, 0)" fill-opacity="1.000000" />
<path d="M 129.985352 27.594238 L 129.985352 38.594238 L 129.061523 38.594238 L 129.061523 27.594238 Z " fill="rgb(0, 0, 0)" fill-opacity="1.000000" />
<path d="M 139.203613 31.225098 Q 138.886719 30.978027 138.559082 30.865234 Q 138.231445 30.752441 137.839355 30.752441 Q 136.915527 30.752441 136.426758 31.332520 Q 135.937988 31.912598 135.937988 33.008301 L 135.937988 36.000000 L 134.944336 36.000000 L 134.944336 29.984375 L 135.937988 29.984375 L 135.937988 31.160645 Q 136.185059 30.521484 136.697998 30.180420 Q 137.210938 29.839355 137.914551 29.839355 Q 138.279785 29.839355 138.596680 29.930664 Q 138.913574 30.021973 139.203613 30.215332 Z " fill="rgb(0, 0, 0)" fill-opacity="1.000000" />
<path d="M 150.985352 27.594238 L 150.985352 38.594238 L 150.061523 38.594238 L 150.061523 27.594238 Z " fill="rgb(0, 0, 0)" fill-opacity="1.000000" />
<path d="M 157.985352 27.594238 L 157.985352 38.594238 L 157.061523 38.594238 L 157.061523 27.594238 Z " fill="rgb(0, 0, 0)" fill-opacity="1.000000" />
<path d="M 164.985352 27.594238 L 164.985352 38.594238 L 164.061523 38.594238 L 164.061523 27.594238 Z " fill="rgb(0, 0, 0)" fill-opacity="1.000000" />
<path d="M 173.698730 35.693848 Q 173.301270 35.924805 172.879639 36.040283 Q 172.458008 36.155762 172.017578 36.155762 Q 170.621094 36.155762 169.834229 35.317871 Q 169.047363 34.479980 169.047363 32.997559 Q 169.047363 31.515137 169.834229 30.677246 Q 170.621094 29.839355 172.017578 29.839355 Q 172.452637 29.839355 172.866211 29.952148 Q 173.279785 30.064941 173.698730 30.301270 L 173.698730 31.337891 Q 173.306641 30.988770 172.911865 30.833008 Q 172.517090 30.677246 172.017578 30.677246 Q 171.088379 30.677246 170.588867 31.278809 Q 170.089355 31.880371 170.089355 32.997559 Q 170.089355 34.109375 170.591553 34.713623 Q 171.093750 35.317871 172.017578 35.317871 Q 172.533203 35.317871 172.941406 35.159424 Q 173.349609 35.000977 173.698730 34.667969 Z " fill="rgb(0, 0, 0)" fill-opacity="1.000000" />
<path d="M 185.985352 27.594238 L 185.985352 38.594238 L 185.061523 38.594238 L 185.061523 27.594238 Z " fill="rgb(0, 0, 0)" fill-opacity="1.000000" />
<path d="M 192.985352 27.594238 L 192.985352 38.594238 L 192.061523 38.594238 L 192.061523 27.594238 Z " fill="rgb(0, 0, 0)" fill-opacity="1.000000" />
<path d="M 199.985352 27.594238 L 199.985352 38.594238 L 199.061523 38.594238 L 199.061523 27.594238 Z " fill="rgb(0, 0, 0)" fill-opacity="1.000000" />
<path d="M 204.047363 33.722656 L 204.047363 29.995117 L 205.035645 29.995117 L 205.035645 33.722656 Q 205.035645 34.533691 205.322998 34.915039 Q 205.610352 35.296387 206.211914 35.296387 Q 206.910156 35.296387 207.280762 34.804932 Q 207.651367 34.313477 207.651367 33.395020 L 207.651367 29.995117 L 208.645020 29.995117 L 208.645020 36.000000 L 207.651367 36.000000 L 207.651367 35.097656 Q 207.388184 35.618652 206.934326 35.887207 Q 206.480469 36.155762 205.873535 36.155762 Q 204.949707 36.155762 204.498535 35.551514 Q 204.047363 34.947266 204.047363 33.722656 Z " fill="rgb(0, 0, 0)" fill-opacity="1.000000" />
<path d="M 220.985352 27.594238 L 220.985352 38.594238 L 220.061523 38.594238 L 220.061523 27.594238 Z " fill="rgb(0, 0, 0)" fill-opacity="1.000000" />
<path d="M 227.985352 27.594238 L 227.985352 38.594238 L 227.061523 38.594238 L 227.061523 27.594238 Z " fill="rgb(0, 0, 0)" fill-opacity="1.000000" />
<path d="M 234.985352 27.594238 L 234.985352 38.594238 L 234.061523 38.594238 L 234.061523 27.594238 Z " fill="rgb(0, 0, 0)" fill-opacity="1.000000" />
<path d="M 241.630859 30.596680 Q 241.813477 30.209961 242.095459 30.024658 Q 242.377441 29.839355 242.774902 29.839355 Q 243.500000 29.839355 243.798096 30.400635 Q 244.096191 30.961914 244.096191 32.514160 L 244.096191 36.000000 L 243.193848 36.000000 L 243.193848 32.557129 Q 243.193848 31.284180 243.051514 30.975342 Q 242.909180 30.666504 242.533203 30.666504 Q 242.103516 30.666504 241.945068 30.996826 Q 241.786621 31.327148 241.786621 32.557129 L 241.786621 36.000000 L 240.884277 36.000000 L 240.884277 32.557129 Q 240.884277 31.268066 240.731201 30.967285 Q 240.578125 30.666504 240.180664 30.666504 Q 239.788574 30.666504 239.635498 30.996826 Q 239.482422 31.327148 239.482422 32.557129 L 239.482422 36.000000 L 238.585449 36.000000 L 238.585449 29.984375 L 239.482422 29.984375 L 239.482422 30.500000 Q 239.659668 30.177734 239.925537 30.008545 Q 240.191406 29.839355 240.529785 29.839355 Q 240.937988 29.839355 241.209229 30.027344 Q 241.480469 30.215332 241.630859 30.596680 Z " fill="rgb(0, 0, 0)" fill-opacity="1.000000" />
<path d="M 255.985352 27.594238 L 255.985352 38.594238 L 255.061523 38.594238 L 255.061523 27.594238 Z " fill="rgb(0, 0, 0)" fill-opacity="1.000000" />
<path d="M 262.985352 27.594238 L 262.985352 38.594238 L 262.061523 38.594238 L 262.061523 27.594238 Z " fill="rgb(0, 0, 0)" fill-opacity="1.000000" />
<path d="M 269.985352 27.594238 L 269.985352 38.594238 L 269.061523 38.594238 L 269.061523 27.594238 Z " fill="rgb(0, 0, 0)" fill-opacity="1.000000" />
<path d="M 325.985352 27.594238 L 325.985352 38.594238 L 325.061523 38.594238 L 325.061523 27.594238 Z " fill="rgb(0, 0, 0)" fill-opacity="1.000000" />
<path d="M 332.985352 27.594238 L 332.985352 38.594238 L 332.061523 38.594238 L 332.061523 27.594238 Z " fill="rgb(0, 0, 0)" fill-opacity="1.000000" />
<path d="M 339.985352 27.594238 L 339.985352 38.594238 L 339.061523 38.594238 L 339.061523 27.594238 Z " fill="rgb(0, 0, 0)" fill-opacity="1.000000" />
<path d="M 346.308594 35.086914 L 348.193848 27.980957 L 349.316406 27.980957 L 346.969238 36.000000 L 345.653320 36.000000 L 343.306152 27.980957 L 344.428711 27.980957 Z " fill="rgb(0, 0, 0)" fill-opacity="1.000000" />
<path d="M 360.985352 27.594238 L 360.985352 38.594238 L 360.061523 38.594238 L 360.061523 27.594238 Z " fill="rgb(0, 0, 0)" fill-opacity="1.000000" />
<path d="M 367.985352 27.594238 L 367.985352 38.594238 L 367.061523 38.594238 L 367.061523 27.594238 Z " fill="rgb(0, 0, 0)" fill-opacity="1.000000" />
<path d="M 374.985352 27.594238 L 374.985352 38.594238 L 374.061523 38.594238 L 374.061523 27.594238 Z " fill="rgb(0, 0, 0)" fill-opacity="1.000000" />
<path d="M 379.697266 30.005859 L 382.227051 30.005859 L 382.227051 35.231934 L 384.187500 35.231934 L 384.187500 36.000000 L 379.278320 36.000000 L 379.278320 35.231934 L 381.238770 35.231934 L 381.238770 30.773926 L 379.697266 30.773926 Z M 381.238770 27.669434 L 382.227051 27.669434 L 382.227051 28.915527 L 381.238770 28.915527 Z " fill="rgb(0, 0, 0)" fill-opacity="1.000000" />
<path d="M 395.985352 27.594238 L 395.985352 38.594238 L 395.061523 38.594238 L 395.061523 27.594238 Z " fill="rgb(0, 0, 0)" fill-opacity="1.000000" />
<path d="M 402.985352 27.594238 L 402.985352 38.594238 L 402.061523 38.594238 L 402.061523 27.594238 Z " fill="rgb(0, 0, 0)" fill-opacity="1.000000" />
<path d="M 409.985352 27.594238 L 409.985352 38.594238 L 409.061523 38.594238 L 409.061523 27.594238 Z " fill="rgb(0, 0, 0)" fill-opacity="1.000000" />
<path d="M 416.297852 28.276367 L 416.297852 29.984375 L 418.542969 29.984375 L 418.542969 30.752441 L 416.297852 30.752441 L 416.297852 34.018066 Q 416.297852 34.684082 416.550293 34.947266 Q 416.802734 35.210449 417.431152 35.210449 L 418.542969 35.210449 L 418.542969 36.000000 L 417.334473 36.000000 Q 416.222656 36.000000 415.766113 35.554199 Q 415.309570 35.108398 415.309570 34.018066 L 415.309570 30.752441 L 413.703613 30.752441 L 413.703613 29.984375 L 415.309570 29.984375 L 415.309570 28.276367 Z " fill="rgb(0, 0, 0)" fill-opacity="1.000000" />
<path d="M 430.985352 27.594238 L 430.985352 38.594238 L 430.061523 38.594238 L 430.061523 27.594238 Z " fill="rgb(0, 0, 0)" fill-opacity="1.000000" />
<path d="M 437.985352 27.594238 L 437.985352 38.594238 L 437.061523 38.594238 L 437.061523 27.594238 Z " fill="rgb(0, 0, 0)" fill-opacity="1.000000" />
<path d="M 444.985352 27.594238 L 444.985352 38.594238 L 444.061523 38.594238 L 444.061523 27.594238 Z " fill="rgb(0, 0, 0)" fill-opacity="1.000000" />
<path d="M 451.770508 32.976074 L 451.442871 32.976074 Q 450.578125 32.976074 450.140381 33.279541 Q 449.702637 33.583008 449.702637 34.184570 Q 449.702637 34.727051 450.030273 35.027832 Q 450.357910 35.328613 450.937988 35.328613 Q 451.754395 35.328613 452.221680 34.761963 Q 452.688965 34.195312 452.694336 33.196289 L 452.694336 32.976074 Z M 453.687988 32.567871 L 453.687988 36.000000 L 452.694336 36.000000 L 452.694336 35.108398 Q 452.377441 35.645508 451.896729 35.900635 Q 451.416016 36.155762 450.728516 36.155762 Q 449.810059 36.155762 449.262207 35.637451 Q 448.714355 35.119141 448.714355 34.249023 Q 448.714355 33.244629 449.388428 32.723633 Q 450.062500 32.202637 451.367676 32.202637 L 452.694336 32.202637 L 452.694336 32.046875 Q 452.688965 31.327148 452.329102 31.002197 Q 451.969238 30.677246 451.179688 30.677246 Q 450.674805 30.677246 450.159180 30.822266 Q 449.643555 30.967285 449.154785 31.246582 L 449.154785 30.258301 Q 449.702637 30.048828 450.204834 29.944092 Q 450.707031 29.839355 451.179688 29.839355 Q 451.926270 29.839355 452.455322 30.059570 Q 452.984375 30.279785 453.312012 30.720215 Q 453.516113 30.988770 453.602051 31.383545 Q 453.687988 31.778320 453.687988 32.567871 Z " fill="rgb(0, 0, 0)" fill-opacity="1.000000" />
<path d="M 465.985352 27.594238 L 465.985352 38.594238 L 465.061523 38.594238 L 465.061523 27.594238 Z " fill="rgb(0, 0, 0)" fill-opacity="1.000000" />
<path d="M 472.985352 27.594238 L 472.985352 38.594238 L 472.061523 38.594238 L 472.061523 27.594238 Z " fill="rgb(0, 0, 0)" fill-opacity="1.000000" />
<path d="M 479.985352 27.594238 L 479.985352 38.594238 L 479.061523 38.594238 L 479.061523 27.594238 Z " fill="rgb(0, 0, 0)" fill-opacity="1.000000" />
<path d="M 489.015625 32.498047 L 489.015625 32.981445 L 484.734863 32.981445 L 484.734863 33.013672 Q 484.691895 34.243652 485.204834 34.780762 Q 485.717773 35.317871 486.652344 35.317871 Q 487.125000 35.317871 487.640625 35.167480 Q 488.156250 35.017090 488.741699 34.710938 L 488.741699 35.693848 Q 488.177734 35.924805 487.654053 36.040283 Q 487.130371 36.155762 486.641602 36.155762 Q 485.239746 36.155762 484.450195 35.315186 Q 483.660645 34.474609 483.660645 32.997559 Q 483.660645 31.558105 484.434082 30.698730 Q 485.207520 29.839355 486.496582 29.839355 Q 487.645996 29.839355 488.309326 30.618164 Q 488.972656 31.396973 489.015625 32.498047 Z M 488.027344 32.208008 Q 487.962891 31.584961 487.573486 31.131104 Q 487.184082 30.677246 486.453613 30.677246 Q 485.739258 30.677246 485.277344 31.149902 Q 484.815430 31.622559 484.772461 32.213379 Z " fill="rgb(0, 0, 0)" fill-opacity="1.000000" />
<path d="M 500.985352 27.594238 L 500.985352 38.594238 L 500.061523 38.594238 L 500.061523 27.594238 Z " fill="rgb(0, 0, 0)" fill-opacity="1.000000" />
<path d="M 507.985352 27.594238 L 507.985352 38.594238 L 507.061523 38.594238 L 507.061523 27.594238 Z " fill="rgb(0, 0, 0)" fill-opacity="1.000000" />
<path d="M 62.574219 24.020508 L 62.574219 24.933594 L 56.000000 24.933594 L 56.000000 24.020508 Z " fill="rgb(0, 0, 0)" fill-opacity="1.000000" />
<path d="M 69.574219 24.020508 L 69.574219 24.933594 L 63.000000 24.933594 L 63.000000 24.020508 Z " fill="rgb(0, 0, 0)" fill-opacity="1.000000" />
<path d="M 76.574219 24.020508 L 76.574219 24.933594 L 70.000000 24.933594 L 70.000000 24.020508 Z " fill="rgb(0, 0, 0)" fill-opacity="1.000000" />
<path d="M 83.574219 24.020508 L 83.574219 24.933594 L 77.000000 24.933594 L 77.000000 24.020508 Z " fill="rgb(0, 0, 0)" fill-opacity="1.000000" />
<path d="M 97.574219 24.020508 L 97.574219 24.933594 L 91.000000 24.933594 L 91.000000 24.020508 Z " fill="rgb(0, 0, 0)" fill-opacity="1.000000" />
<path d="M 104.574219 24.020508 L 104.574219 24.933594 L 98.000000 24.933594 L 98.000000 24.020508 Z " fill="rgb(0, 0, 0)" fill-opacity="1.000000" />
<path d="M 111.574219 24.020508 L 111.574219 24.933594 L 105.000000 24.933594 L 105.000000 24.020508 Z " fill="rgb(0, 0, 0)" fill-opacity="1.000000" />
<path d="M 118.574219 24.020508 L 118.574219 24.933594 L 112.000000 24.933594 L 112.000000 24.020508 Z " fill="rgb(0, 0, 0)" fill-opacity="1.000000" />
<path d="M 132.574219 24.020508 L 132.574219 24.933594 L 126.000000 24.933594 L 126.000000 24.020508 Z " fill="rgb(0, 0, 0)" fill-opacity="1.000000" />
<path d="M 139.574219 24.020508 L 139.574219 24.933594 L 133.000000 24.933594 L 133.000000 24.020508 Z " fill="rgb(0, 0, 0)" fill-opacity="1.000000" />
<path d="M 146.574219 24.020508 L 146.574219 24.933594 L 140.000000 24.933594 L 140.000000 24.020508 Z " fill="rgb(0, 0, 0)" fill-opacity="1.000000" />
<path d="M 153.574219 24.020508 L 153.574219 24.933594 L 147.000000 24.933594 L 147.000000 24.020508 Z " fill="rgb(0, 0, 0)" fill-opacity="1.000000" />
<path d="M 167.574219 24.020508 L 167.574219 24.933594 L 161.000000 24.933594 L 161.000000 24.020508 Z " fill="rgb(0, 0, 0)" fill-opacity="1.000000" />
<path d="M 174.574219 24.020508 L 174.574219 24.933594 L 168.000000 24.933594 L 168.000000 24.020508 Z " fill="rgb(0, 0, 0)" fill-opacity="1.000000" />
<path d="M 181.574219 24.020508 L 181.574219 24.933594 L 175.000000 24.933594 L 175.000000 24.020508 Z " fill="rgb(0, 0, 0)" fill-opacity="1.000000" />
<path d="M 188.574219 24.020508 L 188.574219 24.933594 L 182.000000 24.933594 L 182.000000 24.020508 Z " fill="rgb(0, 0, 0)" fill-opacity="1.000000" />
<path d="M 202.574219 24.020508 L 202.574219 24.933594 L 196.000000 24.933594 L 196.000000 24.020508 Z " fill="rgb(0, 0, 0)" fill-opacity="1.000000" />
<path d="M 209.574219 24.020508 L 209.574219 24.933594 L 203.000000 24.933594 L 203.000000 24.020508 Z " fill="rgb(0, 0, 0)" fill-opacity="1.000000" />
<path d="M 216.574219 24.020508 L 216.574219 24.933594 L 210.000000 24.933594 L 210.000000 24.020508 Z " fill="rgb(0, 0, 0)" fill-opacity="1.000000" />
<path d="M 223.574219 24.020508 L 223.574219 24.933594 L 217.000000 24.933594 L 217.000000 24.020508 Z " fill="rgb(0, 0, 0)" fill-opacity="1.000000" />
<path d="M 237.574219 24.020508 L 237.574219 24.933594 L 231.000000 24.933594 L 231.000000 24.020508 Z " fill="rgb(0, 0, 0)" fill-opacity="1.000000" />
<path d="M 244.574219 24.020508 L 244.574219 24.933594 L 238.000000 24.933594 L 238.000000 24.020508 Z " fill="rgb(0, 0, 0)" fill-opacity="1.000000" />
<path d="M 251.574219 24.020508 L 251.574219 24.933594 L 245.000000 24.933594 L 245.000000 24.020508 Z " fill="rgb(0, 0, 0)" fill-opacity="1.000000" />
<path d="M 258.574219 24.020508 L 258.574219 24.933594 L 252.000000 24.933594 L 252.000000 24.020508 Z " fill="rgb(0, 0, 0)" fill-opacity="1.000000" />
<path d="M 272.574219 24.020508 L 272.574219 24.933594 L 266.000000 24.933594 L 266.000000 24.020508 Z " fill="rgb(0, 0, 0)" fill-opacity="1.000000" />
<path d="M 279.574219 24.020508 L 279.574219 24.933594 L 273.000000 24.933594 L 273.000000 24.020508 Z " fill="rgb(0, 0, 0)" fill-opacity="1.000000" />
<path d="M 286.574219 24.020508 L 286.574219 24.933594 L 280.000000 24.933594 L 280.000000 24.020508 Z " fill="rgb(0, 0, 0)" fill-opacity="1.000000" />
<path d="M 293.574219 24.020508 L 293.574219 24.933594 L 287.000000 24.933594 L 287.000000 24.020508 Z " fill="rgb(0, 0, 0)" fill-opacity="1.000000" />
<path d="M 300.574219 24.020508 L 300.574219 24.933594 L 294.000000 24.933594 L 294.000000 24.020508 Z " fill="rgb(0, 0, 0)" fill-opacity="1.000000" />
<path d="M 307.574219 24.020508 L 307.574219 24.933594 L 301.000000 24.933594 L 301.000000 24.020508 Z " fill="rgb(0, 0, 0)" fill-opacity="1.000000" />
<path d="M 314.574219 24.020508 L 314.574219 24.933594 L 308.000000 24.933594 L 308.000000 24.020508 Z " fill="rgb(0, 0, 0)" fill-opacity="1.000000" />
<path d="M 321.574219 24.020508 L 321.574219 24.933594 L 315.000000 24.933594 L 315.000000 24.020508 Z " fill="rgb(0, 0, 0)" fill-opacity="1.000000" />
<path d="M 328.574219 24.020508 L 328.574219 24.933594 L 322.000000 24.933594 L 322.000000 24.020508 Z " fill="rgb(0, 0, 0)" fill-opacity="1.000000" />
<path d="M 342.574219 24.020508 L 342.574219 24.933594 L 336.000000 24.933594 L 336.000000 24.020508 Z " fill="rgb(0, 0, 0)" fill-opacity="1.000000" />
<path d="M 349.574219 24.020508 L 349.574219 24.933594 L 343.000000 24.933594 L 343.000000 24.020508 Z " fill="rgb(0, 0, 0)" fill-opacity="1.000000" />
<path d="M 356.574219 24.020508 L 356.574219 24.933594 L 350.000000 24.933594 L 350.000000 24.020508 Z " fill="rgb(0, 0, 0)" fill-opacity="1.000000" />
<path d="M 363.574219 24.020508 L 363.574219 24.933594 L 357.000000 24.933594 L 357.000000 24.020508 Z " fill="rgb(0, 0, 0)" fill-opacity="1.000000" />
<path d="M 377.574219 24.020508 L 377.574219 24.933594 L 371.000000 24.933594 L 371.000000 24.020508 Z " fill="rgb(0, 0, 0)" fill-opacity="1.000000" />
<path d="M 384.574219 24.020508 L 384.574219 24.933594 L 378.000000 24.933594 L 378.000000 24.020508 Z " fill="rgb(0, 0, 0)" fill-opacity="1.000000" />
<path d="M 391.574219 24.020508 L 391.574219 24.933594 L 385.000000 24.933594 L 385.000000 24.020508 Z " fill="rgb(0, 0, 0)" fill-opacity="1.000000" />
<path d="M 398.574219 24.020508 L 398.574219 24.933594 L 392.000000 24.933594 L 392.000000 24.020508 Z " fill="rgb(0, 0, 0)" fill-opacity="1.000000" />
<path d="M 412.574219 24.020508 L 412.574219 24.933594 L 406.000000 24.933594 L 406.000000 24.020508 Z " fill="rgb(0, 0, 0)" fill-opacity="1.000000" />
<path d="M 419.574219 24.020508 L 419.574219 24.933594 L 413.000000 24.933594 L 413.000000 24.020508 Z " fill="rgb(0, 0, 0)" fill-opacity="1.000000" />
<path d="M 426.574219 24.020508 L 426.574219 24.933594 L 420.000000 24.933594 L 420.000000 24.020508 Z " fill="rgb(0, 0, 0)" fill-opacity="1.000000" />
<path d="M 433.574219 24.020508 L 433.574219 24.933594 L 427.000000 24.933594 L 427.000000 24.020508 Z " fill="rgb(0, 0, 0)" fill-opacity="1.000000" />
<path d="M 447.574219 24.020508 L 447.574219 24.933594 L 441.000000 24.933594 L 441.000000 24.020508 Z " fill="rgb(0, 0, 0)" fill-opacity="1.000000" />
<path d="M 454.574219 24.020508 L 454.574219 24.933594 L 448.000000 24.933594 L 448.000000 24.020508 Z " fill="rgb(0, 0, 0)" fill-opacity="1.000000" />
<path d="M 461.574219 24.020508 L 461.574219 24.933594 L 455.000000 24.933594 L 455.000000 24.020508 Z " fill="rgb(0, 0, 0)" fill-opacity="1.000000" />
<path d="M 468.574219 24.020508 L 468.574219 24.933594 L 462.000000 24.933594 L 462.000000 24.020508 Z " fill="rgb(0, 0, 0)" fill-opacity="1.000000" />
<path d="M 482.574219 24.020508 L 482.574219 24.933594 L 476.000000 24.933594 L 476.000000 24.020508 Z " fill="rgb(0, 0, 0)" fill-opacity="1.000000" />
<path d="M 489.574219 24.020508 L 489.574219 24.933594 L 483.000000 24.933594 L 483.000000 24.020508 Z " fill="rgb(0, 0, 0)" fill-opacity="1.000000" />
<path d="M 496.574219 24.020508 L 496.574219 24.933594 L 490.000000 24.933594 L 490.000000 24.020508 Z " fill="rgb(0, 0, 0)" fill-opacity="1.000000" />
<path d="M 503.574219 24.020508 L 503.574219 24.933594 L 497.000000 24.933594 L 497.000000 24.020508 Z " fill="rgb(0, 0, 0)" fill-opacity="1.000000" />
</svg>