<?xml version="1.0" encoding="utf-8"?>
<!-- Svg Vector Icons : http://www.onlinewebfonts.com/icon -->
<!DOCTYPE svg PUBLIC "-//W3C//DTD SVG 1.1//EN" "http://www.w3.org/Graphics/SVG/1.1/DTD/svg11.dtd">
<svg version="1.1" xmlns="http://www.w3.org/2000/svg" xmlns:xlink="http://www.w3.org/1999/xlink" x="0px" y="0px" viewBox="0 0 1000 1000" enable-background="new 0 0 1000 1000" xml:space="preserve">
<metadata> Svg Vector Icons : http://www.onlinewebfonts.com/icon </metadata>
<g><path d="M651.5,352.5c69.8,0,126.3-56.5,126.3-126.3S721.3,99.9,651.5,99.9s-126.3,56.5-126.3,126.3S581.8,352.5,651.5,352.5z M946.8,295.1C765.9,424.1,682.6,401.5,601,399c-56.5-2.9-75.8,15.1-75.8,54.5l0,303.1c0,252.5,425.3,173.2,260.9-250c84.4-48.4,155.4-122.9,195.8-172.3C1002.7,303.5,980.5,271.4,946.8,295.1z M348.5,99.9c-69.8,0-126.3,56.5-126.3,126.3s56.5,126.3,126.3,126.3c69.8,0,126.3-56.5,126.3-126.3S418.2,99.9,348.5,99.9z M399,399c-81.6,2.6-164.9,25.2-345.7-103.9c-33.8-23.7-56,8.5-35.2,39.1c40.4,49.4,111.4,123.9,195.8,172.3c-164.5,423.2,260.9,502.5,260.9,250l0.1-303.1C474.7,414,455.5,396.1,399,399z"/></g>
</svg>